<svg width="120" height="110" viewBox="0 0 120 110" fill="none" xmlns="http://www.w3.org/2000/svg">
<path d="M120 61C120 51.2533 114.311 41.9058 104.184 35.0138C94.0568 28.1219 80.3217 24.25 66 24.25C51.6783 24.25 37.9432 28.1219 27.8162 35.0138C17.6893 41.9058 12 51.2533 12 61C12 70.7467 17.6893 80.0942 27.8162 86.9862C37.9432 93.8781 51.6783 97.75 66 97.75H72.75C79.5 103.875 93 110 106.5 110C103.125 106.938 99.75 97.75 99.75 89.7109C106.073 86.2654 111.177 81.8958 114.682 76.9258C118.188 71.9559 120.005 66.5129 120 61Z" fill="#FF5143"/>
<path d="M80.027 46L64.325 70.6485L66.8034 74.12L84.4262 46H80.027Z" fill="#FFFECE"/>
<path d="M45.09 46L65.8964 78.2531L86.9101 46H91.1266L67.21 84H64.7906L40.8735 46H45.09Z" fill="#FFFECE"/>
<path d="M7.66749 16.128C6.81416 16.128 6.02483 15.9893 5.29949 15.712C4.58483 15.424 3.96083 15.024 3.42749 14.512C2.90483 13.9893 2.49416 13.3813 2.19549 12.688C1.89683 11.9947 1.74749 11.232 1.74749 10.4C1.74749 9.568 1.89683 8.80533 2.19549 8.112C2.49416 7.41867 2.91016 6.816 3.44349 6.304C3.97683 5.78133 4.60083 5.38133 5.31549 5.104C6.04083 4.816 6.83016 4.672 7.68349 4.672C8.54749 4.672 9.34216 4.82133 10.0675 5.12C10.8035 5.408 11.4275 5.84 11.9395 6.416L10.8995 7.424C10.4728 6.976 9.99283 6.64533 9.45949 6.432C8.92616 6.208 8.35549 6.096 7.74749 6.096C7.11816 6.096 6.53149 6.20267 5.98749 6.416C5.45416 6.62933 4.99016 6.928 4.59549 7.312C4.20083 7.696 3.89149 8.15467 3.66749 8.688C3.45416 9.21067 3.34749 9.78133 3.34749 10.4C3.34749 11.0187 3.45416 11.5947 3.66749 12.128C3.89149 12.6507 4.20083 13.104 4.59549 13.488C4.99016 13.872 5.45416 14.1707 5.98749 14.384C6.53149 14.5973 7.11816 14.704 7.74749 14.704C8.35549 14.704 8.92616 14.5973 9.45949 14.384C9.99283 14.16 10.4728 13.8187 10.8995 13.36L11.9395 14.368C11.4275 14.944 10.8035 15.3813 10.0675 15.68C9.34216 15.9787 8.54216 16.128 7.66749 16.128ZM17.2706 16.096C16.4173 16.096 15.66 15.9093 14.9986 15.536C14.3373 15.1627 13.8146 14.6507 13.4306 14C13.0466 13.3387 12.8546 12.592 12.8546 11.76C12.8546 10.9173 13.0466 10.1707 13.4306 9.52C13.8146 8.86933 14.3373 8.36267 14.9986 8C15.66 7.62667 16.4173 7.44 17.2706 7.44C18.1133 7.44 18.8653 7.62667 19.5266 8C20.1986 8.36267 20.7213 8.86933 21.0946 9.52C21.4786 10.16 21.6706 10.9067 21.6706 11.76C21.6706 12.6027 21.4786 13.3493 21.0946 14C20.7213 14.6507 20.1986 15.1627 19.5266 15.536C18.8653 15.9093 18.1133 16.096 17.2706 16.096ZM17.2706 14.752C17.8146 14.752 18.3 14.6293 18.7266 14.384C19.164 14.1387 19.5053 13.792 19.7506 13.344C19.996 12.8853 20.1186 12.3573 20.1186 11.76C20.1186 11.152 19.996 10.6293 19.7506 10.192C19.5053 9.744 19.164 9.39733 18.7266 9.152C18.3 8.90667 17.8146 8.784 17.2706 8.784C16.7266 8.784 16.2413 8.90667 15.8146 9.152C15.388 9.39733 15.0466 9.744 14.7906 10.192C14.5346 10.6293 14.4066 11.152 14.4066 11.76C14.4066 12.3573 14.5346 12.8853 14.7906 13.344C15.0466 13.792 15.388 14.1387 15.8146 14.384C16.2413 14.6293 16.7266 14.752 17.2706 14.752ZM28.3229 7.44C29.0162 7.44 29.6242 7.57333 30.1469 7.84C30.6802 8.10667 31.0962 8.512 31.3949 9.056C31.6935 9.6 31.8429 10.288 31.8429 11.12V16H30.3069V11.296C30.3069 10.4747 30.1042 9.856 29.6989 9.44C29.3042 9.024 28.7442 8.816 28.0189 8.816C27.4749 8.816 27.0002 8.92267 26.5949 9.136C26.1895 9.34933 25.8749 9.664 25.6509 10.08C25.4375 10.496 25.3309 11.0133 25.3309 11.632V16H23.7949V7.52H25.2669V9.808L25.0269 9.2C25.3042 8.64533 25.7309 8.21333 26.3069 7.904C26.8829 7.59467 27.5549 7.44 28.3229 7.44ZM36.7532 16L33.0412 7.52H34.6412L37.9372 15.2H37.1692L40.5292 7.52H42.0332L38.3212 16H36.7532ZM47.0084 16.096C46.1017 16.096 45.3017 15.9093 44.6084 15.536C43.9257 15.1627 43.3924 14.6507 43.0084 14C42.635 13.3493 42.4484 12.6027 42.4484 11.76C42.4484 10.9173 42.6297 10.1707 42.9924 9.52C43.3657 8.86933 43.8724 8.36267 44.5124 8C45.163 7.62667 45.8937 7.44 46.7044 7.44C47.5257 7.44 48.251 7.62133 48.8804 7.984C49.5097 8.34667 50.0004 8.85867 50.3524 9.52C50.715 10.1707 50.8964 10.9333 50.8964 11.808C50.8964 11.872 50.891 11.9467 50.8804 12.032C50.8804 12.1173 50.875 12.1973 50.8644 12.272H43.6484V11.168H50.0644L49.4404 11.552C49.451 11.008 49.339 10.5227 49.1044 10.096C48.8697 9.66933 48.5444 9.33867 48.1284 9.104C47.723 8.85867 47.2484 8.736 46.7044 8.736C46.171 8.736 45.6964 8.85867 45.2804 9.104C44.8644 9.33867 44.539 9.67467 44.3044 10.112C44.0697 10.5387 43.9524 11.0293 43.9524 11.584V11.84C43.9524 12.4053 44.0804 12.912 44.3364 13.36C44.603 13.7973 44.971 14.1387 45.4404 14.384C45.9097 14.6293 46.4484 14.752 47.0564 14.752C47.5577 14.752 48.011 14.6667 48.4164 14.496C48.8324 14.3253 49.195 14.0693 49.5044 13.728L50.3524 14.72C49.9684 15.168 49.4884 15.5093 48.9124 15.744C48.347 15.9787 47.7124 16.096 47.0084 16.096ZM53.0292 16V7.52H54.5012V9.824L54.3572 9.248C54.5919 8.66133 54.9866 8.21333 55.5412 7.904C56.0959 7.59467 56.7786 7.44 57.5892 7.44V8.928C57.5252 8.91733 57.4612 8.912 57.3972 8.912C57.3439 8.912 57.2906 8.912 57.2372 8.912C56.4159 8.912 55.7652 9.15733 55.2852 9.648C54.8052 10.1387 54.5652 10.848 54.5652 11.776V16H53.0292ZM62.0081 16.096C61.3041 16.096 60.6321 16 59.9921 15.808C59.3628 15.616 58.8668 15.3813 58.5041 15.104L59.1441 13.888C59.5068 14.1333 59.9548 14.3413 60.4881 14.512C61.0215 14.6827 61.5655 14.768 62.1201 14.768C62.8348 14.768 63.3468 14.6667 63.6561 14.464C63.9761 14.2613 64.1361 13.9787 64.1361 13.616C64.1361 13.3493 64.0401 13.1413 63.8481 12.992C63.6561 12.8427 63.4001 12.7307 63.0801 12.656C62.7708 12.5813 62.4241 12.5173 62.0401 12.464C61.6561 12.4 61.2721 12.3253 60.8881 12.24C60.5041 12.144 60.1521 12.016 59.8321 11.856C59.5121 11.6853 59.2561 11.456 59.0641 11.168C58.8721 10.8693 58.7761 10.4747 58.7761 9.984C58.7761 9.472 58.9201 9.024 59.2081 8.64C59.4961 8.256 59.9015 7.96267 60.4241 7.76C60.9575 7.54667 61.5868 7.44 62.3121 7.44C62.8668 7.44 63.4268 7.50933 63.9921 7.648C64.5681 7.776 65.0375 7.96267 65.4001 8.208L64.7441 9.424C64.3601 9.168 63.9601 8.992 63.5441 8.896C63.1281 8.8 62.7121 8.752 62.2961 8.752C61.6241 8.752 61.1228 8.864 60.7921 9.088C60.4615 9.30133 60.2961 9.57867 60.2961 9.92C60.2961 10.208 60.3921 10.432 60.5841 10.592C60.7868 10.7413 61.0428 10.8587 61.3521 10.944C61.6721 11.0293 62.0241 11.104 62.4081 11.168C62.7921 11.2213 63.1761 11.296 63.5601 11.392C63.9441 11.4773 64.2908 11.6 64.6001 11.76C64.9201 11.92 65.1761 12.144 65.3681 12.432C65.5708 12.72 65.6721 13.104 65.6721 13.584C65.6721 14.096 65.5228 14.5387 65.2241 14.912C64.9255 15.2853 64.5041 15.5787 63.9601 15.792C63.4161 15.9947 62.7655 16.096 62.0081 16.096ZM71.3677 16.096C70.4611 16.096 69.6611 15.9093 68.9677 15.536C68.2851 15.1627 67.7517 14.6507 67.3677 14C66.9944 13.3493 66.8077 12.6027 66.8077 11.76C66.8077 10.9173 66.9891 10.1707 67.3517 9.52C67.7251 8.86933 68.2317 8.36267 68.8717 8C69.5224 7.62667 70.2531 7.44 71.0637 7.44C71.8851 7.44 72.6104 7.62133 73.2397 7.984C73.8691 8.34667 74.3597 8.85867 74.7117 9.52C75.0744 10.1707 75.2557 10.9333 75.2557 11.808C75.2557 11.872 75.2504 11.9467 75.2397 12.032C75.2397 12.1173 75.2344 12.1973 75.2237 12.272H68.0077V11.168H74.4237L73.7997 11.552C73.8104 11.008 73.6984 10.5227 73.4637 10.096C73.2291 9.66933 72.9037 9.33867 72.4877 9.104C72.0824 8.85867 71.6077 8.736 71.0637 8.736C70.5304 8.736 70.0557 8.85867 69.6397 9.104C69.2237 9.33867 68.8984 9.67467 68.6637 10.112C68.4291 10.5387 68.3117 11.0293 68.3117 11.584V11.84C68.3117 12.4053 68.4397 12.912 68.6957 13.36C68.9624 13.7973 69.3304 14.1387 69.7997 14.384C70.2691 14.6293 70.8077 14.752 71.4157 14.752C71.9171 14.752 72.3704 14.6667 72.7757 14.496C73.1917 14.3253 73.5544 14.0693 73.8637 13.728L74.7117 14.72C74.3277 15.168 73.8477 15.5093 73.2717 15.744C72.7064 15.9787 72.0717 16.096 71.3677 16.096ZM87.9966 7.44C88.6793 7.44 89.282 7.57333 89.8046 7.84C90.3273 8.10667 90.7326 8.512 91.0206 9.056C91.3193 9.6 91.4686 10.288 91.4686 11.12V16H89.9326V11.296C89.9326 10.4747 89.7406 9.856 89.3566 9.44C88.9726 9.024 88.434 8.816 87.7406 8.816C87.2286 8.816 86.7806 8.92267 86.3966 9.136C86.0126 9.34933 85.714 9.664 85.5006 10.08C85.298 10.496 85.1966 11.0133 85.1966 11.632V16H83.6606V11.296C83.6606 10.4747 83.4686 9.856 83.0846 9.44C82.7113 9.024 82.1726 8.816 81.4686 8.816C80.9673 8.816 80.5246 8.92267 80.1406 9.136C79.7566 9.34933 79.458 9.664 79.2446 10.08C79.0313 10.496 78.9246 11.0133 78.9246 11.632V16H77.3886V7.52H78.8606V9.776L78.6206 9.2C78.8873 8.64533 79.298 8.21333 79.8526 7.904C80.4073 7.59467 81.0526 7.44 81.7886 7.44C82.5993 7.44 83.298 7.64267 83.8846 8.048C84.4713 8.44267 84.8553 9.04533 85.0366 9.856L84.4126 9.6C84.6686 8.94933 85.1166 8.42667 85.7566 8.032C86.3966 7.63733 87.1433 7.44 87.9966 7.44ZM97.9269 16.096C97.0735 16.096 96.3162 15.9093 95.6549 15.536C94.9935 15.1627 94.4709 14.6507 94.0869 14C93.7029 13.3387 93.5109 12.592 93.5109 11.76C93.5109 10.9173 93.7029 10.1707 94.0869 9.52C94.4709 8.86933 94.9935 8.36267 95.6549 8C96.3162 7.62667 97.0735 7.44 97.9269 7.44C98.7695 7.44 99.5215 7.62667 100.183 8C100.855 8.36267 101.378 8.86933 101.751 9.52C102.135 10.16 102.327 10.9067 102.327 11.76C102.327 12.6027 102.135 13.3493 101.751 14C101.378 14.6507 100.855 15.1627 100.183 15.536C99.5215 15.9093 98.7695 16.096 97.9269 16.096ZM97.9269 14.752C98.4709 14.752 98.9562 14.6293 99.3829 14.384C99.8202 14.1387 100.162 13.792 100.407 13.344C100.652 12.8853 100.775 12.3573 100.775 11.76C100.775 11.152 100.652 10.6293 100.407 10.192C100.162 9.744 99.8202 9.39733 99.3829 9.152C98.9562 8.90667 98.4709 8.784 97.9269 8.784C97.3829 8.784 96.8975 8.90667 96.4709 9.152C96.0442 9.39733 95.7029 9.744 95.4469 10.192C95.1909 10.6293 95.0629 11.152 95.0629 11.76C95.0629 12.3573 95.1909 12.8853 95.4469 13.344C95.7029 13.792 96.0442 14.1387 96.4709 14.384C96.8975 14.6293 97.3829 14.752 97.9269 14.752ZM106.883 16.096C106.179 16.096 105.507 16 104.867 15.808C104.238 15.616 103.742 15.3813 103.379 15.104L104.019 13.888C104.382 14.1333 104.83 14.3413 105.363 14.512C105.896 14.6827 106.44 14.768 106.995 14.768C107.71 14.768 108.222 14.6667 108.531 14.464C108.851 14.2613 109.011 13.9787 109.011 13.616C109.011 13.3493 108.915 13.1413 108.723 12.992C108.531 12.8427 108.275 12.7307 107.955 12.656C107.646 12.5813 107.299 12.5173 106.915 12.464C106.531 12.4 106.147 12.3253 105.763 12.24C105.379 12.144 105.027 12.016 104.707 11.856C104.387 11.6853 104.131 11.456 103.939 11.168C103.747 10.8693 103.651 10.4747 103.651 9.984C103.651 9.472 103.795 9.024 104.083 8.64C104.371 8.256 104.776 7.96267 105.299 7.76C105.832 7.54667 106.462 7.44 107.187 7.44C107.742 7.44 108.302 7.50933 108.867 7.648C109.443 7.776 109.912 7.96267 110.275 8.208L109.619 9.424C109.235 9.168 108.835 8.992 108.419 8.896C108.003 8.8 107.587 8.752 107.171 8.752C106.499 8.752 105.998 8.864 105.667 9.088C105.336 9.30133 105.171 9.57867 105.171 9.92C105.171 10.208 105.267 10.432 105.459 10.592C105.662 10.7413 105.918 10.8587 106.227 10.944C106.547 11.0293 106.899 11.104 107.283 11.168C107.667 11.2213 108.051 11.296 108.435 11.392C108.819 11.4773 109.166 11.6 109.475 11.76C109.795 11.92 110.051 12.144 110.243 12.432C110.446 12.72 110.547 13.104 110.547 13.584C110.547 14.096 110.398 14.5387 110.099 14.912C109.8 15.2853 109.379 15.5787 108.835 15.792C108.291 15.9947 107.64 16.096 106.883 16.096Z" fill="#2F383F"/>
</svg>
