<svg width="1915" height="589" viewBox="0 0 1915 589" fill="none" xmlns="http://www.w3.org/2000/svg">
<g opacity="0.75">
<mask id="path-1-outside-1_2648_3980" maskUnits="userSpaceOnUse" x="0" y="-1.24023" width="1914" height="235" fill="black">
<rect fill="white" y="-1.24023" width="1914" height="235"/>
<path d="M165.618 120.549H117.261C116.918 116.546 116.004 112.914 114.518 109.654C113.089 106.394 111.088 103.592 108.516 101.247C106.001 98.8448 102.943 97.0147 99.3419 95.7564C95.7409 94.441 91.654 93.7833 87.0813 93.7833C79.079 93.7833 72.3057 95.7279 66.7613 99.6169C61.274 103.506 57.1014 109.082 54.2435 116.346C51.4427 123.609 50.0423 132.331 50.0423 142.511C50.0423 153.263 51.4713 162.271 54.3292 169.534C57.2443 176.74 61.4455 182.173 66.9328 185.834C72.42 189.437 79.0219 191.238 86.7383 191.238C91.1396 191.238 95.0835 190.695 98.5702 189.608C102.057 188.465 105.086 186.835 107.658 184.719C110.231 182.602 112.317 180.057 113.917 177.083C115.575 174.052 116.69 170.649 117.261 166.875L165.618 167.218C165.046 174.653 162.96 182.231 159.359 189.952C155.758 197.615 150.642 204.707 144.012 211.227C137.438 217.69 129.293 222.894 119.576 226.84C109.859 230.787 98.5702 232.76 85.7095 232.76C69.5907 232.76 55.1295 229.3 42.3259 222.379C29.5794 215.459 19.4909 205.279 12.0602 191.839C4.68675 178.399 1 161.956 1 142.511C1 122.951 4.77249 106.48 12.3175 93.097C19.8624 79.6569 30.0367 69.5053 42.8403 62.6423C55.6439 55.7221 69.9336 52.262 85.7095 52.262C96.7983 52.262 107.001 53.7776 116.318 56.8087C125.635 59.8399 133.809 64.2723 140.839 70.1059C147.87 75.8822 153.528 83.0026 157.815 91.4671C162.102 99.9315 164.703 109.626 165.618 120.549ZM357.35 142.511C357.35 162.071 353.549 178.57 345.947 192.01C338.345 205.393 328.085 215.545 315.167 222.465C302.249 229.328 287.845 232.76 271.955 232.76C255.95 232.76 241.489 229.3 228.571 222.379C215.71 215.402 205.479 205.222 197.877 191.839C190.332 178.399 186.559 161.956 186.559 142.511C186.559 122.951 190.332 106.48 197.877 93.097C205.479 79.6569 215.71 69.5053 228.571 62.6423C241.489 55.7221 255.95 52.262 271.955 52.262C287.845 52.262 302.249 55.7221 315.167 62.6423C328.085 69.5053 338.345 79.6569 345.947 93.097C353.549 106.48 357.35 122.951 357.35 142.511ZM308.308 142.511C308.308 131.988 306.907 123.123 304.106 115.917C301.363 108.653 297.276 103.163 291.846 99.4453C286.473 95.6707 279.842 93.7833 271.955 93.7833C264.067 93.7833 257.408 95.6707 251.978 99.4453C246.605 103.163 242.518 108.653 239.717 115.917C236.973 123.123 235.601 131.988 235.601 142.511C235.601 153.034 236.973 161.928 239.717 169.191C242.518 176.397 246.605 181.888 251.978 185.662C257.408 189.38 264.067 191.238 271.955 191.238C279.842 191.238 286.473 189.38 291.846 185.662C297.276 181.888 301.363 176.397 304.106 169.191C306.907 161.928 308.308 153.034 308.308 142.511ZM531.334 54.664V230.358H491.552L428.105 138.05H427.077V230.358H379.406V54.664H419.875L482.292 146.629H483.664V54.664H531.334ZM549.082 93.097V54.664H701.696V93.097H648.882V230.358H601.897V93.097H549.082ZM743.087 230.358H691.644L749.603 54.664H814.764L872.723 230.358H821.28L782.869 103.048H781.497L743.087 230.358ZM733.484 161.041H830.197V196.729H733.484V161.041ZM766.407 38.1928L782.869 -0.240234H823.338L797.616 38.1928H766.407ZM1045.31 120.549H996.958C996.615 116.546 995.7 112.914 994.214 109.654C992.785 106.394 990.785 103.592 988.212 101.247C985.697 98.8448 982.639 97.0147 979.038 95.7564C975.437 94.441 971.351 93.7833 966.778 93.7833C958.776 93.7833 952.002 95.7279 946.458 99.6169C940.971 103.506 936.798 109.082 933.94 116.346C931.139 123.609 929.739 132.331 929.739 142.511C929.739 153.263 931.168 162.271 934.026 169.534C936.941 176.74 941.142 182.173 946.629 185.834C952.117 189.437 958.719 191.238 966.435 191.238C970.836 191.238 974.78 190.695 978.267 189.608C981.754 188.465 984.783 186.835 987.355 184.719C989.927 182.602 992.014 180.057 993.614 177.083C995.272 174.052 996.386 170.649 996.958 166.875L1045.31 167.218C1044.74 174.653 1042.66 182.231 1039.06 189.952C1035.45 197.615 1030.34 204.707 1023.71 211.227C1017.13 217.69 1008.99 222.894 999.273 226.84C989.556 230.787 978.267 232.76 965.406 232.76C949.287 232.76 934.826 229.3 922.023 222.379C909.276 215.459 899.188 205.279 891.757 191.839C884.383 178.399 880.697 161.956 880.697 142.511C880.697 122.951 884.469 106.48 892.014 93.097C899.559 79.6569 909.733 69.5053 922.537 62.6423C935.341 55.7221 949.63 52.262 965.406 52.262C976.495 52.262 986.698 53.7776 996.015 56.8087C1005.33 59.8399 1013.51 64.2723 1020.54 70.1059C1027.57 75.8822 1033.23 83.0026 1037.51 91.4671C1041.8 99.9315 1044.4 109.626 1045.31 120.549ZM1062.14 93.097V54.664H1214.75V93.097H1161.94V230.358H1114.96V93.097H1062.14ZM1256.14 230.358H1204.7L1262.66 54.664H1327.82L1385.78 230.358H1334.34L1295.93 103.048H1294.56L1256.14 230.358ZM1246.54 161.041H1343.25V196.729H1246.54V161.041ZM1554.62 54.664V230.358H1514.84L1451.39 138.05H1450.36V230.358H1402.69V54.664H1443.16L1505.58 146.629H1506.95V54.664H1554.62ZM1747.28 142.511C1747.28 162.071 1743.47 178.57 1735.87 192.01C1728.27 205.393 1718.01 215.545 1705.09 222.465C1692.17 229.328 1677.77 232.76 1661.88 232.76C1645.88 232.76 1631.41 229.3 1618.5 222.379C1605.64 215.402 1595.4 205.222 1587.8 191.839C1580.26 178.399 1576.48 161.956 1576.48 142.511C1576.48 122.951 1580.26 106.48 1587.8 93.097C1595.4 79.6569 1605.64 69.5053 1618.5 62.6423C1631.41 55.7221 1645.88 52.262 1661.88 52.262C1677.77 52.262 1692.17 55.7221 1705.09 62.6423C1718.01 69.5053 1728.27 79.6569 1735.87 93.097C1743.47 106.48 1747.28 122.951 1747.28 142.511ZM1698.23 142.511C1698.23 131.988 1696.83 123.123 1694.03 115.917C1691.29 108.653 1687.2 103.163 1681.77 99.4453C1676.4 95.6707 1669.77 93.7833 1661.88 93.7833C1653.99 93.7833 1647.33 95.6707 1641.9 99.4453C1636.53 103.163 1632.44 108.653 1629.64 115.917C1626.9 123.123 1625.53 131.988 1625.53 142.511C1625.53 153.034 1626.9 161.928 1629.64 169.191C1632.44 176.397 1636.53 181.888 1641.9 185.662C1647.33 189.38 1653.99 191.238 1661.88 191.238C1669.77 191.238 1676.4 189.38 1681.77 185.662C1687.2 181.888 1691.29 176.397 1694.03 169.191C1696.83 161.928 1698.23 153.034 1698.23 142.511ZM1863.99 109.568C1863.53 103.849 1861.39 99.3881 1857.56 96.1854C1853.78 92.9826 1848.04 91.3813 1840.32 91.3813C1835.41 91.3813 1831.38 91.9818 1828.23 93.1828C1825.15 94.3267 1822.86 95.8994 1821.37 97.9011C1819.89 99.9029 1819.12 102.191 1819.06 104.764C1818.95 106.88 1819.32 108.796 1820.17 110.512C1821.09 112.171 1822.52 113.686 1824.46 115.059C1826.4 116.374 1828.89 117.575 1831.92 118.662C1834.95 119.748 1838.55 120.721 1842.72 121.579L1857.13 124.667C1866.84 126.726 1875.16 129.443 1882.08 132.817C1888.99 136.191 1894.65 140.166 1899.05 144.741C1903.45 149.26 1906.68 154.35 1908.74 160.012C1910.86 165.674 1911.94 171.85 1912 178.542C1911.94 190.095 1909.06 199.874 1903.34 207.881C1897.62 215.888 1889.45 221.979 1878.82 226.154C1868.24 230.329 1855.53 232.417 1840.67 232.417C1825.4 232.417 1812.09 230.158 1800.71 225.639C1789.39 221.121 1780.59 214.172 1774.3 204.793C1768.07 195.356 1764.93 183.289 1764.87 168.59H1810.14C1810.43 173.966 1811.77 178.485 1814.17 182.145C1816.57 185.805 1819.95 188.579 1824.29 190.466C1828.69 192.354 1833.92 193.297 1839.98 193.297C1845.07 193.297 1849.33 192.668 1852.75 191.41C1856.18 190.152 1858.79 188.407 1860.56 186.177C1862.33 183.946 1863.24 181.401 1863.3 178.542C1863.24 175.854 1862.36 173.509 1860.64 171.507C1858.99 169.448 1856.24 167.618 1852.41 166.017C1848.58 164.358 1843.41 162.814 1836.89 161.384L1819.4 157.61C1803.86 154.235 1791.59 148.602 1782.62 140.709C1773.7 132.76 1769.27 121.922 1769.33 108.196C1769.27 97.0433 1772.25 87.292 1778.25 78.942C1784.31 70.5348 1792.68 63.9863 1803.37 59.2966C1814.12 54.6068 1826.43 52.262 1840.32 52.262C1854.5 52.262 1866.76 54.6354 1877.1 59.3824C1887.45 64.1293 1895.42 70.8208 1901.03 79.4568C1906.68 88.0355 1909.54 98.0727 1909.6 109.568H1863.99Z"/>
</mask>
<path d="M165.618 120.549H117.261C116.918 116.546 116.004 112.914 114.518 109.654C113.089 106.394 111.088 103.592 108.516 101.247C106.001 98.8448 102.943 97.0147 99.3419 95.7564C95.7409 94.441 91.654 93.7833 87.0813 93.7833C79.079 93.7833 72.3057 95.7279 66.7613 99.6169C61.274 103.506 57.1014 109.082 54.2435 116.346C51.4427 123.609 50.0423 132.331 50.0423 142.511C50.0423 153.263 51.4713 162.271 54.3292 169.534C57.2443 176.74 61.4455 182.173 66.9328 185.834C72.42 189.437 79.0219 191.238 86.7383 191.238C91.1396 191.238 95.0835 190.695 98.5702 189.608C102.057 188.465 105.086 186.835 107.658 184.719C110.231 182.602 112.317 180.057 113.917 177.083C115.575 174.052 116.69 170.649 117.261 166.875L165.618 167.218C165.046 174.653 162.96 182.231 159.359 189.952C155.758 197.615 150.642 204.707 144.012 211.227C137.438 217.69 129.293 222.894 119.576 226.84C109.859 230.787 98.5702 232.76 85.7095 232.76C69.5907 232.76 55.1295 229.3 42.3259 222.379C29.5794 215.459 19.4909 205.279 12.0602 191.839C4.68675 178.399 1 161.956 1 142.511C1 122.951 4.77249 106.48 12.3175 93.097C19.8624 79.6569 30.0367 69.5053 42.8403 62.6423C55.6439 55.7221 69.9336 52.262 85.7095 52.262C96.7983 52.262 107.001 53.7776 116.318 56.8087C125.635 59.8399 133.809 64.2723 140.839 70.1059C147.87 75.8822 153.528 83.0026 157.815 91.4671C162.102 99.9315 164.703 109.626 165.618 120.549ZM357.35 142.511C357.35 162.071 353.549 178.57 345.947 192.01C338.345 205.393 328.085 215.545 315.167 222.465C302.249 229.328 287.845 232.76 271.955 232.76C255.95 232.76 241.489 229.3 228.571 222.379C215.71 215.402 205.479 205.222 197.877 191.839C190.332 178.399 186.559 161.956 186.559 142.511C186.559 122.951 190.332 106.48 197.877 93.097C205.479 79.6569 215.71 69.5053 228.571 62.6423C241.489 55.7221 255.95 52.262 271.955 52.262C287.845 52.262 302.249 55.7221 315.167 62.6423C328.085 69.5053 338.345 79.6569 345.947 93.097C353.549 106.48 357.35 122.951 357.35 142.511ZM308.308 142.511C308.308 131.988 306.907 123.123 304.106 115.917C301.363 108.653 297.276 103.163 291.846 99.4453C286.473 95.6707 279.842 93.7833 271.955 93.7833C264.067 93.7833 257.408 95.6707 251.978 99.4453C246.605 103.163 242.518 108.653 239.717 115.917C236.973 123.123 235.601 131.988 235.601 142.511C235.601 153.034 236.973 161.928 239.717 169.191C242.518 176.397 246.605 181.888 251.978 185.662C257.408 189.38 264.067 191.238 271.955 191.238C279.842 191.238 286.473 189.38 291.846 185.662C297.276 181.888 301.363 176.397 304.106 169.191C306.907 161.928 308.308 153.034 308.308 142.511ZM531.334 54.664V230.358H491.552L428.105 138.05H427.077V230.358H379.406V54.664H419.875L482.292 146.629H483.664V54.664H531.334ZM549.082 93.097V54.664H701.696V93.097H648.882V230.358H601.897V93.097H549.082ZM743.087 230.358H691.644L749.603 54.664H814.764L872.723 230.358H821.28L782.869 103.048H781.497L743.087 230.358ZM733.484 161.041H830.197V196.729H733.484V161.041ZM766.407 38.1928L782.869 -0.240234H823.338L797.616 38.1928H766.407ZM1045.31 120.549H996.958C996.615 116.546 995.7 112.914 994.214 109.654C992.785 106.394 990.785 103.592 988.212 101.247C985.697 98.8448 982.639 97.0147 979.038 95.7564C975.437 94.441 971.351 93.7833 966.778 93.7833C958.776 93.7833 952.002 95.7279 946.458 99.6169C940.971 103.506 936.798 109.082 933.94 116.346C931.139 123.609 929.739 132.331 929.739 142.511C929.739 153.263 931.168 162.271 934.026 169.534C936.941 176.74 941.142 182.173 946.629 185.834C952.117 189.437 958.719 191.238 966.435 191.238C970.836 191.238 974.78 190.695 978.267 189.608C981.754 188.465 984.783 186.835 987.355 184.719C989.927 182.602 992.014 180.057 993.614 177.083C995.272 174.052 996.386 170.649 996.958 166.875L1045.31 167.218C1044.74 174.653 1042.66 182.231 1039.06 189.952C1035.45 197.615 1030.34 204.707 1023.71 211.227C1017.13 217.69 1008.99 222.894 999.273 226.84C989.556 230.787 978.267 232.76 965.406 232.76C949.287 232.76 934.826 229.3 922.023 222.379C909.276 215.459 899.188 205.279 891.757 191.839C884.383 178.399 880.697 161.956 880.697 142.511C880.697 122.951 884.469 106.48 892.014 93.097C899.559 79.6569 909.733 69.5053 922.537 62.6423C935.341 55.7221 949.63 52.262 965.406 52.262C976.495 52.262 986.698 53.7776 996.015 56.8087C1005.33 59.8399 1013.51 64.2723 1020.54 70.1059C1027.57 75.8822 1033.23 83.0026 1037.51 91.4671C1041.8 99.9315 1044.4 109.626 1045.31 120.549ZM1062.14 93.097V54.664H1214.75V93.097H1161.94V230.358H1114.96V93.097H1062.14ZM1256.14 230.358H1204.7L1262.66 54.664H1327.82L1385.78 230.358H1334.34L1295.93 103.048H1294.56L1256.14 230.358ZM1246.54 161.041H1343.25V196.729H1246.54V161.041ZM1554.62 54.664V230.358H1514.84L1451.39 138.05H1450.36V230.358H1402.69V54.664H1443.16L1505.58 146.629H1506.95V54.664H1554.62ZM1747.28 142.511C1747.28 162.071 1743.47 178.57 1735.87 192.01C1728.27 205.393 1718.01 215.545 1705.09 222.465C1692.17 229.328 1677.77 232.76 1661.88 232.76C1645.88 232.76 1631.41 229.3 1618.5 222.379C1605.64 215.402 1595.4 205.222 1587.8 191.839C1580.26 178.399 1576.48 161.956 1576.48 142.511C1576.48 122.951 1580.26 106.48 1587.8 93.097C1595.4 79.6569 1605.64 69.5053 1618.5 62.6423C1631.41 55.7221 1645.88 52.262 1661.88 52.262C1677.77 52.262 1692.17 55.7221 1705.09 62.6423C1718.01 69.5053 1728.27 79.6569 1735.87 93.097C1743.47 106.48 1747.28 122.951 1747.28 142.511ZM1698.23 142.511C1698.23 131.988 1696.83 123.123 1694.03 115.917C1691.29 108.653 1687.2 103.163 1681.77 99.4453C1676.4 95.6707 1669.77 93.7833 1661.88 93.7833C1653.99 93.7833 1647.33 95.6707 1641.9 99.4453C1636.53 103.163 1632.44 108.653 1629.64 115.917C1626.9 123.123 1625.53 131.988 1625.53 142.511C1625.53 153.034 1626.9 161.928 1629.64 169.191C1632.44 176.397 1636.53 181.888 1641.9 185.662C1647.33 189.38 1653.99 191.238 1661.88 191.238C1669.77 191.238 1676.4 189.38 1681.77 185.662C1687.2 181.888 1691.29 176.397 1694.03 169.191C1696.83 161.928 1698.23 153.034 1698.23 142.511ZM1863.99 109.568C1863.53 103.849 1861.39 99.3881 1857.56 96.1854C1853.78 92.9826 1848.04 91.3813 1840.32 91.3813C1835.41 91.3813 1831.38 91.9818 1828.23 93.1828C1825.15 94.3267 1822.86 95.8994 1821.37 97.9011C1819.89 99.9029 1819.12 102.191 1819.06 104.764C1818.95 106.88 1819.32 108.796 1820.17 110.512C1821.09 112.171 1822.52 113.686 1824.46 115.059C1826.4 116.374 1828.89 117.575 1831.92 118.662C1834.95 119.748 1838.55 120.721 1842.72 121.579L1857.13 124.667C1866.84 126.726 1875.16 129.443 1882.08 132.817C1888.99 136.191 1894.65 140.166 1899.05 144.741C1903.45 149.26 1906.68 154.35 1908.74 160.012C1910.86 165.674 1911.94 171.85 1912 178.542C1911.94 190.095 1909.06 199.874 1903.34 207.881C1897.62 215.888 1889.45 221.979 1878.82 226.154C1868.24 230.329 1855.53 232.417 1840.67 232.417C1825.4 232.417 1812.09 230.158 1800.71 225.639C1789.39 221.121 1780.59 214.172 1774.3 204.793C1768.07 195.356 1764.93 183.289 1764.87 168.59H1810.14C1810.43 173.966 1811.77 178.485 1814.17 182.145C1816.57 185.805 1819.95 188.579 1824.29 190.466C1828.69 192.354 1833.92 193.297 1839.98 193.297C1845.07 193.297 1849.33 192.668 1852.75 191.41C1856.18 190.152 1858.79 188.407 1860.56 186.177C1862.33 183.946 1863.24 181.401 1863.3 178.542C1863.24 175.854 1862.36 173.509 1860.64 171.507C1858.99 169.448 1856.24 167.618 1852.41 166.017C1848.58 164.358 1843.41 162.814 1836.89 161.384L1819.4 157.61C1803.86 154.235 1791.59 148.602 1782.62 140.709C1773.7 132.76 1769.27 121.922 1769.33 108.196C1769.27 97.0433 1772.25 87.292 1778.25 78.942C1784.31 70.5348 1792.68 63.9863 1803.37 59.2966C1814.12 54.6068 1826.43 52.262 1840.32 52.262C1854.5 52.262 1866.76 54.6354 1877.1 59.3824C1887.45 64.1293 1895.42 70.8208 1901.03 79.4568C1906.68 88.0355 1909.54 98.0727 1909.6 109.568H1863.99Z" stroke="#FFFFF0" stroke-opacity="0.1" stroke-width="2" mask="url(#path-1-outside-1_2648_3980)"/>
<mask id="path-2-outside-2_2648_3980" maskUnits="userSpaceOnUse" x="0" y="231.76" width="1914" height="235" fill="black">
<rect fill="white" y="231.76" width="1914" height="235"/>
<path d="M165.618 353.549H117.261C116.918 349.546 116.004 345.914 114.518 342.654C113.089 339.394 111.088 336.592 108.516 334.247C106.001 331.845 102.943 330.015 99.3419 328.756C95.7408 327.441 91.654 326.783 87.0813 326.783C79.079 326.783 72.3057 328.728 66.7613 332.617C61.274 336.506 57.1014 342.082 54.2435 349.346C51.4427 356.609 50.0423 365.331 50.0423 375.511C50.0423 386.263 51.4713 395.271 54.3292 402.534C57.2443 409.74 61.4455 415.173 66.9328 418.834C72.42 422.437 79.0219 424.238 86.7383 424.238C91.1396 424.238 95.0835 423.695 98.5702 422.608C102.057 421.465 105.086 419.835 107.658 417.719C110.231 415.602 112.317 413.057 113.917 410.083C115.575 407.052 116.69 403.649 117.261 399.875L165.618 400.218C165.046 407.653 162.96 415.231 159.359 422.952C155.758 430.615 150.642 437.707 144.012 444.227C137.438 450.69 129.293 455.894 119.576 459.84C109.859 463.787 98.5702 465.76 85.7095 465.76C69.5907 465.76 55.1295 462.3 42.3259 455.379C29.5794 448.459 19.4909 438.279 12.0602 424.839C4.68675 411.399 1 394.956 1 375.511C1 355.951 4.77249 339.48 12.3175 326.097C19.8624 312.657 30.0367 302.505 42.8403 295.642C55.6439 288.722 69.9336 285.262 85.7095 285.262C96.7983 285.262 107.001 286.778 116.318 289.809C125.635 292.84 133.809 297.272 140.839 303.106C147.87 308.882 153.528 316.003 157.815 324.467C162.102 332.931 164.703 342.626 165.618 353.549ZM357.35 375.511C357.35 395.071 353.549 411.57 345.947 425.01C338.345 438.393 328.085 448.545 315.167 455.465C302.249 462.328 287.845 465.76 271.955 465.76C255.95 465.76 241.489 462.3 228.571 455.379C215.71 448.402 205.479 438.222 197.877 424.839C190.332 411.399 186.559 394.956 186.559 375.511C186.559 355.951 190.332 339.48 197.877 326.097C205.479 312.657 215.71 302.505 228.571 295.642C241.489 288.722 255.95 285.262 271.955 285.262C287.845 285.262 302.249 288.722 315.167 295.642C328.085 302.505 338.345 312.657 345.947 326.097C353.549 339.48 357.35 355.951 357.35 375.511ZM308.308 375.511C308.308 364.988 306.907 356.123 304.106 348.917C301.363 341.653 297.276 336.163 291.846 332.445C286.473 328.671 279.842 326.783 271.955 326.783C264.067 326.783 257.408 328.671 251.978 332.445C246.605 336.163 242.518 341.653 239.717 348.917C236.973 356.123 235.601 364.988 235.601 375.511C235.601 386.034 236.973 394.928 239.717 402.191C242.518 409.397 246.605 414.888 251.978 418.662C257.408 422.38 264.067 424.238 271.955 424.238C279.842 424.238 286.473 422.38 291.846 418.662C297.276 414.888 301.363 409.397 304.106 402.191C306.907 394.928 308.308 386.034 308.308 375.511ZM531.334 287.664V463.358H491.552L428.105 371.05H427.077V463.358H379.406V287.664H419.875L482.292 379.629H483.664V287.664H531.334ZM549.082 326.097V287.664H701.696V326.097H648.882V463.358H601.897V326.097H549.082ZM743.087 463.358H691.644L749.603 287.664H814.764L872.723 463.358H821.28L782.869 336.048H781.497L743.087 463.358ZM733.484 394.041H830.197V429.729H733.484V394.041ZM766.407 271.193L782.869 232.76H823.338L797.616 271.193H766.407ZM1045.31 353.549H996.958C996.615 349.546 995.7 345.914 994.214 342.654C992.785 339.394 990.785 336.592 988.212 334.247C985.698 331.845 982.639 330.015 979.038 328.756C975.437 327.441 971.351 326.783 966.778 326.783C958.776 326.783 952.002 328.728 946.458 332.617C940.971 336.506 936.798 342.082 933.94 349.346C931.139 356.609 929.739 365.331 929.739 375.511C929.739 386.263 931.168 395.271 934.026 402.534C936.941 409.74 941.142 415.173 946.629 418.834C952.117 422.437 958.719 424.238 966.435 424.238C970.836 424.238 974.78 423.695 978.267 422.608C981.754 421.465 984.783 419.835 987.355 417.719C989.927 415.602 992.014 413.057 993.614 410.083C995.272 407.052 996.386 403.649 996.958 399.875L1045.31 400.218C1044.74 407.653 1042.66 415.231 1039.06 422.952C1035.45 430.615 1030.34 437.707 1023.71 444.227C1017.13 450.69 1008.99 455.894 999.273 459.84C989.556 463.787 978.267 465.76 965.406 465.76C949.287 465.76 934.826 462.3 922.023 455.379C909.276 448.459 899.188 438.279 891.757 424.839C884.383 411.399 880.697 394.956 880.697 375.511C880.697 355.951 884.469 339.48 892.014 326.097C899.559 312.657 909.733 302.505 922.537 295.642C935.341 288.722 949.63 285.262 965.406 285.262C976.495 285.262 986.698 286.778 996.015 289.809C1005.33 292.84 1013.51 297.272 1020.54 303.106C1027.57 308.882 1033.23 316.003 1037.51 324.467C1041.8 332.931 1044.4 342.626 1045.31 353.549ZM1062.14 326.097V287.664H1214.75V326.097H1161.94V463.358H1114.96V326.097H1062.14ZM1256.14 463.358H1204.7L1262.66 287.664H1327.82L1385.78 463.358H1334.34L1295.93 336.048H1294.56L1256.14 463.358ZM1246.54 394.041H1343.25V429.729H1246.54V394.041ZM1554.62 287.664V463.358H1514.84L1451.39 371.05H1450.36V463.358H1402.69V287.664H1443.16L1505.58 379.629H1506.95V287.664H1554.62ZM1747.28 375.511C1747.28 395.071 1743.47 411.57 1735.87 425.01C1728.27 438.393 1718.01 448.545 1705.09 455.465C1692.17 462.328 1677.77 465.76 1661.88 465.76C1645.88 465.76 1631.41 462.3 1618.5 455.379C1605.64 448.402 1595.4 438.222 1587.8 424.839C1580.26 411.399 1576.48 394.956 1576.48 375.511C1576.48 355.951 1580.26 339.48 1587.8 326.097C1595.4 312.657 1605.64 302.505 1618.5 295.642C1631.41 288.722 1645.88 285.262 1661.88 285.262C1677.77 285.262 1692.17 288.722 1705.09 295.642C1718.01 302.505 1728.27 312.657 1735.87 326.097C1743.47 339.48 1747.28 355.951 1747.28 375.511ZM1698.23 375.511C1698.23 364.988 1696.83 356.123 1694.03 348.917C1691.29 341.653 1687.2 336.163 1681.77 332.445C1676.4 328.671 1669.77 326.783 1661.88 326.783C1653.99 326.783 1647.33 328.671 1641.9 332.445C1636.53 336.163 1632.44 341.653 1629.64 348.917C1626.9 356.123 1625.53 364.988 1625.53 375.511C1625.53 386.034 1626.9 394.928 1629.64 402.191C1632.44 409.397 1636.53 414.888 1641.9 418.662C1647.33 422.38 1653.99 424.238 1661.88 424.238C1669.77 424.238 1676.4 422.38 1681.77 418.662C1687.2 414.888 1691.29 409.397 1694.03 402.191C1696.83 394.928 1698.23 386.034 1698.23 375.511ZM1863.99 342.568C1863.53 336.849 1861.39 332.388 1857.56 329.185C1853.78 325.983 1848.04 324.381 1840.32 324.381C1835.41 324.381 1831.38 324.982 1828.23 326.183C1825.15 327.327 1822.86 328.899 1821.37 330.901C1819.89 332.903 1819.12 335.191 1819.06 337.764C1818.95 339.88 1819.32 341.796 1820.17 343.512C1821.09 345.171 1822.52 346.686 1824.46 348.059C1826.4 349.374 1828.89 350.575 1831.92 351.662C1834.95 352.748 1838.55 353.721 1842.72 354.579L1857.13 357.667C1866.84 359.726 1875.16 362.443 1882.08 365.817C1888.99 369.191 1894.65 373.166 1899.05 377.741C1903.45 382.26 1906.68 387.35 1908.74 393.012C1910.86 398.674 1911.94 404.85 1912 411.542C1911.94 423.095 1909.06 432.874 1903.34 440.881C1897.62 448.888 1889.45 454.979 1878.82 459.154C1868.24 463.329 1855.53 465.417 1840.67 465.417C1825.4 465.417 1812.09 463.158 1800.71 458.639C1789.39 454.121 1780.59 447.172 1774.3 437.793C1768.07 428.356 1764.93 416.289 1764.87 401.59H1810.14C1810.43 406.966 1811.77 411.485 1814.17 415.145C1816.57 418.805 1819.95 421.579 1824.29 423.466C1828.69 425.354 1833.92 426.297 1839.98 426.297C1845.07 426.297 1849.33 425.668 1852.75 424.41C1856.18 423.152 1858.79 421.407 1860.56 419.177C1862.33 416.946 1863.24 414.401 1863.3 411.542C1863.24 408.854 1862.36 406.509 1860.64 404.507C1858.99 402.448 1856.24 400.618 1852.41 399.017C1848.58 397.358 1843.41 395.814 1836.89 394.384L1819.4 390.61C1803.86 387.235 1791.59 381.602 1782.62 373.709C1773.7 365.76 1769.27 354.922 1769.33 341.196C1769.27 330.043 1772.25 320.292 1778.25 311.942C1784.31 303.535 1792.68 296.986 1803.37 292.297C1814.12 287.607 1826.43 285.262 1840.32 285.262C1854.5 285.262 1866.76 287.635 1877.1 292.382C1887.45 297.129 1895.42 303.821 1901.03 312.457C1906.68 321.036 1909.54 331.073 1909.6 342.568H1863.99Z"/>
</mask>
<path d="M165.618 353.549H117.261C116.918 349.546 116.004 345.914 114.518 342.654C113.089 339.394 111.088 336.592 108.516 334.247C106.001 331.845 102.943 330.015 99.3419 328.756C95.7408 327.441 91.654 326.783 87.0813 326.783C79.079 326.783 72.3057 328.728 66.7613 332.617C61.274 336.506 57.1014 342.082 54.2435 349.346C51.4427 356.609 50.0423 365.331 50.0423 375.511C50.0423 386.263 51.4713 395.271 54.3292 402.534C57.2443 409.74 61.4455 415.173 66.9328 418.834C72.42 422.437 79.0219 424.238 86.7383 424.238C91.1396 424.238 95.0835 423.695 98.5702 422.608C102.057 421.465 105.086 419.835 107.658 417.719C110.231 415.602 112.317 413.057 113.917 410.083C115.575 407.052 116.69 403.649 117.261 399.875L165.618 400.218C165.046 407.653 162.96 415.231 159.359 422.952C155.758 430.615 150.642 437.707 144.012 444.227C137.438 450.69 129.293 455.894 119.576 459.84C109.859 463.787 98.5702 465.76 85.7095 465.76C69.5907 465.76 55.1295 462.3 42.3259 455.379C29.5794 448.459 19.4909 438.279 12.0602 424.839C4.68675 411.399 1 394.956 1 375.511C1 355.951 4.77249 339.48 12.3175 326.097C19.8624 312.657 30.0367 302.505 42.8403 295.642C55.6439 288.722 69.9336 285.262 85.7095 285.262C96.7983 285.262 107.001 286.778 116.318 289.809C125.635 292.84 133.809 297.272 140.839 303.106C147.87 308.882 153.528 316.003 157.815 324.467C162.102 332.931 164.703 342.626 165.618 353.549ZM357.35 375.511C357.35 395.071 353.549 411.57 345.947 425.01C338.345 438.393 328.085 448.545 315.167 455.465C302.249 462.328 287.845 465.76 271.955 465.76C255.95 465.76 241.489 462.3 228.571 455.379C215.71 448.402 205.479 438.222 197.877 424.839C190.332 411.399 186.559 394.956 186.559 375.511C186.559 355.951 190.332 339.48 197.877 326.097C205.479 312.657 215.71 302.505 228.571 295.642C241.489 288.722 255.95 285.262 271.955 285.262C287.845 285.262 302.249 288.722 315.167 295.642C328.085 302.505 338.345 312.657 345.947 326.097C353.549 339.48 357.35 355.951 357.35 375.511ZM308.308 375.511C308.308 364.988 306.907 356.123 304.106 348.917C301.363 341.653 297.276 336.163 291.846 332.445C286.473 328.671 279.842 326.783 271.955 326.783C264.067 326.783 257.408 328.671 251.978 332.445C246.605 336.163 242.518 341.653 239.717 348.917C236.973 356.123 235.601 364.988 235.601 375.511C235.601 386.034 236.973 394.928 239.717 402.191C242.518 409.397 246.605 414.888 251.978 418.662C257.408 422.38 264.067 424.238 271.955 424.238C279.842 424.238 286.473 422.38 291.846 418.662C297.276 414.888 301.363 409.397 304.106 402.191C306.907 394.928 308.308 386.034 308.308 375.511ZM531.334 287.664V463.358H491.552L428.105 371.05H427.077V463.358H379.406V287.664H419.875L482.292 379.629H483.664V287.664H531.334ZM549.082 326.097V287.664H701.696V326.097H648.882V463.358H601.897V326.097H549.082ZM743.087 463.358H691.644L749.603 287.664H814.764L872.723 463.358H821.28L782.869 336.048H781.497L743.087 463.358ZM733.484 394.041H830.197V429.729H733.484V394.041ZM766.407 271.193L782.869 232.76H823.338L797.616 271.193H766.407ZM1045.31 353.549H996.958C996.615 349.546 995.7 345.914 994.214 342.654C992.785 339.394 990.785 336.592 988.212 334.247C985.698 331.845 982.639 330.015 979.038 328.756C975.437 327.441 971.351 326.783 966.778 326.783C958.776 326.783 952.002 328.728 946.458 332.617C940.971 336.506 936.798 342.082 933.94 349.346C931.139 356.609 929.739 365.331 929.739 375.511C929.739 386.263 931.168 395.271 934.026 402.534C936.941 409.74 941.142 415.173 946.629 418.834C952.117 422.437 958.719 424.238 966.435 424.238C970.836 424.238 974.78 423.695 978.267 422.608C981.754 421.465 984.783 419.835 987.355 417.719C989.927 415.602 992.014 413.057 993.614 410.083C995.272 407.052 996.386 403.649 996.958 399.875L1045.31 400.218C1044.74 407.653 1042.66 415.231 1039.06 422.952C1035.45 430.615 1030.34 437.707 1023.71 444.227C1017.13 450.69 1008.99 455.894 999.273 459.84C989.556 463.787 978.267 465.76 965.406 465.76C949.287 465.76 934.826 462.3 922.023 455.379C909.276 448.459 899.188 438.279 891.757 424.839C884.383 411.399 880.697 394.956 880.697 375.511C880.697 355.951 884.469 339.48 892.014 326.097C899.559 312.657 909.733 302.505 922.537 295.642C935.341 288.722 949.63 285.262 965.406 285.262C976.495 285.262 986.698 286.778 996.015 289.809C1005.33 292.84 1013.51 297.272 1020.54 303.106C1027.57 308.882 1033.23 316.003 1037.51 324.467C1041.8 332.931 1044.4 342.626 1045.31 353.549ZM1062.14 326.097V287.664H1214.75V326.097H1161.94V463.358H1114.96V326.097H1062.14ZM1256.14 463.358H1204.7L1262.66 287.664H1327.82L1385.78 463.358H1334.34L1295.93 336.048H1294.56L1256.14 463.358ZM1246.54 394.041H1343.25V429.729H1246.54V394.041ZM1554.62 287.664V463.358H1514.84L1451.39 371.05H1450.36V463.358H1402.69V287.664H1443.16L1505.58 379.629H1506.95V287.664H1554.62ZM1747.28 375.511C1747.28 395.071 1743.47 411.57 1735.87 425.01C1728.27 438.393 1718.01 448.545 1705.09 455.465C1692.17 462.328 1677.77 465.76 1661.88 465.76C1645.88 465.76 1631.41 462.3 1618.5 455.379C1605.64 448.402 1595.4 438.222 1587.8 424.839C1580.26 411.399 1576.48 394.956 1576.48 375.511C1576.48 355.951 1580.26 339.48 1587.8 326.097C1595.4 312.657 1605.64 302.505 1618.5 295.642C1631.41 288.722 1645.88 285.262 1661.88 285.262C1677.77 285.262 1692.17 288.722 1705.09 295.642C1718.01 302.505 1728.27 312.657 1735.87 326.097C1743.47 339.48 1747.28 355.951 1747.28 375.511ZM1698.23 375.511C1698.23 364.988 1696.83 356.123 1694.03 348.917C1691.29 341.653 1687.2 336.163 1681.77 332.445C1676.4 328.671 1669.77 326.783 1661.88 326.783C1653.99 326.783 1647.33 328.671 1641.9 332.445C1636.53 336.163 1632.44 341.653 1629.64 348.917C1626.9 356.123 1625.53 364.988 1625.53 375.511C1625.53 386.034 1626.9 394.928 1629.64 402.191C1632.44 409.397 1636.53 414.888 1641.9 418.662C1647.33 422.38 1653.99 424.238 1661.88 424.238C1669.77 424.238 1676.4 422.38 1681.77 418.662C1687.2 414.888 1691.29 409.397 1694.03 402.191C1696.83 394.928 1698.23 386.034 1698.23 375.511ZM1863.99 342.568C1863.53 336.849 1861.39 332.388 1857.56 329.185C1853.78 325.983 1848.04 324.381 1840.32 324.381C1835.41 324.381 1831.38 324.982 1828.23 326.183C1825.15 327.327 1822.86 328.899 1821.37 330.901C1819.89 332.903 1819.12 335.191 1819.06 337.764C1818.95 339.88 1819.32 341.796 1820.17 343.512C1821.09 345.171 1822.52 346.686 1824.46 348.059C1826.4 349.374 1828.89 350.575 1831.92 351.662C1834.95 352.748 1838.55 353.721 1842.72 354.579L1857.13 357.667C1866.84 359.726 1875.16 362.443 1882.08 365.817C1888.99 369.191 1894.65 373.166 1899.05 377.741C1903.45 382.26 1906.68 387.35 1908.74 393.012C1910.86 398.674 1911.94 404.85 1912 411.542C1911.94 423.095 1909.06 432.874 1903.34 440.881C1897.62 448.888 1889.45 454.979 1878.82 459.154C1868.24 463.329 1855.53 465.417 1840.67 465.417C1825.4 465.417 1812.09 463.158 1800.71 458.639C1789.39 454.121 1780.59 447.172 1774.3 437.793C1768.07 428.356 1764.93 416.289 1764.87 401.59H1810.14C1810.43 406.966 1811.77 411.485 1814.17 415.145C1816.57 418.805 1819.95 421.579 1824.29 423.466C1828.69 425.354 1833.92 426.297 1839.98 426.297C1845.07 426.297 1849.33 425.668 1852.75 424.41C1856.18 423.152 1858.79 421.407 1860.56 419.177C1862.33 416.946 1863.24 414.401 1863.3 411.542C1863.24 408.854 1862.36 406.509 1860.64 404.507C1858.99 402.448 1856.24 400.618 1852.41 399.017C1848.58 397.358 1843.41 395.814 1836.89 394.384L1819.4 390.61C1803.86 387.235 1791.59 381.602 1782.62 373.709C1773.7 365.76 1769.27 354.922 1769.33 341.196C1769.27 330.043 1772.25 320.292 1778.25 311.942C1784.31 303.535 1792.68 296.986 1803.37 292.297C1814.12 287.607 1826.43 285.262 1840.32 285.262C1854.5 285.262 1866.76 287.635 1877.1 292.382C1887.45 297.129 1895.42 303.821 1901.03 312.457C1906.68 321.036 1909.54 331.073 1909.6 342.568H1863.99Z" stroke="#FFFFF0" stroke-opacity="0.07" stroke-width="2" mask="url(#path-2-outside-2_2648_3980)"/>
<mask id="path-3-outside-3_2648_3980" maskUnits="userSpaceOnUse" x="0" y="464.76" width="1914" height="235" fill="black">
<rect fill="white" y="464.76" width="1914" height="235"/>
<path d="M165.618 586.549H117.261C116.918 582.546 116.004 578.914 114.518 575.654C113.089 572.394 111.088 569.592 108.516 567.247C106.001 564.845 102.943 563.015 99.3419 561.756C95.7408 560.441 91.654 559.783 87.0813 559.783C79.079 559.783 72.3057 561.728 66.7613 565.617C61.274 569.506 57.1014 575.082 54.2435 582.346C51.4427 589.609 50.0423 598.331 50.0423 608.511C50.0423 619.263 51.4713 628.271 54.3292 635.534C57.2443 642.74 61.4455 648.173 66.9328 651.834C72.42 655.437 79.0219 657.238 86.7383 657.238C91.1396 657.238 95.0835 656.695 98.5702 655.608C102.057 654.465 105.086 652.835 107.658 650.719C110.231 648.602 112.317 646.057 113.917 643.083C115.575 640.052 116.69 636.649 117.261 632.875L165.618 633.218C165.046 640.653 162.96 648.231 159.359 655.952C155.758 663.615 150.642 670.707 144.012 677.227C137.438 683.69 129.293 688.894 119.576 692.84C109.859 696.787 98.5702 698.76 85.7095 698.76C69.5907 698.76 55.1295 695.3 42.3259 688.379C29.5794 681.459 19.4909 671.279 12.0602 657.839C4.68675 644.399 1 627.956 1 608.511C1 588.951 4.77249 572.48 12.3175 559.097C19.8624 545.657 30.0367 535.505 42.8403 528.642C55.6439 521.722 69.9336 518.262 85.7095 518.262C96.7983 518.262 107.001 519.778 116.318 522.809C125.635 525.84 133.809 530.272 140.839 536.106C147.87 541.882 153.528 549.003 157.815 557.467C162.102 565.931 164.703 575.626 165.618 586.549ZM357.35 608.511C357.35 628.071 353.549 644.57 345.947 658.01C338.345 671.393 328.085 681.545 315.167 688.465C302.249 695.328 287.845 698.76 271.955 698.76C255.95 698.76 241.489 695.3 228.571 688.379C215.71 681.402 205.479 671.222 197.877 657.839C190.332 644.399 186.559 627.956 186.559 608.511C186.559 588.951 190.332 572.48 197.877 559.097C205.479 545.657 215.71 535.505 228.571 528.642C241.489 521.722 255.95 518.262 271.955 518.262C287.845 518.262 302.249 521.722 315.167 528.642C328.085 535.505 338.345 545.657 345.947 559.097C353.549 572.48 357.35 588.951 357.35 608.511ZM308.308 608.511C308.308 597.988 306.907 589.123 304.106 581.917C301.363 574.653 297.276 569.163 291.846 565.445C286.473 561.671 279.842 559.783 271.955 559.783C264.067 559.783 257.408 561.671 251.978 565.445C246.605 569.163 242.518 574.653 239.717 581.917C236.973 589.123 235.601 597.988 235.601 608.511C235.601 619.034 236.973 627.928 239.717 635.191C242.518 642.397 246.605 647.888 251.978 651.662C257.408 655.38 264.067 657.238 271.955 657.238C279.842 657.238 286.473 655.38 291.846 651.662C297.276 647.888 301.363 642.397 304.106 635.191C306.907 627.928 308.308 619.034 308.308 608.511ZM531.334 520.664V696.358H491.552L428.105 604.05H427.077V696.358H379.406V520.664H419.875L482.292 612.629H483.664V520.664H531.334ZM549.082 559.097V520.664H701.696V559.097H648.882V696.358H601.897V559.097H549.082ZM743.087 696.358H691.644L749.603 520.664H814.764L872.723 696.358H821.28L782.869 569.048H781.497L743.087 696.358ZM733.484 627.041H830.197V662.729H733.484V627.041ZM766.407 504.193L782.869 465.76H823.338L797.616 504.193H766.407ZM1045.31 586.549H996.958C996.615 582.546 995.7 578.914 994.214 575.654C992.785 572.394 990.785 569.592 988.212 567.247C985.698 564.845 982.639 563.015 979.038 561.756C975.437 560.441 971.351 559.783 966.778 559.783C958.776 559.783 952.002 561.728 946.458 565.617C940.971 569.506 936.798 575.082 933.94 582.346C931.139 589.609 929.739 598.331 929.739 608.511C929.739 619.263 931.168 628.271 934.026 635.534C936.941 642.74 941.142 648.173 946.629 651.834C952.117 655.437 958.719 657.238 966.435 657.238C970.836 657.238 974.78 656.695 978.267 655.608C981.754 654.465 984.783 652.835 987.355 650.719C989.927 648.602 992.014 646.057 993.614 643.083C995.272 640.052 996.386 636.649 996.958 632.875L1045.31 633.218C1044.74 640.653 1042.66 648.231 1039.06 655.952C1035.45 663.615 1030.34 670.707 1023.71 677.227C1017.13 683.69 1008.99 688.894 999.273 692.84C989.556 696.787 978.267 698.76 965.406 698.76C949.287 698.76 934.826 695.3 922.023 688.379C909.276 681.459 899.188 671.279 891.757 657.839C884.383 644.399 880.697 627.956 880.697 608.511C880.697 588.951 884.469 572.48 892.014 559.097C899.559 545.657 909.733 535.505 922.537 528.642C935.341 521.722 949.63 518.262 965.406 518.262C976.495 518.262 986.698 519.778 996.015 522.809C1005.33 525.84 1013.51 530.272 1020.54 536.106C1027.57 541.882 1033.23 549.003 1037.51 557.467C1041.8 565.931 1044.4 575.626 1045.31 586.549ZM1062.14 559.097V520.664H1214.75V559.097H1161.94V696.358H1114.96V559.097H1062.14ZM1256.14 696.358H1204.7L1262.66 520.664H1327.82L1385.78 696.358H1334.34L1295.93 569.048H1294.56L1256.14 696.358ZM1246.54 627.041H1343.25V662.729H1246.54V627.041ZM1554.62 520.664V696.358H1514.84L1451.39 604.05H1450.36V696.358H1402.69V520.664H1443.16L1505.58 612.629H1506.95V520.664H1554.62ZM1747.28 608.511C1747.28 628.071 1743.47 644.57 1735.87 658.01C1728.27 671.393 1718.01 681.545 1705.09 688.465C1692.17 695.328 1677.77 698.76 1661.88 698.76C1645.88 698.76 1631.41 695.3 1618.5 688.379C1605.64 681.402 1595.4 671.222 1587.8 657.839C1580.26 644.399 1576.48 627.956 1576.48 608.511C1576.48 588.951 1580.26 572.48 1587.8 559.097C1595.4 545.657 1605.64 535.505 1618.5 528.642C1631.41 521.722 1645.88 518.262 1661.88 518.262C1677.77 518.262 1692.17 521.722 1705.09 528.642C1718.01 535.505 1728.27 545.657 1735.87 559.097C1743.47 572.48 1747.28 588.951 1747.28 608.511ZM1698.23 608.511C1698.23 597.988 1696.83 589.123 1694.03 581.917C1691.29 574.653 1687.2 569.163 1681.77 565.445C1676.4 561.671 1669.77 559.783 1661.88 559.783C1653.99 559.783 1647.33 561.671 1641.9 565.445C1636.53 569.163 1632.44 574.653 1629.64 581.917C1626.9 589.123 1625.53 597.988 1625.53 608.511C1625.53 619.034 1626.9 627.928 1629.64 635.191C1632.44 642.397 1636.53 647.888 1641.9 651.662C1647.33 655.38 1653.99 657.238 1661.88 657.238C1669.77 657.238 1676.4 655.38 1681.77 651.662C1687.2 647.888 1691.29 642.397 1694.03 635.191C1696.83 627.928 1698.23 619.034 1698.23 608.511ZM1863.99 575.568C1863.53 569.849 1861.39 565.388 1857.56 562.185C1853.78 558.983 1848.04 557.381 1840.32 557.381C1835.41 557.381 1831.38 557.982 1828.23 559.183C1825.15 560.327 1822.86 561.899 1821.37 563.901C1819.89 565.903 1819.12 568.191 1819.06 570.764C1818.95 572.88 1819.32 574.796 1820.17 576.512C1821.09 578.171 1822.52 579.686 1824.46 581.059C1826.4 582.374 1828.89 583.575 1831.92 584.662C1834.95 585.748 1838.55 586.721 1842.72 587.579L1857.13 590.667C1866.84 592.726 1875.16 595.443 1882.08 598.817C1888.99 602.191 1894.65 606.166 1899.05 610.741C1903.45 615.26 1906.68 620.35 1908.74 626.012C1910.86 631.674 1911.94 637.85 1912 644.542C1911.94 656.095 1909.06 665.874 1903.34 673.881C1897.62 681.888 1889.45 687.979 1878.82 692.154C1868.24 696.329 1855.53 698.417 1840.67 698.417C1825.4 698.417 1812.09 696.158 1800.71 691.639C1789.39 687.121 1780.59 680.172 1774.3 670.793C1768.07 661.356 1764.93 649.289 1764.87 634.59H1810.14C1810.43 639.966 1811.77 644.485 1814.17 648.145C1816.57 651.805 1819.95 654.579 1824.29 656.466C1828.69 658.354 1833.92 659.297 1839.98 659.297C1845.07 659.297 1849.33 658.668 1852.75 657.41C1856.18 656.152 1858.79 654.407 1860.56 652.177C1862.33 649.946 1863.24 647.401 1863.3 644.542C1863.24 641.854 1862.36 639.509 1860.64 637.507C1858.99 635.448 1856.24 633.618 1852.41 632.017C1848.58 630.358 1843.41 628.814 1836.89 627.384L1819.4 623.61C1803.86 620.235 1791.59 614.602 1782.62 606.709C1773.7 598.76 1769.27 587.922 1769.33 574.196C1769.27 563.043 1772.25 553.292 1778.25 544.942C1784.31 536.535 1792.68 529.986 1803.37 525.297C1814.12 520.607 1826.43 518.262 1840.32 518.262C1854.5 518.262 1866.76 520.635 1877.1 525.382C1887.45 530.129 1895.42 536.821 1901.03 545.457C1906.68 554.036 1909.54 564.073 1909.6 575.568H1863.99Z"/>
</mask>
<path d="M165.618 586.549H117.261C116.918 582.546 116.004 578.914 114.518 575.654C113.089 572.394 111.088 569.592 108.516 567.247C106.001 564.845 102.943 563.015 99.3419 561.756C95.7408 560.441 91.654 559.783 87.0813 559.783C79.079 559.783 72.3057 561.728 66.7613 565.617C61.274 569.506 57.1014 575.082 54.2435 582.346C51.4427 589.609 50.0423 598.331 50.0423 608.511C50.0423 619.263 51.4713 628.271 54.3292 635.534C57.2443 642.74 61.4455 648.173 66.9328 651.834C72.42 655.437 79.0219 657.238 86.7383 657.238C91.1396 657.238 95.0835 656.695 98.5702 655.608C102.057 654.465 105.086 652.835 107.658 650.719C110.231 648.602 112.317 646.057 113.917 643.083C115.575 640.052 116.69 636.649 117.261 632.875L165.618 633.218C165.046 640.653 162.96 648.231 159.359 655.952C155.758 663.615 150.642 670.707 144.012 677.227C137.438 683.69 129.293 688.894 119.576 692.84C109.859 696.787 98.5702 698.76 85.7095 698.76C69.5907 698.76 55.1295 695.3 42.3259 688.379C29.5794 681.459 19.4909 671.279 12.0602 657.839C4.68675 644.399 1 627.956 1 608.511C1 588.951 4.77249 572.48 12.3175 559.097C19.8624 545.657 30.0367 535.505 42.8403 528.642C55.6439 521.722 69.9336 518.262 85.7095 518.262C96.7983 518.262 107.001 519.778 116.318 522.809C125.635 525.84 133.809 530.272 140.839 536.106C147.87 541.882 153.528 549.003 157.815 557.467C162.102 565.931 164.703 575.626 165.618 586.549ZM357.35 608.511C357.35 628.071 353.549 644.57 345.947 658.01C338.345 671.393 328.085 681.545 315.167 688.465C302.249 695.328 287.845 698.76 271.955 698.76C255.95 698.76 241.489 695.3 228.571 688.379C215.71 681.402 205.479 671.222 197.877 657.839C190.332 644.399 186.559 627.956 186.559 608.511C186.559 588.951 190.332 572.48 197.877 559.097C205.479 545.657 215.71 535.505 228.571 528.642C241.489 521.722 255.95 518.262 271.955 518.262C287.845 518.262 302.249 521.722 315.167 528.642C328.085 535.505 338.345 545.657 345.947 559.097C353.549 572.48 357.35 588.951 357.35 608.511ZM308.308 608.511C308.308 597.988 306.907 589.123 304.106 581.917C301.363 574.653 297.276 569.163 291.846 565.445C286.473 561.671 279.842 559.783 271.955 559.783C264.067 559.783 257.408 561.671 251.978 565.445C246.605 569.163 242.518 574.653 239.717 581.917C236.973 589.123 235.601 597.988 235.601 608.511C235.601 619.034 236.973 627.928 239.717 635.191C242.518 642.397 246.605 647.888 251.978 651.662C257.408 655.38 264.067 657.238 271.955 657.238C279.842 657.238 286.473 655.38 291.846 651.662C297.276 647.888 301.363 642.397 304.106 635.191C306.907 627.928 308.308 619.034 308.308 608.511ZM531.334 520.664V696.358H491.552L428.105 604.05H427.077V696.358H379.406V520.664H419.875L482.292 612.629H483.664V520.664H531.334ZM549.082 559.097V520.664H701.696V559.097H648.882V696.358H601.897V559.097H549.082ZM743.087 696.358H691.644L749.603 520.664H814.764L872.723 696.358H821.28L782.869 569.048H781.497L743.087 696.358ZM733.484 627.041H830.197V662.729H733.484V627.041ZM766.407 504.193L782.869 465.76H823.338L797.616 504.193H766.407ZM1045.31 586.549H996.958C996.615 582.546 995.7 578.914 994.214 575.654C992.785 572.394 990.785 569.592 988.212 567.247C985.698 564.845 982.639 563.015 979.038 561.756C975.437 560.441 971.351 559.783 966.778 559.783C958.776 559.783 952.002 561.728 946.458 565.617C940.971 569.506 936.798 575.082 933.94 582.346C931.139 589.609 929.739 598.331 929.739 608.511C929.739 619.263 931.168 628.271 934.026 635.534C936.941 642.74 941.142 648.173 946.629 651.834C952.117 655.437 958.719 657.238 966.435 657.238C970.836 657.238 974.78 656.695 978.267 655.608C981.754 654.465 984.783 652.835 987.355 650.719C989.927 648.602 992.014 646.057 993.614 643.083C995.272 640.052 996.386 636.649 996.958 632.875L1045.31 633.218C1044.74 640.653 1042.66 648.231 1039.06 655.952C1035.45 663.615 1030.34 670.707 1023.71 677.227C1017.13 683.69 1008.99 688.894 999.273 692.84C989.556 696.787 978.267 698.76 965.406 698.76C949.287 698.76 934.826 695.3 922.023 688.379C909.276 681.459 899.188 671.279 891.757 657.839C884.383 644.399 880.697 627.956 880.697 608.511C880.697 588.951 884.469 572.48 892.014 559.097C899.559 545.657 909.733 535.505 922.537 528.642C935.341 521.722 949.63 518.262 965.406 518.262C976.495 518.262 986.698 519.778 996.015 522.809C1005.33 525.84 1013.51 530.272 1020.54 536.106C1027.57 541.882 1033.23 549.003 1037.51 557.467C1041.8 565.931 1044.4 575.626 1045.31 586.549ZM1062.14 559.097V520.664H1214.75V559.097H1161.94V696.358H1114.96V559.097H1062.14ZM1256.14 696.358H1204.7L1262.66 520.664H1327.82L1385.78 696.358H1334.34L1295.93 569.048H1294.56L1256.14 696.358ZM1246.54 627.041H1343.25V662.729H1246.54V627.041ZM1554.62 520.664V696.358H1514.84L1451.39 604.05H1450.36V696.358H1402.69V520.664H1443.16L1505.58 612.629H1506.95V520.664H1554.62ZM1747.28 608.511C1747.28 628.071 1743.47 644.57 1735.87 658.01C1728.27 671.393 1718.01 681.545 1705.09 688.465C1692.17 695.328 1677.77 698.76 1661.88 698.76C1645.88 698.76 1631.41 695.3 1618.5 688.379C1605.64 681.402 1595.4 671.222 1587.8 657.839C1580.26 644.399 1576.48 627.956 1576.48 608.511C1576.48 588.951 1580.26 572.48 1587.8 559.097C1595.4 545.657 1605.64 535.505 1618.5 528.642C1631.41 521.722 1645.88 518.262 1661.88 518.262C1677.77 518.262 1692.17 521.722 1705.09 528.642C1718.01 535.505 1728.27 545.657 1735.87 559.097C1743.47 572.48 1747.28 588.951 1747.28 608.511ZM1698.23 608.511C1698.23 597.988 1696.83 589.123 1694.03 581.917C1691.29 574.653 1687.2 569.163 1681.77 565.445C1676.4 561.671 1669.77 559.783 1661.88 559.783C1653.99 559.783 1647.33 561.671 1641.9 565.445C1636.53 569.163 1632.44 574.653 1629.64 581.917C1626.9 589.123 1625.53 597.988 1625.53 608.511C1625.53 619.034 1626.9 627.928 1629.64 635.191C1632.44 642.397 1636.53 647.888 1641.9 651.662C1647.33 655.38 1653.99 657.238 1661.88 657.238C1669.77 657.238 1676.4 655.38 1681.77 651.662C1687.2 647.888 1691.29 642.397 1694.03 635.191C1696.83 627.928 1698.23 619.034 1698.23 608.511ZM1863.99 575.568C1863.53 569.849 1861.39 565.388 1857.56 562.185C1853.78 558.983 1848.04 557.381 1840.32 557.381C1835.41 557.381 1831.38 557.982 1828.23 559.183C1825.15 560.327 1822.86 561.899 1821.37 563.901C1819.89 565.903 1819.12 568.191 1819.06 570.764C1818.95 572.88 1819.32 574.796 1820.17 576.512C1821.09 578.171 1822.52 579.686 1824.46 581.059C1826.4 582.374 1828.89 583.575 1831.92 584.662C1834.95 585.748 1838.55 586.721 1842.72 587.579L1857.13 590.667C1866.84 592.726 1875.16 595.443 1882.08 598.817C1888.99 602.191 1894.65 606.166 1899.05 610.741C1903.45 615.26 1906.68 620.35 1908.74 626.012C1910.86 631.674 1911.94 637.85 1912 644.542C1911.94 656.095 1909.06 665.874 1903.34 673.881C1897.62 681.888 1889.45 687.979 1878.82 692.154C1868.24 696.329 1855.53 698.417 1840.67 698.417C1825.4 698.417 1812.09 696.158 1800.71 691.639C1789.39 687.121 1780.59 680.172 1774.3 670.793C1768.07 661.356 1764.93 649.289 1764.87 634.59H1810.14C1810.43 639.966 1811.77 644.485 1814.17 648.145C1816.57 651.805 1819.95 654.579 1824.29 656.466C1828.69 658.354 1833.92 659.297 1839.98 659.297C1845.07 659.297 1849.33 658.668 1852.75 657.41C1856.18 656.152 1858.79 654.407 1860.56 652.177C1862.33 649.946 1863.24 647.401 1863.3 644.542C1863.24 641.854 1862.36 639.509 1860.64 637.507C1858.99 635.448 1856.24 633.618 1852.41 632.017C1848.58 630.358 1843.41 628.814 1836.89 627.384L1819.4 623.61C1803.86 620.235 1791.59 614.602 1782.62 606.709C1773.7 598.76 1769.27 587.922 1769.33 574.196C1769.27 563.043 1772.25 553.292 1778.25 544.942C1784.31 536.535 1792.68 529.986 1803.37 525.297C1814.12 520.607 1826.43 518.262 1840.32 518.262C1854.5 518.262 1866.76 520.635 1877.1 525.382C1887.45 530.129 1895.42 536.821 1901.03 545.457C1906.68 554.036 1909.54 564.073 1909.6 575.568H1863.99Z" stroke="#FFFFF0" stroke-opacity="0.04" stroke-width="2" mask="url(#path-3-outside-3_2648_3980)"/>
</g>
</svg>
