<svg width="1920" height="57" viewBox="0 0 1920 57" fill="none" xmlns="http://www.w3.org/2000/svg">
<path d="M-72 0C-73.1046 0 -74 0.89543 -74 2C-74 3.10457 -73.1046 4 -72 4V0ZM770.087 47.058L771.55 45.6934L770.087 47.058ZM788.364 55V53V55ZM735.446 9.942L733.984 11.3066L735.446 9.942ZM-72 4H717.169V0H-72V4ZM733.984 11.3066L768.625 48.4226L771.55 45.6934L736.908 8.57736L733.984 11.3066ZM788.364 57L2198 57V53L788.364 53V57ZM768.625 48.4226C773.732 53.8938 780.88 57 788.364 57V53C781.989 53 775.899 50.3539 771.55 45.6934L768.625 48.4226ZM717.169 4C723.544 4 729.634 6.64606 733.984 11.3066L736.908 8.57736C731.801 3.10624 724.653 0 717.169 0V4Z" fill="#FF7E7B"/>
</svg>
