<svg xmlns="http://www.w3.org/2000/svg" width="1920" height="57" viewBox="0 0 1920 57" fill="none">
  <path d="M-1 0C-2.10457 0 -3 0.89543 -3 2C-3 3.10457 -2.10457 4 -1 4L-1 0ZM580.587 47.058L579.125 48.4226L580.587 47.058ZM598.864 55V53V55ZM545.946 9.942L547.408 8.57736L545.946 9.942ZM-1 4H527.669V0H-1L-1 4ZM544.484 11.3066L579.125 48.4226L582.05 45.6934L547.408 8.57736L544.484 11.3066ZM598.864 57L2069.5 57V53L598.864 53V57ZM579.125 48.4226C584.232 53.8938 591.38 57 598.864 57V53C592.489 53 586.399 50.3539 582.05 45.6934L579.125 48.4226ZM527.669 4C534.044 4 540.134 6.64606 544.484 11.3066L547.408 8.57736C542.301 3.10624 535.153 0 527.669 0V4Z" fill="#FF5143"/>
</svg>