<svg width="1920" height="58" viewBox="0 0 1920 58" fill="none" xmlns="http://www.w3.org/2000/svg">
<path d="M-34 0.628906C-35.1046 0.628906 -36 1.52434 -36 2.62891C-36 3.73348 -35.1046 4.62891 -34 4.62891V0.628906ZM517.087 47.6869L515.625 49.0515L517.087 47.6869ZM535.364 55.6289V53.6289V55.6289ZM482.446 10.5709L483.908 9.20626L482.446 10.5709ZM-34 4.62891H464.169V0.628906H-34V4.62891ZM480.984 11.9355L515.625 49.0515L518.55 46.3223L483.908 9.20626L480.984 11.9355ZM535.364 57.6289L2006 57.6289V53.6289L535.364 53.6289V57.6289ZM515.625 49.0515C520.732 54.5227 527.88 57.6289 535.364 57.6289V53.6289C528.989 53.6289 522.899 50.9828 518.55 46.3223L515.625 49.0515ZM464.169 4.62891C470.544 4.62891 476.634 7.27496 480.984 11.9355L483.908 9.20626C478.801 3.73515 471.653 0.628906 464.169 0.628906V4.62891Z" fill="#64D2D9"/>
</svg>
