<?xml version="1.0" encoding="UTF-8"?><svg id="Capa_1" xmlns="http://www.w3.org/2000/svg" viewBox="0 0 50 50"><path d="M26.16,22.44c2.67.81,4.59,1.5,5.75,2.08,2.5,1.28,4,3.02,4.52,5.21.15.62.22,1.28.22,1.98,0,.66-.12,1.34-.37,2.04s-.64,1.4-1.18,2.11-1.2,1.34-1.97,1.9-1.74,1.02-2.9,1.39-2.44.57-3.83.6c-.03,0-.07,0-.12,0s-.09,0-.12,0v1.74h-.87v-1.76c-1.35-.04-2.6-.22-3.77-.55s-2.15-.74-2.97-1.26-1.52-1.11-2.11-1.78-1.01-1.38-1.27-2.12-.37-1.5-.34-2.28.22-1.53.57-2.24c.21-.45.52-.81.93-1.07s.83-.4,1.25-.4c.69,0,1.24.29,1.66.87s.51,1.2.29,1.86c-.32.74-.49,1.49-.53,2.25s.08,1.49.34,2.18.64,1.32,1.15,1.88,1.18,1.03,2,1.41,1.76.62,2.81.72v-12.95c-2.56-.78-4.19-1.31-4.88-1.59-2.47-.96-4.11-2.21-4.92-3.73-.46-.87-.69-1.87-.69-2.99,0-2.13.91-3.91,2.72-5.34s4.02-2.15,6.64-2.15c.25,0,.63.01,1.13.04v-1.8h.87v1.88c1.3.16,2.48.46,3.57.91s1.97.97,2.67,1.57,1.27,1.23,1.73,1.9.77,1.32.93,1.95.19,1.19.08,1.68c-.12.57-.41,1.01-.86,1.33s-1.01.42-1.66.32c-.54-.09-.97-.41-1.3-.94s-.45-1.09-.37-1.68c.24-1.65-.05-3.07-.85-4.25s-2.12-1.94-3.95-2.27v11.3ZM25.29,22.18v-11.14c-.36-.04-.73-.06-1.13-.06-1.72,0-3.17.54-4.36,1.62s-1.78,2.28-1.78,3.62c0,.67.14,1.29.41,1.85s.61,1.03,1.01,1.42.95.75,1.65,1.1,1.34.63,1.93.85,1.35.47,2.28.74ZM26.4,39.29c1.89,0,3.46-.63,4.7-1.89s1.86-2.76,1.86-4.49c0-.89-.17-1.67-.52-2.36s-.86-1.28-1.55-1.76-1.39-.9-2.1-1.22-1.59-.65-2.64-.98v12.71h.24Z"/></svg>