<?xml version="1.0" encoding="UTF-8"?><svg id="Capa_1" xmlns="http://www.w3.org/2000/svg" viewBox="0 0 50 50"><defs><style>.cls-1{fill:none;stroke:#000;stroke-miterlimit:10;stroke-width:.95px;}</style></defs><path d="M22.77,3.45c17.82-1.57,29.92,17.34,20.75,32.81-9.25,15.6-33.08,13.1-39.01-4.04C0,19.14,8.91,4.67,22.77,3.45ZM11.55,39.75c7.6,6.92,19.39,7.07,26.86,0,16.8-15.9-1.23-42-21.55-33.05C3.62,12.54.81,29.98,11.55,39.75Z"/><path class="cls-1" d="M11.55,39.75l6.51-3.7c1.03-.77,1.48-4.3,1.17-5.35-.12-.39-.74-.61-1.02-.91-1.48-1.64-1.07-2.85-1.77-4.02-.16-.27-.9-.51-1.33-1.24-.76-1.29-.96-2.81-.17-4.13.11-.18.42-.22.46-.37.19-.68-.06-2.61,0-3.51.28-4.44,2-7.63,6.41-8.87,1.91-.54,4.64-.91,6.36.3.9.64.83,1.65.92,1.74.05.05,1.02-.01,1.32.05,3.68.67,3.75,5.67,3.66,8.57-.02.53-.31,1.2-.17,1.73.04.17.37.19.49.35.84,1.1.55,3.05-.19,4.16-.29.44-.85.75-1.06,1.19-.49.99-.62,2.24-1.3,3.37-.29.49-1.39,1.59-1.44,1.77-.24.83.27,3.71.74,4.5,1.04,1.77,5.31,3.75,7.27,4.39-7.47,7.07-19.26,6.92-26.86,0Z"/></svg>