<?xml version="1.0" encoding="UTF-8"?><svg id="Capa_1" xmlns="http://www.w3.org/2000/svg" viewBox="0 0 50 50"><defs><style>.cls-1{fill:#494848;}.cls-2{fill:#898888;}.cls-3{fill:#dbdbdb;}.cls-4{fill:#1e1d1d;}.cls-5{fill:#6d6d6d;}.cls-6{fill:#b2b2b2;}.cls-7{fill:#bcbbbb;}</style></defs><circle cx="25.41" cy="6.26" r="2.48"/><circle cx="25.41" cy="12.87" r="1.75"/><path class="cls-2" d="M22.93,45.61c0-1.37,1.11-2.48,2.48-2.48s2.48,1.11,2.48,2.48-1.11,2.48-2.48,2.48-2.48-1.11-2.48-2.48Z"/><path class="cls-2" d="M23.66,39c0-.97.78-1.75,1.75-1.75s1.75.78,1.75,1.75-.78,1.75-1.75,1.75-1.75-.78-1.75-1.75Z"/><path class="cls-7" d="M45.08,28.42c-1.37,0-2.48-1.11-2.48-2.48s1.11-2.48,2.48-2.48,2.48,1.11,2.48,2.48-1.11,2.48-2.48,2.48Z"/><path class="cls-7" d="M38.47,27.69c-.97,0-1.75-.78-1.75-1.75s.78-1.75,1.75-1.75,1.75.78,1.75,1.75-.78,1.75-1.75,1.75Z"/><path class="cls-1" d="M5.73,23.46c1.37,0,2.48,1.11,2.48,2.48s-1.11,2.48-2.48,2.48-2.48-1.11-2.48-2.48,1.11-2.48,2.48-2.48Z"/><path class="cls-1" d="M12.34,24.19c.97,0,1.75.78,1.75,1.75s-.78,1.75-1.75,1.75-1.75-.78-1.75-1.75.78-1.75,1.75-1.75Z"/><path class="cls-3" d="M41.07,13.78c-.97.97-2.54.97-3.51,0s-.97-2.54,0-3.51c.97-.97,2.54-.97,3.51,0,.97.97.97,2.54,0,3.51Z"/><path class="cls-3" d="M35.89,17.94c-.68.68-1.79.68-2.48,0-.68-.68-.68-1.79,0-2.48.68-.68,1.79-.68,2.48,0,.68.68.68,1.79,0,2.48Z"/><path class="cls-5" d="M9.74,38.1c.97-.97,2.54-.97,3.51,0s.97,2.54,0,3.51-2.54.97-3.51,0c-.97-.97-.97-2.54,0-3.51Z"/><path class="cls-5" d="M14.93,33.94c.68-.68,1.79-.68,2.48,0,.68.68.68,1.79,0,2.48s-1.79.68-2.48,0c-.68-.68-.68-1.79,0-2.48Z"/><path class="cls-6" d="M37.57,41.6c-.97-.97-.97-2.54,0-3.51.97-.97,2.54-.97,3.51,0,.97.97.97,2.54,0,3.51-.97.97-2.54.97-3.51,0Z"/><path class="cls-6" d="M33.41,36.42c-.68-.68-.68-1.79,0-2.48s1.79-.68,2.48,0c.68.68.68,1.79,0,2.48-.68.68-1.79.68-2.48,0Z"/><path class="cls-4" d="M13.25,10.27c.97.97.97,2.54,0,3.51-.97.97-2.54.97-3.51,0-.97-.97-.97-2.54,0-3.51.97-.97,2.54-.97,3.51,0Z"/><path class="cls-4" d="M17.41,15.46c.68.68.68,1.79,0,2.48-.68.68-1.79.68-2.48,0s-.68-1.79,0-2.48,1.79-.68,2.48,0Z"/></svg>