<?xml version="1.0" encoding="UTF-8"?><svg id="Capa_1" xmlns="http://www.w3.org/2000/svg" viewBox="0 0 50 50"><defs><style>.cls-1{fill:none;stroke:#000;stroke-miterlimit:10;}</style></defs><path class="cls-1" d="M36.05,6.08c-4.08,0-7.59,2.41-9.21,5.89-.04-.07-.07-.14-.11-.21-1.1-1.93-4.83-2.9-5.46-2.9h-2.67c-.63,0-4.36.97-5.46,2.9-1.1,1.93-1.33,3.1-1.4,4.83,0,.09,0,.17-.01.26-.16,1.06-.17,2.2.01,3.37-.74.32-1.16,1.11-1.16,2.22,0,1.45,1.16,3.16,2.2,3.32.46,2.12,1.75,5.5,4.36,6.29.02,0,.03.01.05.02-.19,1.01-.44.53-.7.97-.06.1-.12.19-.17.28-9.71.89-11.4,5.48-11.41,8.68,0,0,7.02,1.93,15.02,1.93s15.02-1.93,15.02-1.93c0-3.2-1.7-7.79-11.41-8.68-.06-.09-.11-.18-.17-.28-.26-.44-.52.04-.7-.97.02,0,.03-.01.05-.02,2.45-.74,3.74-3.77,4.27-5.89.06-.14.11-.28.17-.42.75-.17,1.54-1.1,1.91-2.15,1.82,1.73,4.27,2.79,6.98,2.79,5.61,0,10.16-4.55,10.16-10.16s-4.55-10.16-10.16-10.16ZM42.25,17.99h-4.45v4.45h-3.5v-4.45h-4.45v-3.5h4.45v-4.45h3.5v4.45h4.45v3.5Z"/></svg>