<?xml version="1.0" encoding="UTF-8"?><svg id="Capa_1" xmlns="http://www.w3.org/2000/svg" viewBox="0 0 50 50"><g id="B600_Film_Media_Movie_Multimedia"><path d="M6.32,43.08c-.44,0-.81-.37-.81-.81V6.69c0-.43.38-.81.81-.81s.81.37.81.81v35.65c-.06.37-.44.74-.81.74Z"/><path d="M14.14,43.08c-.44,0-.81-.37-.81-.81v-3.84c0-.43.38-.81.81-.81s.81.37.81.81v3.91c-.06.37-.44.74-.81.74Z"/><path d="M14.14,11.34c-.44,0-.81-.37-.81-.81v-3.91c0-.43.38-.81.81-.81s.81.37.81.81v3.91c-.06.43-.44.81-.81.81Z"/><path d="M34.49,11.34c-.44,0-.81-.37-.81-.81v-3.91c0-.43.38-.81.81-.81s.81.37.81.81v3.91c-.06.43-.44.81-.81.81Z"/><path d="M34.49,43.08c-.44,0-.81-.37-.81-.81v-3.84c0-.43.38-.81.81-.81s.81.37.81.81v3.91c-.06.37-.44.74-.81.74Z"/><path d="M42.32,43.08c-.44,0-.81-.37-.81-.81V6.69c0-.43.38-.81.81-.81s.81.37.81.81v35.65c-.06.37-.44.74-.81.74Z"/><path d="M34.49,25.29c-.44,0-.81-.37-.81-.81v-13.14H14.9v13.21c0,.43-.38.81-.81.81s-.81-.37-.81-.81v-14.01c0-.43.38-.81.81-.81h20.35c.44,0,.81.37.81.81v13.95c0,.43-.38.81-.75.81Z"/><path d="M34.49,39.24H14.14c-.44,0-.81-.37-.81-.81v-13.95c0-.43.38-.81.81-.81h20.35c.44,0,.81.37.81.81v13.95c-.06.43-.44.81-.81.81ZM14.9,37.69h18.79v-12.4H14.9v12.4Z"/><path d="M11.76,14.44h-3.13c-.44,0-.81-.37-.81-.81v-3.1c0-.43.38-.81.81-.81h3.13c.44,0,.81.37.81.81v3.1c0,.43-.38.81-.81.81ZM9.45,12.89h1.57v-1.55h-1.57v1.55Z"/><path d="M11.76,20.64h-3.13c-.44,0-.81-.37-.81-.81v-3.1c0-.43.38-.81.81-.81h3.13c.44,0,.81.37.81.81v3.1c0,.43-.38.81-.81.81ZM9.45,19.09h1.57v-1.55h-1.57v1.55Z"/><path d="M11.76,26.84h-3.13c-.44,0-.81-.37-.81-.81v-3.1c0-.43.38-.81.81-.81h3.13c.44,0,.81.37.81.81v3.1c0,.43-.38.81-.81.81ZM9.45,25.29h1.57v-1.55h-1.57v1.55Z"/><path d="M11.76,33.04h-3.13c-.44,0-.81-.37-.81-.81v-3.1c0-.43.38-.81.81-.81h3.13c.44,0,.81.37.81.81v3.1c0,.43-.38.81-.81.81ZM9.45,31.49h1.57v-1.55h-1.57v1.55Z"/><path d="M11.76,39.24h-3.13c-.44,0-.81-.37-.81-.81v-3.1c0-.43.38-.81.81-.81h3.13c.44,0,.81.37.81.81v3.1c0,.43-.38.81-.81.81ZM9.45,37.69h1.57v-1.55h-1.57v1.55Z"/><path d="M39.94,14.44h-3.13c-.44,0-.81-.37-.81-.81v-3.1c0-.43.38-.81.81-.81h3.13c.44,0,.81.37.81.81v3.1c0,.43-.38.81-.81.81ZM37.62,12.89h1.57v-1.55h-1.57v1.55Z"/><path d="M39.94,20.64h-3.13c-.44,0-.81-.37-.81-.81v-3.1c0-.43.38-.81.81-.81h3.13c.44,0,.81.37.81.81v3.1c0,.43-.38.81-.81.81ZM37.62,19.09h1.57v-1.55h-1.57v1.55Z"/><path d="M39.94,26.84h-3.13c-.44,0-.81-.37-.81-.81v-3.1c0-.43.38-.81.81-.81h3.13c.44,0,.81.37.81.81v3.1c0,.43-.38.81-.81.81ZM37.62,25.29h1.57v-1.55h-1.57v1.55Z"/><path d="M39.94,33.04h-3.13c-.44,0-.81-.37-.81-.81v-3.1c0-.43.38-.81.81-.81h3.13c.44,0,.81.37.81.81v3.1c0,.43-.38.81-.81.81ZM37.62,31.49h1.57v-1.55h-1.57v1.55Z"/><path d="M39.94,39.24h-3.13c-.44,0-.81-.37-.81-.81v-3.1c0-.43.38-.81.81-.81h3.13c.44,0,.81.37.81.81v3.1c0,.43-.38.81-.81.81ZM37.62,37.69h1.57v-1.55h-1.57v1.55Z"/></g></svg>