<?xml version="1.0" encoding="UTF-8"?><svg id="Capa_1" xmlns="http://www.w3.org/2000/svg" viewBox="0 0 50 50"><defs><style>.cls-1{fill:none;stroke:#000;stroke-miterlimit:10;}</style></defs><path class="cls-1" d="M8.42,22.12v2.14c0,1.1.8,2.03,1.88,2.19l.67.1v-6.73l-.67.1c-1.08.17-1.88,1.1-1.88,2.19Z"/><path class="cls-1" d="M40.12,19.92l-.67-.1v6.73l.67-.1c1.08-.17,1.88-1.1,1.88-2.19v-2.14c0-1.1-.8-2.03-1.88-2.19Z"/><path class="cls-1" d="M29.83,12.83c-.25-1.1-1.16-1.86-4.41-1.86s-4.13.74-4.4,1.81c1.21-.13,2.6-.2,4.19-.2,1.78,0,3.31.09,4.62.25Z"/><path class="cls-1" d="M34.23,19.3c-1.26-.68-3.81-1.49-8.82-1.49s-7.56.81-8.82,1.49c-.76.41-1.23,1.21-1.23,2.07v4.85c0,.87.47,1.66,1.23,2.07,1.26.68,3.81,1.49,8.82,1.49s7.56-.81,8.82-1.49c.76-.41,1.23-1.21,1.23-2.07v-4.85c0-.87-.47-1.66-1.23-2.07ZM21.08,23.56c-.98,0-1.77.49-1.77-.49s.79-1.77,1.77-1.77,1.77.79,1.77,1.77-.79.49-1.77.49ZM26.46,27.33c-.27.27-.64.43-1.05.43-.82,0-1.48-.66-1.48-1.48,0-.06.02-.11.06-.15.04-.04.09-.06.15-.06h2.54c.12,0,.21.09.21.21,0,.41-.17.78-.43,1.05ZM30.4,23.61c-.2-.03-.41-.05-.64-.05-.98,0-1.77.49-1.77-.49s.79-1.77,1.77-1.77c.24,0,.46.05.67.13.64.26,1.1.9,1.1,1.64s-.47.64-1.13.55Z"/><path class="cls-1" d="M35.39,16.05c-1.72-.93-4.77-1.79-10.18-1.79s-8.46.86-10.18,1.79c-1.35.73-2.19,2.14-2.19,3.68v6.73c0,1.54.84,2.95,2.19,3.68,1.72.93,4.77,1.79,10.18,1.79s8.46-.86,10.18-1.79c1.35-.73,2.19-2.14,2.19-3.68v-6.73c0-1.54-.84-2.95-2.19-3.68Z"/><path class="cls-1" d="M41.98,35.59c-1.5,2.66-3.63,4.94-6.17,6.63.05-.64.07-1.3.07-1.98,0-4.01-4.2-6.58-10.46-6.58s-10.46,2.57-10.46,6.58c0,.78.03,1.53.09,2.26-2.67-1.66-4.9-3.97-6.48-6.69-1.69-2.92-2.59-6.25-2.59-9.65,0-2.6.51-5.12,1.51-7.49.97-2.29,2.36-4.35,4.12-6.11,1.77-1.77,3.82-3.15,6.11-4.12,2.37-1,4.89-1.51,7.49-1.51s5.12.51,7.49,1.51c2.29.97,4.35,2.36,6.11,4.12,1.77,1.77,3.15,3.82,4.12,6.11,1,2.37,1.51,4.89,1.51,7.49,0,3.31-.85,6.56-2.46,9.43Z"/></svg>