<?xml version="1.0" encoding="UTF-8"?><svg id="Capa_1" xmlns="http://www.w3.org/2000/svg" viewBox="0 0 50 50"><defs><style>.cls-1{fill:none;stroke:#000;stroke-miterlimit:10;stroke-width:.75px;}</style></defs><path class="cls-1" d="M17.55,11.71h26.29c1.58,0,2.87,1.28,2.87,2.87v16.97c0,1.58-1.28,2.87-2.87,2.87h-5v5.92l-6.89-5.92h-14.4c-1.58,0-2.87-1.28-2.87-2.87V14.58c0-1.58,1.28-2.87,2.87-2.87Z"/><path class="cls-1" d="M17.55,35.76c-2.32,0-4.21-1.89-4.21-4.21v-10.97h-6.17c-1.28,0-2.31,1.04-2.31,2.31v13.69c0,1.28,1.04,2.31,2.31,2.31h4.04v4.78l5.56-4.78h11.62c1.28,0,2.31-1.04,2.31-2.31v-.82h-13.14Z"/></svg>