<?xml version="1.0" encoding="UTF-8"?><svg id="Capa_1" xmlns="http://www.w3.org/2000/svg" viewBox="0 0 50 50"><path d="M24.81,31.74c-2.99,0-5.78-.8-7.84-2.26l-1.3-.92c-.17-.12-.21-.35-.09-.52.12-.17.35-.21.52-.09l1.3.92c1.94,1.37,4.57,2.13,7.41,2.13.71,0,1.44-.05,2.15-.15.21-.03.39.11.42.32.03.2-.11.39-.32.42-.74.1-1.5.15-2.25.15ZM28.94,31.2c-.16,0-.31-.11-.36-.28-.05-.2.07-.4.26-.45,1.59-.42,3.01-1.07,4.22-1.93l5.75-4.09c.17-.12.4-.08.52.09.12.17.08.4-.09.52l-5.75,4.09c-1.28.91-2.78,1.6-4.46,2.04-.03,0-.06.01-.1.01ZM14.28,27.47c-.07,0-.15-.02-.21-.07l-5.83-4.14c-.1-.07-.16-.18-.16-.3s.06-.23.16-.3l3.83-2.72c.17-.12.4-.08.52.09.12.17.08.4-.09.52l-3.41,2.42,5.41,3.84c.17.12.21.35.09.52-.07.1-.19.16-.3.16ZM40.65,23.98c-.12,0-.23-.05-.3-.16-.12-.17-.08-.4.09-.52l.5-.35-8.32-5.91c-1.62-1.15-3.72-1.87-6.07-2.07-.2-.02-.35-.2-.34-.4.02-.2.19-.35.4-.34,2.48.21,4.7.98,6.43,2.2l8.75,6.21c.1.07.16.18.16.3s-.06.23-.16.3l-.92.65c-.07.05-.14.07-.21.07ZM13.89,19.47c-.12,0-.23-.05-.3-.16-.12-.17-.08-.4.09-.52l2.84-2.01c2.19-1.55,5.05-2.47,8.07-2.58.21-.02.38.15.38.36,0,.2-.15.38-.36.38-2.87.11-5.6.98-7.67,2.44l-2.84,2.01c-.07.05-.14.07-.21.07Z"/><path d="M24.81,31.74c-.47,0-.95-.02-1.41-.06-.2-.02-.36-.2-.34-.4.02-.2.2-.35.4-.34.44.04.9.06,1.35.06,3.05,0,6.06-.89,8.26-2.45l1.22-.87c.17-.12.4-.08.52.09.12.17.08.4-.09.52l-1.22.87c-2.36,1.67-5.44,2.59-8.68,2.59ZM21.48,31.38s-.05,0-.08,0c-1.69-.38-3.18-1.02-4.43-1.9l-3.21-2.28c-.06-.04-.11-.11-.13-.18-.37-1.04-.6-2.12-.67-3.23-.01-.2.14-.38.34-.39.2-.01.38.14.39.34.07,1,.27,1.98.59,2.92l3.12,2.22c1.17.83,2.57,1.43,4.16,1.78.2.04.33.24.28.44-.04.17-.19.29-.36.29ZM36.07,27.16s-.08,0-.12-.02c-.19-.07-.3-.28-.23-.47.41-1.2.62-2.44.62-3.71s-.21-2.5-.61-3.69l-3.12-2.22c-2.23-1.58-5.41-2.35-8.72-2.07-.2.02-.38-.14-.4-.34-.02-.2.13-.38.34-.4.46-.04.92-.06,1.38-.06,3,0,5.78.8,7.83,2.26l3.22,2.28c.06.04.11.11.13.18.46,1.3.7,2.66.7,4.05s-.22,2.68-.66,3.96c-.05.15-.2.25-.35.25ZM13.36,22.15s-.03,0-.04,0c-.2-.02-.35-.2-.33-.41.1-.97.31-1.92.64-2.83.03-.07.07-.13.13-.18l2.75-1.96c1.49-1.06,3.33-1.83,5.31-2.25.2-.04.4.09.44.29.04.2-.09.4-.29.44-1.89.39-3.63,1.13-5.03,2.13l-2.66,1.89c-.28.82-.47,1.68-.56,2.55-.02.19-.18.33-.37.33Z"/><path d="M24.98,27.72h0c-2.61-.02-4.73-2.15-4.73-4.76,0-1.84,1.08-3.54,2.75-4.32.19-.09.41,0,.49.18.09.19,0,.41-.18.49-1.41.66-2.32,2.09-2.32,3.65,0,2.2,1.79,4.01,3.99,4.02.2,0,.37.17.37.37,0,.2-.17.37-.37.37ZM26.89,27.3c-.14,0-.27-.08-.33-.21-.09-.18,0-.41.18-.49,1.39-.66,2.3-2.09,2.3-3.63,0-2.22-1.8-4.02-4.02-4.02-.2,0-.37-.17-.37-.37s.17-.37.37-.37c2.63,0,4.76,2.14,4.76,4.76,0,1.83-1.07,3.52-2.72,4.3-.05.02-.11.04-.16.04Z"/><path d="M44.22,42.54h-.88c-.2,0-.37-.17-.37-.37s.17-.37.37-.37h.51v-10.61c0-.2.17-.37.37-.37s.37.17.37.37v10.98c0,.2-.17.37-.37.37ZM41.37,42.54h-8.13c-.2,0-.37-.17-.37-.37s.17-.37.37-.37h8.13c.2,0,.37.17.37.37s-.17.37-.37.37ZM16.77,42.54H5.79c-.2,0-.37-.17-.37-.37v-.87c0-.2.17-.37.37-.37s.37.17.37.37v.5h10.61c.2,0,.37.17.37.37s-.17.37-.37.37ZM5.79,39.69c-.2,0-.37-.17-.37-.37v-8.13c0-.2.17-.37.37-.37s.37.17.37.37v8.13c0,.2-.17.37-.37.37ZM44.22,15.1c-.2,0-.37-.17-.37-.37V6.6c0-.2.17-.37.37-.37s.37.17.37.37v8.13c0,.2-.17.37-.37.37ZM5.79,15.1c-.2,0-.37-.17-.37-.37V3.75c0-.2.17-.37.37-.37h.88c.2,0,.37.17.37.37s-.17.37-.37.37h-.5v10.61c0,.2-.17.37-.37.37ZM44.22,4.99c-.2,0-.37-.17-.37-.37v-.5h-10.61c-.2,0-.37-.17-.37-.37s.17-.37.37-.37h10.98c.2,0,.37.17.37.37v.88c0,.2-.17.37-.37.37ZM16.77,4.12h-8.13c-.2,0-.37-.17-.37-.37s.17-.37.37-.37h8.13c.2,0,.37.17.37.37s-.17.37-.37.37Z"/></svg>