<?xml version="1.0" encoding="UTF-8"?><svg id="Capa_1" xmlns="http://www.w3.org/2000/svg" viewBox="0 0 50 50"><g id="_1922_Audience_Goal_Marketing_Person_Recruitment"><path d="M44.24,24.17h-2.52c-.4-8.51-7.35-15.38-16.02-15.84v-2.55c0-.46-.4-.85-.86-.85s-.86.39-.86.85v2.55c-8.61.39-15.56,7.26-16.02,15.84h-2.58c-.46,0-.86.39-.86.85s.4.85.86.85h2.58c.4,8.51,7.35,15.38,16.02,15.84v2.55c0,.46.4.85.86.85s.86-.39.86-.85v-2.55c8.61-.39,15.56-7.26,16.02-15.84h2.58c.46,0,.86-.39.86-.85-.07-.46-.46-.85-.93-.85ZM40,24.17h-4.24c-.4-5.3-4.7-9.55-10.06-9.95v-4.19c7.68.39,13.9,6.54,14.3,14.13ZM31.59,25.87h2.52c-.4,4.38-3.97,7.92-8.41,8.31v-2.49c0-.46-.4-.85-.86-.85s-.86.39-.86.85v2.49c-4.44-.39-8.01-3.93-8.41-8.31h2.52c.46,0,.86-.39.86-.85s-.4-.85-.86-.85h-2.52c.4-4.38,3.97-7.92,8.41-8.31v2.49c0,.46.4.85.86.85s.86-.39.86-.85v-2.49c4.44.39,8.01,3.93,8.41,8.31h-2.52c-.46,0-.86.39-.86.85s.4.85.86.85ZM23.98,10.03v4.19c-5.36.39-9.66,4.65-10.06,9.95h-4.24c.4-7.59,6.62-13.74,14.3-14.13ZM9.68,25.87h4.24c.4,5.3,4.7,9.55,10.06,9.95v4.19c-7.68-.39-13.9-6.54-14.3-14.13ZM25.7,40v-4.19c5.36-.39,9.66-4.65,10.06-9.95h4.24c-.4,7.59-6.62,13.74-14.3,14.13Z"/><path d="M26.96,23.91c.26-.39.4-.85.4-1.37,0-1.37-1.13-2.49-2.52-2.49s-2.52,1.11-2.52,2.49c0,.52.13.98.4,1.37-1.26.72-2.12,2.09-2.12,3.6v1.64c0,.46.4.85.86.85h6.75c.46,0,.86-.39.86-.85v-1.64c0-1.5-.86-2.88-2.12-3.6ZM23.98,22.53c0-.46.4-.85.86-.85s.86.39.86.85-.4.85-.86.85-.86-.39-.86-.85ZM27.36,28.36h-5.03v-.85c0-1.37,1.13-2.49,2.52-2.49s2.52,1.11,2.52,2.49v.85Z"/></g></svg>