<?xml version="1.0" encoding="UTF-8"?><svg id="Capa_1" xmlns="http://www.w3.org/2000/svg" viewBox="0 0 50 50"><defs><style>.cls-1{fill:none;stroke:#000;stroke-miterlimit:10;stroke-width:.95px;}</style></defs><path class="cls-1" d="M42.88,23.44h-13.22c-3.07,0-5.55,2.49-5.55,5.55s2.49,5.55,5.55,5.55h3.64c-.13,1.55-.82,3.91-3.58,5.85,0,0,6.61-1.34,7.95-5.85h5.21c3.07,0,5.55-2.49,5.55-5.55s-2.49-5.55-5.55-5.55Z"/><path class="cls-1" d="M32.58,28.84c0,.84-.68,1.52-1.52,1.52s-1.52-.68-1.52-1.52.68-1.52,1.52-1.52,1.52.68,1.52,1.52Z"/><path class="cls-1" d="M37.73,28.84c0,.84-.68,1.52-1.52,1.52s-1.52-.68-1.52-1.52.68-1.52,1.52-1.52,1.52.68,1.52,1.52Z"/><path class="cls-1" d="M43.34,28.84c0,.84-.68,1.52-1.52,1.52s-1.52-.68-1.52-1.52.68-1.52,1.52-1.52,1.52.68,1.52,1.52Z"/><path class="cls-1" d="M7.42,12.93h13.22c3.07,0,5.55,2.49,5.55,5.55s-2.49,5.55-5.55,5.55h-3.64c.13,1.55.82,3.91,3.58,5.85,0,0-6.61-1.34-7.95-5.85h-5.21c-3.07,0-5.55-2.49-5.55-5.55s2.49-5.55,5.55-5.55Z"/><path class="cls-1" d="M17.71,18.34c0,.84.68,1.52,1.52,1.52s1.52-.68,1.52-1.52-.68-1.52-1.52-1.52-1.52.68-1.52,1.52Z"/><path class="cls-1" d="M12.57,18.34c0,.84.68,1.52,1.52,1.52s1.52-.68,1.52-1.52-.68-1.52-1.52-1.52-1.52.68-1.52,1.52Z"/><path class="cls-1" d="M6.96,18.34c0,.84.68,1.52,1.52,1.52s1.52-.68,1.52-1.52-.68-1.52-1.52-1.52-1.52.68-1.52,1.52Z"/></svg>