<?xml version="1.0" encoding="UTF-8"?><svg id="Capa_1" xmlns="http://www.w3.org/2000/svg" viewBox="0 0 50 50"><path d="M38.85,40.54h-12.29c-.21,0-.38-.17-.38-.38s.17-.38.38-.38h12.29c.21,0,.38.17.38.38s-.17.38-.38.38ZM24.52,40.54h-12.29c-.21,0-.38-.17-.38-.38s.17-.38.38-.38h12.29c.21,0,.38.17.38.38s-.17.38-.38.38ZM10.76,39.96c-.21,0-.38-.17-.38-.38v-12.29c0-.21.17-.38.38-.38s.38.17.38.38v12.29c0,.21-.17.38-.38.38ZM39.24,38.87c-.21,0-.38-.17-.38-.38v-12.29c0-.21.17-.38.38-.38s.38.17.38.38v12.29c0,.21-.17.38-.38.38ZM10.76,25.62c-.21,0-.38-.17-.38-.38v-12.29c0-.21.17-.38.38-.38s.38.17.38.38v12.29c0,.21-.17.38-.38.38ZM39.24,24.54c-.21,0-.38-.17-.38-.38v-12.29c0-.21.17-.38.38-.38s.38.17.38.38v12.29c0,.21-.17.38-.38.38ZM37.38,12.06h-12.29c-.21,0-.38-.17-.38-.38s.17-.38.38-.38h12.29c.21,0,.38.17.38.38s-.17.38-.38.38ZM23.05,12.06h-12.29c-.21,0-.38-.17-.38-.38s.17-.38.38-.38h12.29c.21,0,.38.17.38.38s-.17.38-.38.38Z"/><path d="M36.39,37.69h-9.73c-.21,0-.38-.17-.38-.38s.17-.38.38-.38h9.35v-2.17c0-.21.17-.38.38-.38s.38.17.38.38v2.55c0,.21-.17.38-.38.38ZM24.61,37.69h-11c-.21,0-.38-.17-.38-.38v-1.29c0-.21.17-.38.38-.38s.38.17.38.38v.9h10.61c.21,0,.38.17.38.38s-.17.38-.38.38ZM13.61,34.35c-.21,0-.38-.17-.38-.38v-12.29c0-.21.17-.38.38-.38s.38.17.38.38v12.29c0,.21-.17.38-.38.38ZM36.39,33.08c-.21,0-.38-.17-.38-.38v-12.29c0-.21.17-.38.38-.38s.38.17.38.38v12.29c0,.21-.17.38-.38.38ZM13.61,20.02c-.21,0-.38-.17-.38-.38v-5.11c0-.21.17-.38.38-.38h12.29c.21,0,.38.17.38.38s-.17.38-.38.38h-11.9v4.73c0,.21-.17.38-.38.38ZM36.39,18.75c-.21,0-.38-.17-.38-.38v-3.46h-8.06c-.21,0-.38-.17-.38-.38s.17-.38.38-.38h8.44c.21,0,.38.17.38.38v3.84c0,.21-.17.38-.38.38Z"/><path d="M5.07,20.6c-.21,0-.38-.17-.38-.38v-2.85c0-.21.17-.38.38-.38h5.69c.21,0,.38.17.38.38s-.17.38-.38.38h-5.31v2.46c0,.21-.17.38-.38.38Z"/><path d="M5.07,26.3c-.21,0-.38-.17-.38-.38v-2.85c0-.21.17-.38.38-.38h5.69c.21,0,.38.17.38.38s-.17.38-.38.38h-5.31v2.46c0,.21-.17.38-.38.38Z"/><path d="M5.07,32c-.21,0-.38-.17-.38-.38v-2.85c0-.21.17-.38.38-.38h5.69c.21,0,.38.17.38.38s-.17.38-.38.38h-5.31v2.46c0,.21-.17.38-.38.38Z"/><path d="M5.07,37.69c-.21,0-.38-.17-.38-.38v-2.85c0-.21.17-.38.38-.38h5.69c.21,0,.38.17.38.38s-.17.38-.38.38h-5.31v2.46c0,.21-.17.38-.38.38Z"/><path d="M44.93,20.6c-.21,0-.38-.17-.38-.38v-2.46h-5.31c-.21,0-.38-.17-.38-.38s.17-.38.38-.38h5.7c.21,0,.38.17.38.38v2.85c0,.21-.17.38-.38.38Z"/><path d="M44.93,26.3c-.21,0-.38-.17-.38-.38v-2.46h-5.31c-.21,0-.38-.17-.38-.38s.17-.38.38-.38h5.7c.21,0,.38.17.38.38v2.85c0,.21-.17.38-.38.38Z"/><path d="M44.93,32c-.21,0-.38-.17-.38-.38v-2.46h-5.31c-.21,0-.38-.17-.38-.38s.17-.38.38-.38h5.7c.21,0,.38.17.38.38v2.85c0,.21-.17.38-.38.38Z"/><path d="M44.93,37.69c-.21,0-.38-.17-.38-.38v-2.46h-5.31c-.21,0-.38-.17-.38-.38s.17-.38.38-.38h5.7c.21,0,.38.17.38.38v2.85c0,.21-.17.38-.38.38Z"/><path d="M19.3,23.45c-1.3,0-2.47-.77-2.98-1.97-.08-.2,0-.42.2-.5.2-.08.42,0,.5.2.39.91,1.28,1.5,2.27,1.5,1.36,0,2.46-1.11,2.46-2.46s-1.11-2.46-2.46-2.46c-1.07,0-2.01.68-2.34,1.69-.07.2-.28.31-.48.25-.2-.07-.31-.28-.25-.48.44-1.33,1.67-2.22,3.07-2.22,1.78,0,3.23,1.45,3.23,3.23s-1.45,3.23-3.23,3.23Z"/><path d="M30.7,23.45c-1.31,0-2.48-.78-2.98-1.98-.08-.2,0-.42.2-.5.2-.08.42,0,.5.2.39.92,1.28,1.51,2.27,1.51,1.36,0,2.46-1.11,2.46-2.46s-1.1-2.46-2.46-2.46h0c-1.06,0-2,.68-2.34,1.69-.07.2-.28.31-.49.24-.2-.07-.31-.28-.24-.49.44-1.32,1.67-2.21,3.07-2.21h0c1.78,0,3.23,1.45,3.23,3.23s-1.45,3.23-3.23,3.23Z"/><path d="M25,34.84c-.34,0-.68-.01-1.02-.04-.21-.02-.37-.2-.35-.41.02-.21.2-.37.41-.35.32.02.64.04.96.04,4.3,0,7.83-2.18,8.13-4.92h-10.6c-.21,0-.38-.17-.38-.38s.17-.38.38-.38h11c.21,0,.38.17.38.38,0,3.35-4,6.07-8.92,6.07ZM21.99,34.47s-.06,0-.09-.01c-3.48-.87-5.82-3.16-5.82-5.7,0-.21.17-.38.38-.38h4.03c.21,0,.38.17.38.38s-.17.38-.38.38h-3.63c.23,2.02,2.27,3.83,5.22,4.57.21.05.33.26.28.47-.04.17-.2.29-.37.29Z"/><path d="M20.73,34.08c-.21,0-.38-.17-.38-.38v-4.93c0-.21.17-.38.38-.38s.38.17.38.38v4.93c0,.21-.17.38-.38.38Z"/><path d="M25,34.52c-.21,0-.38-.17-.38-.38v-5.37c0-.21.17-.38.38-.38s.38.17.38.38v5.37c0,.21-.17.38-.38.38Z"/><path d="M29.27,34.08c-.21,0-.38-.17-.38-.38v-4.93c0-.21.17-.38.38-.38s.38.17.38.38v4.93c0,.21-.17.38-.38.38Z"/><path d="M30.7,21.44c-.67,0-1.22-.55-1.22-1.22s.55-1.22,1.22-1.22,1.21.55,1.21,1.22-.54,1.22-1.21,1.22ZM30.7,19.77c-.25,0-.45.2-.45.45s.2.45.45.45.45-.2.45-.45-.2-.45-.45-.45Z"/><path d="M19.3,21.44c-.67,0-1.22-.55-1.22-1.22s.55-1.22,1.22-1.22,1.22.55,1.22,1.22-.55,1.22-1.22,1.22ZM19.3,19.77c-.25,0-.45.2-.45.45s.2.45.45.45.45-.2.45-.45-.2-.45-.45-.45Z"/></svg>