<?xml version="1.0" encoding="UTF-8"?><svg id="Capa_1" xmlns="http://www.w3.org/2000/svg" viewBox="0 0 50 50"><g id="_344_Computer_Internet_Lock_Security"><path d="M24.93,22.27c-1.11,0-1.94-.9-1.94-1.94s.9-1.94,1.94-1.94,1.93.9,1.93,1.94-.9,1.94-1.93,1.94ZM24.93,20.12c-.14,0-.21.07-.21.21s.07.21.21.21.21-.07.21-.21-.07-.21-.21-.21Z"/><path d="M24.93,26.9c-3.59,0-6.5-2.9-6.5-6.5v-4.77c0-.48.41-.9.9-.9h11.27c.48,0,.9.41.9.9v4.77c-.07,3.59-3.04,6.5-6.57,6.5ZM20.16,16.53v3.87c0,2.63,2.14,4.77,4.77,4.77s4.77-2.14,4.77-4.77v-3.87h-9.54Z"/><path d="M24.93,23.37c-.48,0-.9-.41-.9-.9v-1.11c0-.48.41-.9.9-.9s.9.41.9.9v1.11c-.07.48-.41.9-.9.9Z"/><path d="M31.22,45.14h-13.27c-.28,0-.55-.14-.69-.35-.14-.21-.21-.48-.14-.76l2.49-8.29c.14-.35.41-.62.83-.62h8.29c.41,0,.69.28.83.62l2.49,8.29c.07.28,0,.55-.14.76-.14.21-.41.35-.69.35ZM19.13,43.42h10.92l-1.93-6.57h-7.05l-1.94,6.57Z"/><path d="M25.48,32.77c0,.48-.41.9-.9.9s-.9-.41-.9-.9.41-.9.9-.9.9.41.9.9Z"/><path d="M35.37,45.14H13.8c-.48,0-.9-.41-.9-.9s.41-.9.9-.9h21.56c.48,0,.9.41.9.9-.07.48-.41.9-.9.9Z"/><path d="M12.15,31.04h-5.81c-.48,0-.9-.41-.9-.9s.41-.9.9-.9h5.81c.48,0,.83.41.83.9s-.35.9-.83.9Z"/><path d="M43.66,31.04h-26.54c-.48,0-.9-.41-.9-.9s.41-.9.9-.9h26.54c.48,0,.9.41.9.9s-.41.9-.9.9Z"/><path d="M40.07,31.04c-.48,0-.9-.41-.9-.9V12.31h-9.95c.35.69.55,1.45.55,2.28v1.11c0,.48-.41.9-.9.9h-7.95c-.48,0-.9-.41-.9-.9v-1.11c0-.83.21-1.59.55-2.28h-9.88v17.9c0,.48-.41.9-.9.9s-.9-.41-.9-.9V11.49c0-.48.41-.9.9-.9h12.65c.35,0,.69.21.83.55.14.35,0,.76-.28.97-.76.62-1.17,1.52-1.17,2.49v.21h6.29v-.21c0-.97-.41-1.87-1.17-2.49-.28-.21-.41-.62-.28-.97.14-.35.41-.55.83-.55h12.65c.48,0,.9.41.9.9v18.73c-.14.48-.55.83-.97.83Z"/><path d="M28.94,16.53h-8.02c-.48,0-.9-.41-.9-.9v-1.11c0-1.52.69-2.9,1.87-3.8.9-.69,1.93-1.04,3.04-1.04s2.14.35,3.04,1.04h0c1.17.9,1.87,2.35,1.87,3.8v1.11c-.07.55-.41.9-.9.9ZM21.75,14.8h6.29v-.21c0-.97-.41-1.87-1.17-2.49h0c-.55-.41-1.24-.69-1.93-.69s-1.38.21-1.94.69c-.76.62-1.17,1.52-1.17,2.49v.21h-.07Z"/><path d="M41.59,36.85H8.41c-1.59,0-2.9-1.31-2.9-2.9V9.9c0-1.59,1.31-2.9,2.9-2.9h33.17c1.59,0,2.9,1.31,2.9,2.9v24.05c0,1.59-1.31,2.9-2.9,2.9ZM8.41,8.65c-.62,0-1.17.55-1.17,1.18v24.05c0,.62.55,1.17,1.17,1.17h33.17c.62,0,1.17-.55,1.17-1.17V9.9c0-.62-.55-1.17-1.17-1.17H8.41v-.07Z"/></g></svg>