<?xml version="1.0" encoding="UTF-8"?><svg id="Capa_1" xmlns="http://www.w3.org/2000/svg" viewBox="0 0 50 50"><path d="M24.35,46.93c-.22,0-.44,0-.66-.02-.22-.01-.39-.2-.38-.42.01-.22.2-.4.42-.38,3.77.21,8.05-1.5,8.05-5.54,0-.26-.03-.53-.08-.8-.04-.2.08-.39.27-.45.08-.03.17-.06.25-.09.21-.08.44.03.51.24.07.19-.02.4-.19.49.03.21.04.41.04.61,0,4.36-4.27,6.35-8.24,6.35ZM21.61,46.6s-.07,0-.1-.01c-3.38-.86-5.39-3.11-5.39-6,0-.25.02-.51.06-.77-.97-.45-1.91-1.07-2.79-1.84-.17-.14-.18-.4-.04-.56.15-.17.4-.18.56-.04.91.79,1.88,1.41,2.88,1.84.18.07.27.26.23.45-.07.32-.1.62-.1.92,0,3.61,3.35,4.86,4.79,5.23.21.05.34.27.29.49-.05.18-.21.3-.39.3ZM34.29,39.11c-.14,0-.27-.07-.34-.2-.11-.19-.05-.43.14-.55,3.21-1.92,5.21-5.43,5.21-9.17,0-.41-.03-.83-.08-1.29-.01-.1.02-.21.08-.29.11-.14.22-.29.32-.44.12-.18.37-.23.56-.1.18.12.23.37.1.56-.08.12-.16.23-.25.35.04.43.07.83.07,1.22,0,4.02-2.15,7.79-5.6,9.85-.06.04-.13.06-.2.06ZM12.15,36.55c-.11,0-.23-.05-.3-.14-2.07-2.44-3.36-5.51-3.36-8.01,0-.31.02-.62.06-.92-.58-.91-1.05-1.85-1.4-2.81-.08-.21.03-.44.24-.51.21-.07.44.03.51.24.34.95.81,1.88,1.4,2.77.05.08.08.18.06.28-.05.3-.07.61-.07.94,0,2.32,1.22,5.19,3.17,7.49.14.17.12.42-.05.56-.08.06-.17.1-.26.1ZM40.97,25.94c-.05,0-.11-.01-.16-.03-.2-.09-.3-.32-.21-.53.58-1.34.87-2.76.87-4.23,0-2.7-1.01-5.28-2.84-7.25-.15-.16-.14-.41.02-.56.16-.15.41-.14.56.02,1.97,2.13,3.06,4.9,3.06,7.8,0,1.58-.31,3.11-.94,4.54-.06.15-.21.24-.37.24ZM6.97,22.89c-.19,0-.36-.14-.39-.33-.1-.58-.15-1.15-.15-1.7,0-3.95,1.99-7.58,5.33-9.69.19-.12.43-.06.55.12.12.19.06.43-.12.55-3.11,1.97-4.96,5.34-4.96,9.02,0,.5.05,1.03.14,1.56.04.22-.11.42-.33.46-.02,0-.05,0-.07,0ZM37.34,12.61c-.08,0-.16-.02-.24-.08-1-.73-2.11-1.28-3.29-1.63-.1-.03-.18-.09-.23-.18-1.48-2.55-3.88-4.32-6.75-4.99-.21-.05-.35-.26-.3-.48.05-.22.27-.35.48-.3,3.03.71,5.58,2.56,7.18,5.23,1.22.37,2.35.95,3.39,1.7.18.13.22.38.09.56-.08.11-.2.16-.32.16ZM13.87,10.93c-.16,0-.31-.1-.37-.25-.08-.21.02-.44.23-.52.33-.13.68-.25,1.02-.34,2.2-3.37,6.02-5.34,10.09-5.16.22,0,.39.2.38.42,0,.22-.21.4-.42.38-3.84-.16-7.43,1.71-9.47,4.92-.05.08-.14.15-.23.17-.37.1-.73.22-1.09.36-.05.02-.1.03-.15.03Z"/><path d="M24.35,46.93c-.22,0-.4-.18-.4-.4v-12.79c0-.22.18-.4.4-.4s.4.18.4.4v12.79c0,.22-.18.4-.4.4ZM24.35,32.01c-.22,0-.4-.18-.4-.4v-12.79c0-.22.18-.4.4-.4s.4.18.4.4v12.79c0,.22-.18.4-.4.4ZM24.35,17.1c-.22,0-.4-.18-.4-.4V5.05c0-.22.18-.4.4-.4s.4.18.4.4v11.65c0,.22-.18.4-.4.4Z"/><path d="M17.49,14.91c-.1,0-.2-.04-.28-.12-.16-.16-.16-.41,0-.56l1.67-1.68c.07-.08.18-.12.28-.12h5.19c.22,0,.4.18.4.4s-.18.4-.4.4h-5.02l-1.56,1.56c-.08.08-.18.12-.28.12Z"/><path d="M24.35,20.97h-3.89c-.22,0-.4-.18-.4-.4s.18-.4.4-.4h3.89c.22,0,.4.18.4.4s-.18.4-.4.4Z"/><path d="M24.35,28.74h-5.19c-.11,0-.21-.04-.28-.12l-4.22-4.23c-.16-.16-.16-.41,0-.56.16-.16.41-.16.57,0l4.11,4.11h5.02c.22,0,.4.18.4.4s-.18.4-.4.4Z"/><path d="M24.35,33.93h-1.3c-.22,0-.4-.18-.4-.4s.18-.4.4-.4h1.3c.22,0,.4.18.4.4s-.18.4-.4.4Z"/><path d="M24.35,41.74h-2.59c-.11,0-.21-.04-.28-.12l-1.68-1.67c-.16-.16-.16-.41,0-.56.16-.16.41-.16.56,0l1.56,1.56h2.43c.22,0,.4.18.4.4s-.18.4-.4.4Z"/><path d="M29.53,39.12h-5.19c-.22,0-.4-.18-.4-.4s.18-.4.4-.4h5.02l1.56-1.56c.16-.16.41-.16.56,0,.16.16.16.41,0,.56l-1.68,1.68c-.07.07-.18.12-.28.12Z"/><path d="M28.24,31.38h-3.89c-.22,0-.4-.18-.4-.4s.18-.4.4-.4h3.89c.22,0,.4.18.4.4s-.18.4-.4.4Z"/><path d="M33.8,27.87c-.1,0-.2-.04-.28-.12l-4.15-4.15h-5.02c-.22,0-.4-.18-.4-.4s.18-.4.4-.4h5.19c.11,0,.21.04.28.12l4.27,4.27c.16.16.16.41,0,.57-.08.08-.18.12-.28.12Z"/><path d="M25.64,18.42h-1.3c-.22,0-.4-.18-.4-.4s.18-.4.4-.4h1.3c.22,0,.4.18.4.4s-.18.4-.4.4Z"/><path d="M28.62,12.27c-.1,0-.2-.04-.28-.12l-1.56-1.56h-2.43c-.22,0-.4-.18-.4-.4s.18-.4.4-.4h2.59c.11,0,.21.04.28.12l1.68,1.68c.16.16.16.41,0,.57-.08.08-.18.12-.28.12Z"/><path d="M32.13,37.82c-.94,0-1.7-.76-1.7-1.7s.76-1.7,1.7-1.7,1.7.76,1.7,1.7-.76,1.7-1.7,1.7ZM32.13,35.23c-.49,0-.9.4-.9.9s.4.9.9.9.9-.4.9-.9-.4-.9-.9-.9Z"/><path d="M29.53,32.67c-.93,0-1.7-.76-1.7-1.7s.76-1.7,1.7-1.7,1.7.76,1.7,1.7-.76,1.7-1.7,1.7ZM29.53,30.08c-.49,0-.9.4-.9.9s.4.9.9.9.9-.4.9-.9-.4-.9-.9-.9Z"/><path d="M34.72,30.08c-.94,0-1.7-.76-1.7-1.7s.76-1.7,1.7-1.7,1.7.76,1.7,1.7-.76,1.7-1.7,1.7ZM34.72,27.49c-.49,0-.9.4-.9.9s.4.9.9.9.9-.4.9-.9-.4-.9-.9-.9Z"/><path d="M26.94,19.72c-.93,0-1.7-.76-1.7-1.7s.76-1.7,1.7-1.7,1.7.76,1.7,1.7-.76,1.7-1.7,1.7ZM26.94,17.12c-.49,0-.9.4-.9.9s.4.9.9.9.9-.4.9-.9-.4-.9-.9-.9Z"/><path d="M29.53,14.49c-.93,0-1.7-.76-1.7-1.7s.76-1.7,1.7-1.7,1.7.76,1.7,1.7-.76,1.7-1.7,1.7ZM29.53,11.9c-.49,0-.9.4-.9.9s.4.9.9.9.9-.4.9-.9-.4-.9-.9-.9Z"/><path d="M19.16,40.45c-.93,0-1.69-.76-1.69-1.7s.76-1.7,1.69-1.7,1.7.76,1.7,1.7-.76,1.7-1.7,1.7ZM19.16,37.86c-.49,0-.89.4-.89.9s.4.9.89.9.9-.4.9-.9-.4-.9-.9-.9Z"/><path d="M21.75,35.23c-.93,0-1.7-.76-1.7-1.69s.76-1.7,1.7-1.7,1.7.76,1.7,1.7-.76,1.69-1.7,1.69ZM21.75,32.63c-.49,0-.9.4-.9.9s.4.9.9.9.9-.4.9-.9-.4-.9-.9-.9Z"/><path d="M14.02,24.9c-.94,0-1.7-.76-1.7-1.7s.76-1.7,1.7-1.7,1.7.76,1.7,1.7-.76,1.7-1.7,1.7ZM14.02,22.3c-.5,0-.9.4-.9.9s.4.9.9.9.9-.4.9-.9-.4-.9-.9-.9Z"/><path d="M19.16,22.3c-.93,0-1.69-.76-1.69-1.7s.76-1.69,1.69-1.69,1.7.76,1.7,1.69-.76,1.7-1.7,1.7ZM19.16,19.72c-.49,0-.89.4-.89.89s.4.9.89.9.9-.39.9-.9-.4-.89-.9-.89Z"/><path d="M16.57,17.12c-.94,0-1.7-.76-1.7-1.69s.76-1.7,1.7-1.7,1.7.76,1.7,1.7-.76,1.69-1.7,1.69ZM16.57,14.53c-.49,0-.9.4-.9.9s.4.89.9.89.9-.4.9-.89-.4-.9-.9-.9Z"/><path d="M32.13,23.6h-2.59c-.22,0-.4-.18-.4-.4s.18-.4.4-.4h2.43l1.56-1.56c.16-.16.41-.16.56,0,.16.16.16.41,0,.56l-1.68,1.68c-.07.07-.18.12-.28.12Z"/><path d="M34.72,22.3c-.94,0-1.7-.76-1.7-1.7s.76-1.69,1.7-1.69,1.7.76,1.7,1.69-.76,1.7-1.7,1.7ZM34.72,19.72c-.49,0-.9.4-.9.89s.39.9.9.9.9-.4.9-.9-.4-.89-.9-.89Z"/><path d="M14.9,30.42c-.1,0-.2-.04-.28-.12-.16-.16-.16-.41,0-.57l1.68-1.68c.07-.07.18-.12.28-.12h2.59c.22,0,.4.18.4.4s-.18.4-.4.4h-2.42l-1.56,1.56c-.08.08-.18.12-.28.12Z"/><path d="M13.98,32.63c-.94,0-1.7-.76-1.7-1.7s.76-1.7,1.7-1.7,1.7.76,1.7,1.7-.76,1.7-1.7,1.7ZM13.98,30.04c-.5,0-.9.4-.9.9s.4.9.9.9.9-.4.9-.9-.4-.9-.9-.9Z"/></svg>