<?xml version="1.0" encoding="UTF-8"?><svg id="Capa_1" xmlns="http://www.w3.org/2000/svg" viewBox="0 0 50 50"><defs><style>.cls-1{fill:none;stroke:#000;stroke-miterlimit:10;}</style></defs><path class="cls-1" d="M33.31,44.47l-7.5-7.5s0,0-.01,0v-9.77h.11c.5,0,.9-.4.9-.9s-.4-.9-.9-.9h-.11v-5.88h4.29c.17,0,.33-.08.44-.22.1-.13.14-.31.09-.48,0-.02-.01-.04-.02-.05l-1.71-3.52,3.52,1.71s.04.02.06.02c.05.01.09.02.14.02.12,0,.24-.04.33-.11.13-.1.22-.27.22-.44V5.72c0-.17-.08-.33-.22-.44-.13-.1-.32-.14-.48-.09-.02,0-.04.01-.05.02l-3.49,1.68,1.68-3.49s.02-.03.02-.05c.04-.16,0-.34-.09-.48-.1-.14-.27-.22-.44-.22h-10.73c-.17,0-.33.08-.44.22-.1.13-.14.31-.09.48,0,.02.01.04.02.06l1.74,3.55-3.55-1.74s-.04-.02-.05-.02c-.16-.04-.34,0-.48.09-.13.1-.22.27-.22.44v10.73c0,.17.08.33.22.44.13.1.31.14.48.09.02,0,.04-.01.05-.02l3.48-1.66-1.66,3.48s-.02.04-.02.05c-.04.16,0,.34.09.48.1.13.27.22.44.22h4.29v5.88h-.11c-.5,0-.9.4-.9.9s.4.9.9.9h.11v9.77s0,0-.01,0l-7.5,7.5c-.42.42-.42,1.1,0,1.52.42.42,1.1.42,1.52,0l5.99-6v6.29c0,.59.48,1.08,1.07,1.08s1.08-.48,1.08-1.08v-6.29l5.99,5.99c.42.42,1.1.42,1.52,0,.42-.42.42-1.1,0-1.52Z"/><path class="cls-1" d="M28.45,11.17c0-1.91-1.55-3.45-3.45-3.45s-3.45,1.55-3.45,3.45,1.55,3.45,3.45,3.45,3.45-1.55,3.45-3.45Z"/><path class="cls-1" d="M27.14,9.58c0-.52-.42-.94-.94-.94s-.94.42-.94.94.42.94.94.94.94-.42.94-.94Z"/></svg>