<?xml version="1.0" encoding="UTF-8"?><svg id="Capa_1" xmlns="http://www.w3.org/2000/svg" viewBox="0 0 50 50"><path d="M25.35,4.25c.09.09.23.16.28.28.09.21.11,1.67.06,1.94-.13.66-1.26.66-1.39,0-.05-.26-.03-1.73.06-1.94.05-.12.19-.19.28-.28h.7Z"/><path d="M24.89,8.45c.35-.05.73.24,1.04.4,4.49,2.37,8.8,5.38,13.29,7.77l.32.81v16.02s-.14.56-.14.56l-14.03,8.6c-.22.12-.45.14-.68.03l-14.09-8.63-.14-.56v-16.02s.19-.68.19-.68l14.24-8.31ZM37.27,17.14l-12.31-7.05-12.24,7.09,4.56,2.81,7.25-4.24.68-.09,7.57,4.33,4.41-2.64.09-.21ZM31.27,20.8l-6.3-3.57-6.23,3.7,6.3,3.77,6.24-3.9ZM24.3,40.64v-5.35c-2.09-1.39-4.32-2.57-6.43-3.92-.39-.25-1.26-.66-1.32-1.12v-8.87s-4.61-2.85-4.61-2.85v14.67l12.36,7.44ZM25.7,40.64l12.36-7.44v-14.67l-4.6,2.85v8.87c-.07.46-.94.87-1.33,1.12-2.11,1.35-4.34,2.53-6.43,3.92v5.35ZM24.3,33.5v-7.44l-6.35-3.87v7.44l.44.34,5.91,3.53ZM32.05,22.19l-6.35,3.87v7.44l5.91-3.53.44-.34v-7.44Z"/><path d="M6.57,14.73c.45-.49,1.62.21,2.06.54.68.52.36,1.48-.56,1.34-.27-.04-1.49-.78-1.6-1.01-.15-.28-.12-.64.1-.88Z"/><path d="M43.43,14.73c.22.24.25.6.1.88-.12.22-1.34.97-1.6,1.01-.91.14-1.24-.82-.56-1.34.44-.33,1.61-1.03,2.06-.54Z"/><path d="M6.57,36.43c-.22-.24-.25-.6-.1-.88.11-.2,1.3-.94,1.53-.99.93-.19,1.35.77.63,1.32-.44.33-1.61,1.03-2.06.54Z"/><path d="M43.43,36.43c-.45.49-1.62-.21-2.06-.54-.72-.55-.3-1.52.63-1.32.23.05,1.43.79,1.53.99.15.28.12.64-.1.88Z"/><path d="M24.71,44.23c.37-.11.9.04.98.46.05.26.04,1.55-.02,1.81-.14.64-1.26.65-1.37-.07-.05-.31-.05-1.69.08-1.91.04-.07.25-.26.33-.28Z"/><path d="M25.05,26.21c.38,0,.69.31.69.68s-.31.68-.69.68-.69-.31-.69-.68.31-.68.69-.68Z"/></svg>