<?xml version="1.0" encoding="UTF-8"?><svg id="Capa_1" xmlns="http://www.w3.org/2000/svg" viewBox="0 0 50 50"><g id="_504_Graduation_Cap_Education_Geography_Globe"><path d="M20.74,9.47c.07.22.37.36.59.22l4.7-2.04,7.34,3.13c.22.07.51,0,.59-.22.07-.22,0-.51-.22-.58l-7.49-3.27c-.15-.07-.22-.07-.37,0l-4.92,2.18c-.22.07-.29.36-.22.58Z"/><path d="M36.24,41.54c2.35-2.47,3.82-5.82,3.82-9.53h0c0-4.73-2.35-9.02-6.24-11.56h.66c.22,0,.44-.22.44-.44v-5.6l5.44-2.33v5.24c-.95.22-1.62,1.02-1.62,1.96v2.47c0,.22.22.44.44.44h3.23c.22,0,.44-.22.44-.44v-2.47c0-.95-.66-1.82-1.62-1.96,0-6.4,0-5.96,0-6.04s0-.15-.07-.15h0l-.07-.07-.07-.07c-.07,0,.66.29-14.91-6.4-.15-.07-.22-.07-.37,0l-14.84,6.4c-.15.07-.29.22-.29.44,0,.15.07.36.29.44l6.1,2.62v5.6c0,.22.22.44.44.44h.66c-3.82,2.55-6.24,6.84-6.24,11.56,0,7.64,6.32,13.89,14.03,13.89,3.97,0,7.57-1.6,10.14-4.29h.07l.15-.15ZM32.78,38.34c.51-1.82.81-3.85.81-5.89h5.58c-.07,3.13-1.32,5.96-3.3,8.15-.95-.87-1.98-1.67-3.08-2.25ZM16.26,40.59c-1.98-2.18-3.23-5.02-3.3-8.15h5.58c0,2.11.29,4.07.81,5.89-1.18.58-2.2,1.38-3.08,2.25ZM23.02,20.45h2.57v5.96c-1.84-.07-3.6-.51-5.21-1.24.66-1.96,1.54-3.64,2.64-4.73ZM29.04,20.45c1.1,1.09,1.98,2.76,2.64,4.73-1.62.73-3.38,1.16-5.21,1.24v-5.96h2.57ZM26.54,27.28c1.91-.07,3.75-.51,5.44-1.31.44,1.67.73,3.56.73,5.53h-6.17v-4.22ZM25.59,27.28v4.22h-6.17c0-1.96.29-3.85.73-5.53,1.69.8,3.53,1.24,5.44,1.31ZM19.42,32.45h6.17v4.22c-1.91.07-3.75.51-5.44,1.31-.44-1.75-.73-3.56-.73-5.53ZM26.54,32.45h6.17c0,1.96-.29,3.78-.73,5.53-1.69-.8-3.53-1.24-5.44-1.24v-4.29ZM39.17,31.5h-5.51c0-2.11-.29-4.15-.81-5.89,1.1-.58,2.13-1.38,3.08-2.25,1.91,2.18,3.08,5.09,3.23,8.15ZM35.21,22.7c-.81.8-1.76,1.45-2.72,2.04-.51-1.75-1.25-3.2-2.2-4.29h1.76c1.18.58,2.28,1.38,3.16,2.25ZM42.04,19.28v2.04h-2.28v-2.04c0-.65.51-1.16,1.18-1.16s1.1.51,1.1,1.16ZM26.03,5.39l13.73,5.89c-1.4.58-12.34,5.31-13.73,5.89-1.4-.58-12.27-5.31-13.73-5.89l13.73-5.89ZM18.02,14.77l7.86,3.35c.15.07.22.07.37,0l7.86-3.35v4.8h-16.01v-4.8h-.07ZM21.84,20.45c-.88,1.16-1.69,2.62-2.2,4.29-.95-.58-1.91-1.24-2.72-2.04.95-.87,1.98-1.67,3.16-2.25h1.76ZM16.26,23.36c.95.87,1.98,1.67,3.08,2.25-.51,1.82-.81,3.78-.81,5.89h-5.51c0-3.05,1.18-5.96,3.23-8.15ZM16.85,41.25c.81-.8,1.76-1.45,2.72-2.04.66,1.89,1.69,4,3.23,5.31-2.28-.51-4.26-1.67-5.95-3.27ZM21.4,41.25c-.37-.73-.73-1.6-1.03-2.47,1.62-.73,3.38-1.16,5.21-1.24v7.35c-1.54-.15-3.01-1.45-4.19-3.64ZM26.54,44.96v-7.42c1.84.07,3.6.51,5.21,1.24-.29.87-.66,1.75-1.03,2.47-1.18,2.18-2.64,3.49-4.19,3.71ZM32.49,39.21c.95.58,1.91,1.24,2.72,2.04-1.62,1.6-3.67,2.76-5.95,3.35,1.62-1.38,2.64-3.42,3.23-5.38Z"/></g></svg>