<?xml version="1.0" encoding="UTF-8"?><svg id="Capa_1" xmlns="http://www.w3.org/2000/svg" viewBox="0 0 50 50"><path d="M36.86,30.01c-.15-.15-.46-.15-.69,0l-.77.76-1.31-1.29c1.38-1.82,2.31-4.03,2.69-6.31h2.61c.23,0,.46-.23.46-.46v-7.6c0-.23-.23-.46-.46-.46h-3.77c-2.31-5.09-7.53-8.66-13.6-8.66s-11.3,3.57-13.6,8.66h-3.61c-.23,0-.46.23-.46.46v7.6c0,.23.23.46.46.46h2.46c1.23,7.14,7.46,12.31,14.76,12.31,3.07,0,6.15-.91,8.84-2.81l1.31,1.29-.77.76c-.15.15-.15.46,0,.68l7.99,7.9c.69.68,1.61,1.06,2.54,1.06s1.84-.38,2.54-1.06l.31-.3c1.38-1.37,1.38-3.65,0-5.01l-7.92-7.98ZM22.11,6.91c5.53,0,10.3,3.19,12.53,7.75h-5.38c-3.77-4.41-10.61-4.41-14.37,0h-5.38c2.31-4.56,7.07-7.75,12.6-7.75ZM28.03,14.66h-11.76c3.31-3.11,8.45-3.11,11.76,0ZM5.43,15.65h33.66v6.69H5.43v-6.69ZM30.25,23.25c-1.08,3.49-4.38,6-8.15,6s-7.07-2.51-8.15-6h16.29ZM31.33,31.76c-.15-.15-.46-.15-.62-.08-5.53,4.25-13.53,3.8-18.45-1.14-2.07-2.05-3.38-4.56-3.84-7.29h4.61c.54,1.9,1.61,3.57,3.23,4.86,3.46,2.74,8.38,2.81,11.91,0,1.54-1.22,2.69-2.96,3.23-4.86h4.61c-.38,2.2-1.31,4.25-2.69,6-.15.15-.15.46.08.61l1.54,1.52-2.08,1.9-1.54-1.52ZM44.24,42.32l-.31.3c-1,.99-2.69.99-3.77,0l-7.69-7.6,4.07-4.03,7.69,7.6c1,1.06,1,2.66,0,3.72Z"/><path d="M31.56,19.45c.38,0,.69.31.69.68s-.31.68-.69.68-.69-.31-.69-.68.31-.68.69-.68Z"/><path d="M14.04,18.92l1,1.67c.08.15.23.23.38.23.23,0,.38-.15.46-.3l1-2.35c.08-.23,0-.53-.23-.61-.23-.08-.54,0-.61.23l-.61,1.52c-.38-.61-.92-1.52-.92-1.6-.23-.3-.62-.3-.77,0-.08.08-.69,1.14-.92,1.6l-.62-1.52c-.08-.23-.38-.38-.61-.23-.23.08-.38.38-.23.61l1,2.35c.08.15.23.3.46.3.15,0,.31-.08.38-.23l.85-1.67Z"/><path d="M18.88,20.59c.08.15.23.3.38.3s.38-.08.46-.23l1-1.67,1,1.67c.08.15.23.23.46.23.15,0,.31-.15.38-.3l1-2.36c.08-.23,0-.53-.23-.61-.23-.08-.54,0-.61.23l-.61,1.52c-1-1.6-.92-1.6-1-1.67-.23-.23-.54-.15-.77.08-.08.08-.69,1.14-.92,1.6l-.62-1.52c-.08-.23-.38-.38-.61-.23-.23.08-.38.38-.23.61l.92,2.36Z"/><path d="M25.57,20.59c.08.15.23.3.46.3.15,0,.31-.08.38-.23l1-1.67,1,1.67c.08.15.23.23.46.23.15,0,.31-.15.38-.3l1-2.36c.08-.23,0-.53-.23-.61-.23-.08-.54,0-.62.23l-.61,1.52c-.38-.61-.92-1.52-.92-1.6-.23-.3-.62-.3-.77,0-.08.08-.69,1.14-.92,1.6l-.62-1.52c-.08-.23-.38-.38-.61-.23-.23.08-.38.38-.23.61l.85,2.36Z"/><path d="M42.01,38.75c-1,0-1.77.76-1.77,1.75s.77,1.75,1.77,1.75,1.77-.76,1.77-1.75-.77-1.75-1.77-1.75ZM42.01,41.25c-.46,0-.85-.38-.85-.84s.38-.84.85-.84c.23,0,.38.08.54.23h0c.15.15.23.38.23.53.08.53-.31.91-.77.91Z"/><path d="M36.56,33.28l-1.77,1.82c-.15.15-.15.46,0,.68.15.15.46.15.69,0l1.84-1.82c.15-.15.15-.46,0-.68-.23-.23-.54-.23-.77,0Z"/><path d="M19.8,41.25c.23,0,.46-.23.46-.46s-.23-.46-.46-.46h-10.53c-.23,0-.46.23-.46.46s.23.46.46.46h10.53Z"/><path d="M35.17,43.15H9.73c-.23,0-.46.23-.46.46s.23.46.46.46h25.44c.23,0,.46-.23.46-.46s-.23-.46-.46-.46Z"/><path d="M6.58,42.7c.38,0,.69.31.69.68s-.31.68-.69.68-.69-.31-.69-.68.31-.68.69-.68Z"/></svg>