<?xml version="1.0" encoding="UTF-8"?><svg id="Capa_1" xmlns="http://www.w3.org/2000/svg" viewBox="0 0 50 50"><g id="_239_Clapboard_clapper_clapperboard_film_flap"><path d="M41.06,19.26h-24.45l24.33-5.57c.49-.12.92-.42,1.16-.85.06-.06.06-.12.06-.12.18-.36.18-.73.12-1.15l-.92-3.93c-.24-.97-1.16-1.51-2.14-1.33l-30.81,7.08c-.98.24-1.53,1.15-1.34,2.12l.92,3.93c.06.18.12.36.24.54-.24.3-.43.73-.43,1.21v19.67c0,1.03.86,1.88,1.9,1.88h31.36c1.04,0,1.9-.85,1.9-1.88v-19.67c0-1.09-.86-1.94-1.9-1.94ZM29.08,25.32l5.75-4.54h5.38l-5.87,4.54h-5.26ZM21.44,25.32l5.75-4.54h5.2l-5.75,4.54h-5.2ZM13.8,25.32l5.75-4.54h5.2l-5.75,4.54h-5.2ZM9.34,25.32v-4.12c0-.18.18-.36.37-.36h7.34l-5.75,4.54h-1.96v-.06ZM41.43,21.75v3.57h-4.65l4.65-3.57ZM17.96,12.79l6.6,3.15-5.07,1.15-6.6-3.15,5.07-1.15ZM25.35,11.09l6.66,3.15-5.07,1.15-6.6-3.15,5.01-1.15ZM32.81,9.4l6.79,3.09-5.26,1.21-6.6-3.15,5.07-1.15ZM39.6,7.82c.12,0,.24.06.24.18l.73,3.21-5.32-2.42c4.52-1.03,4.28-.97,4.34-.97ZM8.73,14.85l1.71-.36,6.6,3.15c-7.76,1.76-7.34,1.69-7.4,1.69-.12,0-.24-.06-.24-.18l-.86-3.99c0-.12.06-.24.18-.3ZM13.13,41.24v-7.57h24.45v7.57H13.13ZM41.06,41.24h-1.9v-8.35c0-.42-.37-.79-.79-.79H12.39c-.43,0-.79.36-.79.79v8.35h-1.9c-.18,0-.37-.18-.37-.36v-14.04h32.09v13.98c0,.24-.18.42-.37.42Z"/><path d="M33,35.18h-15.28c-.43,0-.79.36-.79.79v3.03c0,.42.37.79.79.79h15.28c.43,0,.79-.36.79-.79v-3.03c0-.48-.37-.79-.79-.79ZM18.51,36.7h3.55v1.51h-3.55v-1.51h0ZM23.58,36.7h3.55v1.51h-3.55v-1.51h0ZM32.26,38.21h-3.55v-1.51h3.55v1.51Z"/><path d="M19.24,29.13h-6.11c-.43,0-.79.36-.79.79s.37.79.79.79h6.11c.43,0,.79-.36.79-.79s-.37-.79-.79-.79Z"/></g></svg>