<?xml version="1.0" encoding="UTF-8"?><svg id="Capa_1" xmlns="http://www.w3.org/2000/svg" viewBox="0 0 50 50"><path d="M42.55,35.09h-12.98c-.22,0-.41-.18-.41-.41s.18-.41.41-.41h12.98c.22,0,.41.18.41.41s-.18.41-.41.41ZM27.4,35.09h-12.98c-.22,0-.41-.18-.41-.41s.18-.41.41-.41h12.98c.22,0,.41.18.41.41s-.18.41-.41.41ZM12.26,35.09h-4.61c-.22,0-.41-.18-.41-.41v-8.37c0-.22.18-.41.41-.41s.41.18.41.41v7.97h4.2c.22,0,.41.18.41.41s-.18.41-.41.41ZM44.15,34.53c-.22,0-.41-.18-.41-.41v-12.98c0-.22.18-.41.41-.41s.41.18.41.41v12.98c0,.22-.18.41-.41.41ZM7.65,24.55c-.22,0-.41-.18-.41-.41v-12.74c0-.1,0-.2.02-.29.03-.22.23-.38.45-.35.22.03.38.23.35.45,0,.06-.01.12-.01.19v12.74c0,.22-.18.41-.41.41ZM44.15,19.38c-.22,0-.41-.18-.41-.41v-7.57c0-.8-.65-1.46-1.46-1.46h-2.48c-.22,0-.41-.18-.41-.41s.18-.41.41-.41h2.48c1.25,0,2.27,1.02,2.27,2.27v7.57c0,.22-.18.41-.41.41ZM9,10.02c-.18,0-.34-.12-.39-.29-.06-.22.06-.44.28-.5.2-.06.41-.09.63-.09h12.98c.22,0,.41.18.41.41s-.18.41-.41.41h-12.98c-.14,0-.27.02-.4.06-.04.01-.08.02-.11.02ZM37.64,9.95h-12.98c-.22,0-.41-.18-.41-.41s.18-.41.41-.41h12.98c.22,0,.41.18.41.41s-.18.41-.41.41Z"/><path d="M45.59,40.86h-9.09c-.22,0-.41-.18-.41-.41s.18-.41.41-.41h9.09c.52,0,.95-.42.95-.95v-1.76c0-.22.18-.41.41-.41s.41.18.41.41v1.76c0,.97-.79,1.76-1.76,1.76ZM34.34,40.86h-12.98c-.22,0-.41-.18-.41-.41s.18-.41.41-.41h12.98c.22,0,.41.18.41.41s-.18.41-.41.41ZM19.19,40.86H6.21c-.97,0-1.76-.79-1.76-1.76v-.41c0-.22.18-.41.41-.41s.41.18.41.41v.41c0,.52.42.95.95.95h12.98c.22,0,.41.18.41.41s-.18.41-.41.41ZM4.86,36.94c-.22,0-.41-.18-.41-.41v-.5c0-.97.79-1.75,1.76-1.75h10.36c.22,0,.41.18.41.41s-.18.41-.41.41H6.21c-.52,0-.95.42-.95.94v.5c0,.22-.18.41-.41.41ZM46.68,35.64c-.12,0-.25-.06-.33-.16-.18-.24-.46-.39-.76-.39h-11.72c-.22,0-.41-.18-.41-.41s.18-.41.41-.41h11.72c.55,0,1.08.27,1.41.71.13.18.1.43-.08.57-.07.05-.16.08-.24.08ZM31.71,35.09h-12.98c-.22,0-.41-.18-.41-.41s.18-.41.41-.41h12.98c.22,0,.41.18.41.41s-.18.41-.41.41Z"/><path d="M30.99,40.86h-10.18c-.22,0-.41-.18-.41-.41v-3.59c0-.22.18-.41.41-.41h8.81c.22,0,.41.18.41.41s-.18.41-.41.41h-8.41v2.78h9.37v-2.39c0-.22.18-.41.41-.41s.41.18.41.41v2.8c0,.22-.18.41-.41.41Z"/><path d="M41.85,35.09h-3.56c-.22,0-.41-.18-.41-.41s.18-.41.41-.41h3.16v-9.01c0-.22.18-.41.41-.41s.41.18.41.41v9.42c0,.22-.18.41-.41.41ZM36.13,35.09h-12.98c-.22,0-.41-.18-.41-.41s.18-.41.41-.41h12.98c.22,0,.41.18.41.41s-.18.41-.41.41ZM20.98,35.09h-11.03c-.22,0-.41-.18-.41-.41v-1.95c0-.22.18-.41.41-.41s.41.18.41.41v1.54h10.63c.22,0,.41.18.41.41s-.18.41-.41.41ZM9.95,30.98c-.22,0-.41-.18-.41-.41v-12.98c0-.22.18-.41.41-.41s.41.18.41.41v12.98c0,.22-.18.41-.41.41ZM41.85,23.51c-.22,0-.41-.18-.41-.41v-10.96h-1.21c-.22,0-.41-.18-.41-.41s.18-.41.41-.41h1.61c.22,0,.41.18.41.41v11.37c0,.22-.18.41-.41.41ZM9.95,15.83c-.22,0-.41-.18-.41-.41v-3.69c0-.22.18-.41.41-.41h12.98c.22,0,.41.18.41.41s-.18.41-.41.41h-12.57v3.29c0,.22-.18.41-.41.41ZM38.08,12.14h-12.98c-.22,0-.41-.18-.41-.41s.18-.41.41-.41h12.98c.22,0,.41.18.41.41s-.18.41-.41.41Z"/><path d="M13.62,19.62c-.22,0-.41-.18-.41-.41v-3.34c0-.22.18-.41.41-.41s.41.18.41.41v3.34c0,.22-.18.41-.41.41Z"/><path d="M16.9,19.6c-1.13,0-2.05-.92-2.05-2.05s.92-2.05,2.05-2.05,2.05.92,2.05,2.05-.92,2.05-2.05,2.05ZM16.9,16.31c-.68,0-1.24.55-1.24,1.24s.56,1.24,1.24,1.24,1.24-.56,1.24-1.24-.55-1.24-1.24-1.24Z"/><path d="M20.16,19.62c-.22,0-.41-.18-.41-.41v-3.34c0-.22.18-.41.41-.41s.41.18.41.41v3.34c0,.22-.18.41-.41.41Z"/><path d="M23.45,19.6c-1.13,0-2.05-.92-2.05-2.05s.92-2.05,2.05-2.05,2.05.92,2.05,2.05-.92,2.05-2.05,2.05ZM23.45,16.31c-.68,0-1.24.55-1.24,1.24s.56,1.24,1.24,1.24,1.24-.56,1.24-1.24-.56-1.24-1.24-1.24Z"/><path d="M26.71,19.62c-.22,0-.41-.18-.41-.41v-3.34c0-.22.18-.41.41-.41s.41.18.41.41v3.34c0,.22-.18.41-.41.41Z"/><path d="M29.99,19.6c-1.13,0-2.05-.92-2.05-2.05s.92-2.05,2.05-2.05,2.05.92,2.05,2.05-.92,2.05-2.05,2.05ZM29.99,16.31c-.68,0-1.24.55-1.24,1.24s.56,1.24,1.24,1.24,1.24-.56,1.24-1.24-.56-1.24-1.24-1.24Z"/><path d="M33.26,19.62c-.22,0-.41-.18-.41-.41v-3.34c0-.22.18-.41.41-.41s.41.18.41.41v3.34c0,.22-.18.41-.41.41Z"/><path d="M36.54,19.6c-1.13,0-2.05-.92-2.05-2.05s.92-2.05,2.05-2.05,2.05.92,2.05,2.05-.92,2.05-2.05,2.05ZM36.54,16.31c-.68,0-1.24.55-1.24,1.24s.56,1.24,1.24,1.24,1.24-.56,1.24-1.24-.55-1.24-1.24-1.24Z"/><path d="M38.18,25.28c-.22,0-.41-.18-.41-.41v-3.33c0-.22.18-.41.41-.41s.41.18.41.41v3.33c0,.22-.18.41-.41.41Z"/><path d="M34.9,25.26c-1.13,0-2.05-.92-2.05-2.05s.92-2.05,2.05-2.05,2.05.92,2.05,2.05-.92,2.05-2.05,2.05ZM34.9,21.97c-.68,0-1.24.55-1.24,1.24s.55,1.24,1.24,1.24,1.24-.56,1.24-1.24-.56-1.24-1.24-1.24Z"/><path d="M31.64,25.28c-.22,0-.41-.18-.41-.41v-3.33c0-.22.18-.41.41-.41s.41.18.41.41v3.33c0,.22-.18.41-.41.41Z"/><path d="M28.36,25.26c-1.13,0-2.05-.92-2.05-2.05s.92-2.05,2.05-2.05,2.05.92,2.05,2.05-.92,2.05-2.05,2.05ZM28.36,21.97c-.68,0-1.24.55-1.24,1.24s.55,1.24,1.24,1.24,1.24-.56,1.24-1.24-.55-1.24-1.24-1.24Z"/><path d="M25.09,25.28c-.22,0-.41-.18-.41-.41v-3.33c0-.22.18-.41.41-.41s.41.18.41.41v3.33c0,.22-.18.41-.41.41Z"/><path d="M21.81,25.26c-1.13,0-2.05-.92-2.05-2.05s.92-2.05,2.05-2.05,2.05.92,2.05,2.05-.92,2.05-2.05,2.05ZM21.81,21.97c-.68,0-1.24.55-1.24,1.24s.56,1.24,1.24,1.24,1.24-.56,1.24-1.24-.56-1.24-1.24-1.24Z"/><path d="M18.54,25.28c-.22,0-.41-.18-.41-.41v-3.33c0-.22.18-.41.41-.41s.41.18.41.41v3.33c0,.22-.18.41-.41.41Z"/><path d="M15.27,25.26c-1.13,0-2.05-.92-2.05-2.05s.92-2.05,2.05-2.05,2.05.92,2.05,2.05-.92,2.05-2.05,2.05ZM15.27,21.97c-.68,0-1.24.55-1.24,1.24s.56,1.24,1.24,1.24,1.24-.56,1.24-1.24-.55-1.24-1.24-1.24Z"/><path d="M13.62,30.94c-.22,0-.41-.18-.41-.41v-3.33c0-.22.18-.41.41-.41s.41.18.41.41v3.33c0,.22-.18.41-.41.41Z"/><path d="M16.9,30.92c-1.13,0-2.05-.92-2.05-2.05s.92-2.05,2.05-2.05,2.05.92,2.05,2.05-.92,2.05-2.05,2.05ZM16.9,27.63c-.68,0-1.24.56-1.24,1.24s.56,1.24,1.24,1.24,1.24-.55,1.24-1.24-.55-1.24-1.24-1.24Z"/><path d="M20.16,30.94c-.22,0-.41-.18-.41-.41v-3.33c0-.22.18-.41.41-.41s.41.18.41.41v3.33c0,.22-.18.41-.41.41Z"/><path d="M23.45,30.92c-1.13,0-2.05-.92-2.05-2.05s.92-2.05,2.05-2.05,2.05.92,2.05,2.05-.92,2.05-2.05,2.05ZM23.45,27.63c-.68,0-1.24.56-1.24,1.24s.56,1.24,1.24,1.24,1.24-.55,1.24-1.24-.56-1.24-1.24-1.24Z"/><path d="M26.71,30.94c-.22,0-.41-.18-.41-.41v-3.33c0-.22.18-.41.41-.41s.41.18.41.41v3.33c0,.22-.18.41-.41.41Z"/><path d="M29.99,30.92c-1.13,0-2.05-.92-2.05-2.05s.92-2.05,2.05-2.05,2.05.92,2.05,2.05-.92,2.05-2.05,2.05ZM29.99,27.63c-.68,0-1.24.56-1.24,1.24s.56,1.24,1.24,1.24,1.24-.55,1.24-1.24-.56-1.24-1.24-1.24Z"/><path d="M33.26,30.94c-.22,0-.41-.18-.41-.41v-3.33c0-.22.18-.41.41-.41s.41.18.41.41v3.33c0,.22-.18.41-.41.41Z"/><path d="M36.54,30.92c-1.13,0-2.05-.92-2.05-2.05s.92-2.05,2.05-2.05,2.05.92,2.05,2.05-.92,2.05-2.05,2.05ZM36.54,27.63c-.68,0-1.24.56-1.24,1.24s.56,1.24,1.24,1.24,1.24-.55,1.24-1.24-.55-1.24-1.24-1.24Z"/><path d="M45.04,37.98h-9.17c-.22,0-.41-.18-.41-.41s.18-.41.41-.41h9.17c.22,0,.41.18.41.41s-.18.41-.41.41Z"/><path d="M15.94,37.98H6.77c-.22,0-.41-.18-.41-.41s.18-.41.41-.41h9.17c.22,0,.41.18.41.41s-.18.41-.41.41Z"/></svg>