<?xml version="1.0" encoding="UTF-8"?><svg id="Capa_1" xmlns="http://www.w3.org/2000/svg" viewBox="0 0 50 50"><g id="_235_Camera_cinema_film_film_camera"><path d="M34.94,19.26c-.53,0-.99.45-.99.98v6.53c0,1.58-1.29,2.85-2.88,2.85h-7.28c-.53,0-.99.45-.99.98s.46.98.99.98h7.28c2.58,0,4.78-2.1,4.78-4.73v-6.61c.08-.53-.38-.98-.91-.98Z"/><path d="M20.75,15.5c-1.06,0-1.9.83-1.9,1.88s.83,1.88,1.9,1.88,1.9-.83,1.9-1.88-.83-1.88-1.9-1.88Z"/><path d="M46.31,16.48h-3.79c-.53,0-.99.45-.99.98v.23l-1.9.45v-1.58c0-2.55-2.12-4.73-4.78-4.73v-2.55c0-1.95-1.59-3.53-3.56-3.53h-6.98c-.38-1.35-1.67-2.33-3.19-2.33H5.96c-1.82,0-3.34,1.5-3.34,3.3s1.52,3.3,3.34,3.3h15.17c1.52,0,2.81-.98,3.19-2.33h6.98c.91,0,1.67.75,1.67,1.65v2.4h-13.2c-2.58,0-4.78,2.1-4.78,4.73v8.94l-2.88-1.13c-.23-1.2-1.29-2.18-2.58-2.18h-4.17c-1.44,0-2.65,1.2-2.65,2.63v6.98c0,1.43,1.21,2.63,2.65,2.63h4.17c1.29,0,2.43-.9,2.58-2.18l2.88-1.13c.23,2.1,1.74,3.75,3.79,4.13v8.11c0,1.8,1.52,3.3,3.34,3.3s3.34-1.5,3.34-3.3v-2.33h10.47c.53,0,.99-.45.99-.98v-5.11c1.67-.75,2.88-2.4,2.88-4.28v-6.31l1.9.45v.23c0,.53.46.98.99.98h.15c.3,0,.68-.15.83-.45.38-.6,1.29-.6,1.67,0,.15.3.46.45.83.45h.23c.53,0,.99-.45.99-.98v-7.51c-.08-.6-.53-.98-1.06-.98ZM21.21,7.99H6.04c-.76,0-1.44-.6-1.44-1.43s.61-1.43,1.44-1.43h15.17c.76,0,1.44.6,1.44,1.43s-.68,1.43-1.44,1.43ZM10.29,31.65c0,.45-.3.75-.76.75h-4.17c-.46,0-.76-.3-.76-.75v-6.98c0-.45.3-.75.76-.75h4.17c.46,0,.76.3.76.75v6.98ZM12.18,26.24l2.88,1.13v1.58l-2.88,1.13v-3.83ZM23.56,43.21c0,.75-.61,1.43-1.44,1.43s-1.44-.6-1.44-1.43v-7.96h2.88v7.96ZM34.94,39.01h-9.48v-3.75h9.48v3.75ZM37.82,30.52c0,1.58-1.29,2.85-2.88,2.85h-15.17c-1.59,0-2.88-1.28-2.88-2.85v-14.12c0-1.58,1.29-2.85,2.88-2.85h15.17c1.59,0,2.88,1.28,2.88,2.85v14.12ZM39.71,22.26v-2.25l1.9-.45v3.23l-1.9-.53ZM45.4,23.16c-.61-.23-1.29-.23-1.9,0v-4.88h1.9v4.88Z"/><path d="M45.4,44.64h-16.16c-.53,0-.99.45-.99.98s.46.98.99.98h16.16c.53,0,.99-.45.99-.98-.08-.6-.46-.98-.99-.98Z"/><path d="M46.31,41.78h-8.49c-.53,0-.99.45-.99.98s.46.98.99.98h8.57c.53,0,.99-.45.99-.98-.08-.53-.53-.98-1.06-.98Z"/></g></svg>