<?xml version="1.0" encoding="UTF-8"?><svg id="Capa_1" xmlns="http://www.w3.org/2000/svg" viewBox="0 0 50 50"><defs><style>.cls-1{fill-rule:evenodd;stroke:#000;stroke-miterlimit:10;}</style></defs><path class="cls-1" d="M23.97,2.66h2.08c1.24,0,2.34.49,3.08,1.24.75.86,1.24,1.96,1.24,3.08v11.19c0,1.12-.49,2.1-1.24,2.96-.75.84-1.85,1.22-3.08,1.22h-2.08c-1.12,0-2.24-.37-3.08-1.22-.75-.86-1.24-1.85-1.24-2.96V6.98c0-1.12.49-2.22,1.24-3.08h0c.84-.75,1.96-1.24,3.08-1.24h0ZM21.5,33.93h0c-.26,0-.49-.26-.49-.63,0-.24.24-.49.49-.49h3.08v-6.03c-1.24,0-2.34-.26-3.46-.75-3.08-1.22-5.42-4.06-5.79-8.97,0-.26.14-.49.37-.49.25,0,.61.12.61.49.26,4.3,2.47,6.89,5.18,8.25,1.1.37,2.47.61,3.69.61,1.35-.12,2.59-.49,3.83-1.1,2.59-1.24,4.67-3.95,4.67-7.75,0-.26.26-.49.51-.49.24,0,.47.23.47.49,0,4.3-2.34,7.26-5.42,8.74-1.1.61-2.45.86-3.81.98v6.03h3.08c.24,0,.49.26.49.49,0,.37-.26.63-.49.63h-7.03ZM26.05,3.66h-2.08c-.88,0-1.73.24-2.47.98-.61.49-.86,1.36-.86,2.34v11.19c0,.86.26,1.73.86,2.22.75.61,1.59.98,2.47.98h2.08c.86,0,1.73-.37,2.47-.86.49-.61.73-1.47.73-2.34V6.98c0-.98-.24-1.85-.73-2.34-.75-.75-1.61-.98-2.47-.98h0Z"/><path class="cls-1" d="M23.84,41.78l-6.32-3.64v7.35l6.32-3.71ZM32.06,41.78h0l-6.39-3.64v7.35l6.39-3.71ZM25.67,37.16h0l7.24,4.16c.12.07.19.2.25.2.07.14.13.26.07.4,0,.06-.07.12-.13.26-.06,0-.12.06-.19.12l-7.24,4.17c-.07,0-.13.06-.2.06l-.06.06c-.07.06-.26,0-.39-.12-.06-.07-.06-.13-.13-.27h0v-4.03c-.06.06-.12.06-.12.12l-7.24,4.17c-.06,0-.12.06-.19.06l-.07.06c-.13.06-.32,0-.46-.12,0-.07,0-.13-.06-.27h0v-8.79c.06-.06.06-.12.06-.2,0-.12.2-.19.32-.19.07,0,.13,0,.21.06.06,0,.12,0,.19.06l7.24,4.16q.06.07.12.14v-4.04c.07-.06.07-.12.07-.2.12-.12.26-.19.38-.19,0,0,.07,0,.13.06q.12,0,.2.06h0Z"/></svg>