<?xml version="1.0" encoding="UTF-8"?><svg id="Capa_1" xmlns="http://www.w3.org/2000/svg" viewBox="0 0 50 50"><path d="M25,42.57c-.56,0-1.12-.19-1.58-.58-1.65-1.4-4.84-4.36-7.62-8.47-1.55-2.29-2.77-4.65-3.63-7-1.03-2.81-1.55-5.67-1.55-8.47,0-1.94.38-3.82,1.13-5.6.72-1.71,1.76-3.25,3.08-4.57,1.32-1.32,2.86-2.36,4.57-3.08,1.77-.75,3.66-1.13,5.6-1.13s3.82.38,5.6,1.13c1.71.72,3.25,1.76,4.57,3.08,1.32,1.32,2.36,2.86,3.08,4.57.75,1.77,1.13,3.66,1.13,5.6,0,2.81-.52,5.66-1.55,8.47-.86,2.35-2.08,4.71-3.63,7-2.78,4.1-5.97,7.07-7.62,8.47-.46.39-1.02.58-1.58.58ZM25,5.13c-1.74,0-3.43.34-5.03,1.01-1.54.65-2.92,1.58-4.1,2.77-1.19,1.19-2.12,2.57-2.77,4.1-.67,1.59-1.01,3.28-1.01,5.03,0,2.64.49,5.32,1.46,7.97.82,2.24,1.98,4.49,3.47,6.68,2.68,3.96,5.76,6.82,7.35,8.17.37.31.9.31,1.26,0,1.6-1.35,4.68-4.21,7.35-8.17,1.48-2.19,2.65-4.44,3.47-6.68.97-2.65,1.46-5.34,1.46-7.97,0-1.74-.34-3.43-1.01-5.03-.65-1.54-1.58-2.92-2.77-4.1-1.19-1.19-2.57-2.12-4.1-2.77-1.59-.67-3.28-1.01-5.03-1.01Z"/><path d="M25,27.52c-2.53,0-4.91-.99-6.7-2.78-1.79-1.79-2.78-4.17-2.78-6.7s.99-4.91,2.78-6.7,4.17-2.78,6.7-2.78,4.91.99,6.7,2.78c1.79,1.79,2.78,4.17,2.78,6.7s-.99,4.91-2.78,6.7c-1.79,1.79-4.17,2.78-6.7,2.78ZM25,10.03c-2.14,0-4.15.83-5.67,2.35-1.51,1.51-2.35,3.53-2.35,5.67s.83,4.15,2.35,5.67,3.53,2.35,5.67,2.35,4.15-.83,5.67-2.35,2.35-3.53,2.35-5.67-.83-4.15-2.35-5.67c-1.51-1.51-3.53-2.35-5.67-2.35Z"/><path d="M34.55,42.17c0,.82-.53,2-3.07,2.89-1.74.61-4.04.95-6.48.95s-4.74-.34-6.48-.95c-2.54-.9-3.07-2.07-3.07-2.89,0-1.04.84-1.77,1.55-2.19.57-.34,1.29-.64,2.13-.89.4.43.79.83,1.16,1.21-1.05.25-1.92.57-2.53.94-.54.32-.84.67-.84.94,0,.38.65,1,2.1,1.51,1.59.56,3.72.87,5.99.87s4.4-.31,5.99-.87c.72-.25,1.29-.55,1.66-.86.16-.13.43-.4.43-.65,0-.27-.31-.62-.84-.94-.62-.37-1.49-.7-2.53-.94.37-.37.76-.78,1.16-1.21.84.25,1.56.55,2.13.89.71.43,1.55,1.16,1.55,2.19Z"/></svg>