<?xml version="1.0" encoding="UTF-8"?><svg id="Capa_1" xmlns="http://www.w3.org/2000/svg" viewBox="0 0 50 50"><defs><style>.cls-1{fill:none;stroke:#000;stroke-miterlimit:10;}</style></defs><path class="cls-1" d="M45.1,36.56c.05.42.06,1.32,0,1.73-.57,4.22-5.23,6.62-9.06,5-2.2-.93-2.78-2.28-3.95-4.19-4.44-7.29-8.42-14.93-12.65-22.34-1.89-7.68,7.51-11.86,11.95-5.04,4.82,7.38,8.74,15.97,13.36,23.53.02.38.3,1.01.34,1.31Z"/><path class="cls-1" d="M6.18,38.3c-.06-.41-.05-1.32,0-1.73.03-.26.31-.82.29-1.18l10.67-18.93,1.26,2.06,6.26,11c-2.23,3.52-4.04,7.54-6.3,11.02-3.48,5.37-11.36,3.81-12.18-2.24Z"/></svg>