<svg width="45" height="50" viewBox="0 0 45 50" fill="none" xmlns="http://www.w3.org/2000/svg">
<path d="M1.7948e-07 46.0048V3.99524C-0.000212869 3.29247 0.18925 2.60209 0.549258 1.9938C0.909266 1.38551 1.42707 0.880856 2.0504 0.530789C2.67372 0.180722 3.38049 -0.00236266 4.09934 2.302e-05C4.81819 0.0024087 5.52367 0.190179 6.14454 0.544376L42.975 21.5531C43.5913 21.905 44.1025 22.4086 44.4578 23.0137C44.8131 23.6188 45 24.3043 45 25.002C45 25.6997 44.8131 26.3852 44.4578 26.9903C44.1025 27.5954 43.5913 28.099 42.975 28.4509L6.14454 49.4556C5.52367 49.8098 4.81819 49.9976 4.09934 50C3.38049 50.0024 2.67372 49.8193 2.0504 49.4692C1.42707 49.1191 0.909266 48.6145 0.549258 48.0062C0.18925 47.3979 -0.000212869 46.7075 1.7948e-07 46.0048Z" fill="#F2EFEB"/>
</svg>
