<svg width="43" height="50" viewBox="0 0 43 50" fill="none" xmlns="http://www.w3.org/2000/svg">
<path d="M7.16667 0C5.26595 0 3.44308 0.752549 2.09907 2.09209C0.755057 3.43164 0 5.24845 0 7.14286V42.8571C0 44.7515 0.755057 46.5684 2.09907 47.9079C3.44308 49.2474 5.26595 50 7.16667 50C9.06738 50 10.8903 49.2474 12.2343 47.9079C13.5783 46.5684 14.3333 44.7515 14.3333 42.8571V7.14286C14.3333 5.24845 13.5783 3.43164 12.2343 2.09209C10.8903 0.752549 9.06738 0 7.16667 0ZM35.8333 0C33.9326 0 32.1097 0.752549 30.7657 2.09209C29.4217 3.43164 28.6667 5.24845 28.6667 7.14286V42.8571C28.6667 44.7515 29.4217 46.5684 30.7657 47.9079C32.1097 49.2474 33.9326 50 35.8333 50C37.7341 50 39.5569 49.2474 40.9009 47.9079C42.2449 46.5684 43 44.7515 43 42.8571V7.14286C43 5.24845 42.2449 3.43164 40.9009 2.09209C39.5569 0.752549 37.7341 0 35.8333 0Z" fill="#F2EFEB"/>
</svg>
