<?xml version="1.0" encoding="UTF-8"?><svg id="Capa_1" xmlns="http://www.w3.org/2000/svg" viewBox="0 0 50 50"><defs><style>.cls-1{fill:none;stroke-miterlimit:10;}.cls-1,.cls-2{stroke:#000;stroke-width:.89px;}.cls-2{fill:#fff;stroke-linecap:round;stroke-linejoin:round;}</style></defs><path class="cls-1" d="M46.95,39.13c0-1.56-1.26-2.82-2.82-2.82H7.97c-1.56,0-2.82,1.26-2.82,2.82v1.7h41.81v-1.7Z"/><rect class="cls-1" x="8.08" y="14.81" width="35.93" height="21.5"/><path class="cls-1" d="M36.91,36.3c0,1.04-.84,1.89-1.89,1.89h-17.95c-1.04,0-1.89-.84-1.89-1.89h21.72Z"/><path class="cls-2" d="M17.29,16.51c0,3.36-2.72,6.08-6.08,6.08s-6.08-2.72-6.08-6.08,2.72-6.08,6.08-6.08,6.08,2.72,6.08,6.08Z"/><path class="cls-2" d="M10.97,16.25s.42-2.26,2.04-2.26c1.1,0,1.76.83,1.76,1.95,0,2.1-3.8,3.8-3.8,3.8,0,0-3.8-1.7-3.8-3.8,0-1.12.66-1.95,1.76-1.95,1.63,0,2.04,2.26,2.04,2.26Z"/><polyline class="cls-1" points="11.89 22.55 11.89 34.1 9.73 34.1 9.73 22.4"/><line class="cls-1" x1="17.26" y1="17.18" x2="44.01" y2="17.18"/><line class="cls-1" x1="37.94" y1="17.18" x2="37.94" y2="36.3"/><line class="cls-1" x1="37.94" y1="20.32" x2="44.01" y2="20.32"/><line class="cls-1" x1="37.94" y1="22.59" x2="44.01" y2="22.59"/><line class="cls-1" x1="37.94" y1="29.57" x2="44.01" y2="29.57"/><polyline class="cls-1" points="13.99 21.91 13.99 34.1 36.26 34.1 36.26 18.79 16.85 18.79"/><path class="cls-1" d="M25.12,25.9c0,1.51-1.23,2.74-2.74,2.74s-2.74-1.23-2.74-2.74"/><path class="cls-1" d="M25.12,25.9c0-1.51,1.23-2.74,2.74-2.74s2.74,1.23,2.74,2.74"/><polyline class="cls-1" points="24.76 27.28 25.81 30.2 23.7 30.2 24.76 27.28"/><rect class="cls-1" x="24.35" y="30.2" width=".86" height="1.59"/></svg>