<?xml version="1.0" encoding="UTF-8"?><svg id="Capa_1" xmlns="http://www.w3.org/2000/svg" viewBox="0 0 50 50"><path d="M37.27,40.81h-9.32c-.21,0-.37-.17-.37-.37s.17-.37.37-.37h9.32c.74,0,1.41-.44,1.71-1.12.08-.19.3-.27.49-.19.19.08.27.3.19.49-.42.95-1.36,1.57-2.4,1.57ZM25.97,40.81h-11.92c-.21,0-.37-.17-.37-.37s.17-.37.37-.37h11.92c.21,0,.37.17.37.37s-.17.37-.37.37ZM12.07,40.81h-.37c-1.44,0-2.62-1.18-2.62-2.62v-8.01c0-.21.17-.37.37-.37s.37.17.37.37v8.01c0,1.03.84,1.88,1.87,1.88h.37c.21,0,.37.17.37.37s-.17.37-.37.37ZM39.52,37.5c-.21,0-.37-.17-.37-.37v-11.92c0-.21.17-.37.37-.37s.37.17.37.37v11.92c0,.21-.17.37-.37.37ZM9.45,28.56c-.21,0-.37-.17-.37-.37v-11.92c0-.21.17-.37.37-.37s.37.17.37.37v11.92c0,.21-.17.37-.37.37ZM39.52,23.6c-.21,0-.37-.17-.37-.37v-10.62c0-.36-.11-.72-.31-1.02-.11-.17-.07-.4.11-.52.17-.11.4-.06.52.11.28.43.43.92.43,1.43v10.62c0,.21-.17.37-.37.37ZM9.45,14.66c-.21,0-.37-.17-.37-.37v-1.68c0-1.44,1.17-2.62,2.62-2.62h11.92c.21,0,.37.17.37.37s-.17.37-.37.37h-11.92c-1.03,0-1.87.84-1.87,1.87v1.68c0,.21-.17.37-.37.37ZM37.51,10.75s-.03,0-.04,0c-.07,0-.13-.01-.2-.01h-11.68c-.21,0-.37-.17-.37-.37s.17-.37.37-.37h11.68c.09,0,.19,0,.28.01.2.02.35.2.33.41-.02.19-.18.33-.37.33Z"/><path d="M35.67,36.95h-8.89c-.21,0-.37-.17-.37-.37s.17-.37.37-.37h8.52v-2.66c0-.21.17-.37.37-.37s.37.17.37.37v3.03c0,.21-.17.37-.37.37ZM24.79,36.95h-11.5c-.21,0-.37-.17-.37-.37v-.42c0-.21.17-.37.37-.37s.37.17.37.37v.05h11.12c.21,0,.37.17.37.37s-.17.37-.37.37ZM13.3,34.55c-.21,0-.37-.17-.37-.37v-11.92c0-.21.17-.37.37-.37s.37.17.37.37v11.92c0,.21-.17.37-.37.37ZM35.67,31.94c-.21,0-.37-.17-.37-.37v-11.92c0-.21.17-.37.37-.37s.37.17.37.37v11.92c0,.21-.17.37-.37.37ZM13.3,20.64c-.21,0-.37-.17-.37-.37v-6.06c0-.21.17-.37.37-.37h11.92c.21,0,.37.17.37.37s-.17.37-.37.37h-11.55v5.69c0,.21-.17.37-.37.37ZM35.67,18.03c-.21,0-.37-.17-.37-.37v-3.08h-8.09c-.21,0-.37-.17-.37-.37s.17-.37.37-.37h8.47c.21,0,.37.17.37.37v3.45c0,.21-.17.37-.37.37Z"/><path d="M11.69,10.73c-.21,0-.37-.17-.37-.37v-4.28c0-.21.17-.37.37-.37s.37.17.37.37v4.28c0,.21-.17.37-.37.37Z"/><path d="M43.8,12.98h-4.28c-.21,0-.37-.17-.37-.37s.17-.37.37-.37h4.28c.21,0,.37.17.37.37s-.17.37-.37.37Z"/><path d="M37.27,45.09c-.21,0-.37-.17-.37-.37v-4.28c0-.21.17-.37.37-.37s.37.17.37.37v4.28c0,.21-.17.37-.37.37Z"/><path d="M14.89,10.73c-.21,0-.37-.17-.37-.37v-4.28c0-.21.17-.37.37-.37s.37.17.37.37v4.28c0,.21-.17.37-.37.37Z"/><path d="M43.8,16.18h-4.28c-.21,0-.37-.17-.37-.37s.17-.37.37-.37h4.28c.21,0,.37.17.37.37s-.17.37-.37.37Z"/><path d="M34.08,45.09c-.21,0-.37-.17-.37-.37v-4.28c0-.21.17-.37.37-.37s.37.17.37.37v4.28c0,.21-.17.37-.37.37Z"/><path d="M18.09,10.73c-.21,0-.37-.17-.37-.37v-4.28c0-.21.17-.37.37-.37s.37.17.37.37v4.28c0,.21-.17.37-.37.37Z"/><path d="M43.8,19.38h-4.28c-.21,0-.37-.17-.37-.37s.17-.37.37-.37h4.28c.21,0,.37.17.37.37s-.17.37-.37.37Z"/><path d="M30.88,45.09c-.21,0-.37-.17-.37-.37v-4.28c0-.21.17-.37.37-.37s.37.17.37.37v4.28c0,.21-.17.37-.37.37Z"/><path d="M21.28,10.73c-.21,0-.37-.17-.37-.37v-4.28c0-.21.17-.37.37-.37s.37.17.37.37v4.28c0,.21-.17.37-.37.37Z"/><path d="M43.8,22.57h-4.28c-.21,0-.37-.17-.37-.37s.17-.37.37-.37h4.28c.21,0,.37.17.37.37s-.17.37-.37.37Z"/><path d="M27.68,45.09c-.21,0-.37-.17-.37-.37v-4.28c0-.21.17-.37.37-.37s.37.17.37.37v4.28c0,.21-.17.37-.37.37Z"/><path d="M24.48,10.73c-.21,0-.37-.17-.37-.37v-4.28c0-.21.17-.37.37-.37s.37.17.37.37v4.28c0,.21-.17.37-.37.37Z"/><path d="M43.8,25.77h-4.28c-.21,0-.37-.17-.37-.37s.17-.37.37-.37h4.28c.21,0,.37.17.37.37s-.17.37-.37.37Z"/><path d="M24.48,45.09c-.21,0-.37-.17-.37-.37v-4.28c0-.21.17-.37.37-.37s.37.17.37.37v4.28c0,.21-.17.37-.37.37Z"/><path d="M27.68,10.73c-.21,0-.37-.17-.37-.37v-4.28c0-.21.17-.37.37-.37s.37.17.37.37v4.28c0,.21-.17.37-.37.37Z"/><path d="M43.8,28.97h-4.28c-.21,0-.37-.17-.37-.37s.17-.37.37-.37h4.28c.21,0,.37.17.37.37s-.17.37-.37.37Z"/><path d="M21.28,45.09c-.21,0-.37-.17-.37-.37v-4.28c0-.21.17-.37.37-.37s.37.17.37.37v4.28c0,.21-.17.37-.37.37Z"/><path d="M30.88,10.73c-.21,0-.37-.17-.37-.37v-4.28c0-.21.17-.37.37-.37s.37.17.37.37v4.28c0,.21-.17.37-.37.37Z"/><path d="M43.8,32.17h-4.28c-.21,0-.37-.17-.37-.37s.17-.37.37-.37h4.28c.21,0,.37.17.37.37s-.17.37-.37.37Z"/><path d="M18.09,45.09c-.21,0-.37-.17-.37-.37v-4.28c0-.21.17-.37.37-.37s.37.17.37.37v4.28c0,.21-.17.37-.37.37Z"/><path d="M34.08,10.73c-.21,0-.37-.17-.37-.37v-4.28c0-.21.17-.37.37-.37s.37.17.37.37v4.28c0,.21-.17.37-.37.37Z"/><path d="M43.8,35.36h-4.28c-.21,0-.37-.17-.37-.37s.17-.37.37-.37h4.28c.21,0,.37.17.37.37s-.17.37-.37.37Z"/><path d="M14.89,45.09c-.21,0-.37-.17-.37-.37v-4.28c0-.21.17-.37.37-.37s.37.17.37.37v4.28c0,.21-.17.37-.37.37Z"/><path d="M37.27,10.73c-.21,0-.37-.17-.37-.37v-4.28c0-.21.17-.37.37-.37s.37.17.37.37v4.28c0,.21-.17.37-.37.37Z"/><path d="M43.8,38.56h-4.28c-.21,0-.37-.17-.37-.37s.17-.37.37-.37h4.28c.21,0,.37.17.37.37s-.17.37-.37.37Z"/><path d="M11.69,45.09c-.21,0-.37-.17-.37-.37v-4.28c0-.21.17-.37.37-.37s.37.17.37.37v4.28c0,.21-.17.37-.37.37Z"/><path d="M9.45,38.56h-4.28c-.21,0-.37-.17-.37-.37s.17-.37.37-.37h4.28c.21,0,.37.17.37.37s-.17.37-.37.37Z"/><path d="M9.45,35.36h-4.28c-.21,0-.37-.17-.37-.37s.17-.37.37-.37h4.28c.21,0,.37.17.37.37s-.17.37-.37.37Z"/><path d="M9.45,32.17h-4.28c-.21,0-.37-.17-.37-.37s.17-.37.37-.37h4.28c.21,0,.37.17.37.37s-.17.37-.37.37Z"/><path d="M9.45,28.97h-4.28c-.21,0-.37-.17-.37-.37s.17-.37.37-.37h4.28c.21,0,.37.17.37.37s-.17.37-.37.37Z"/><path d="M9.45,25.77h-4.28c-.21,0-.37-.17-.37-.37s.17-.37.37-.37h4.28c.21,0,.37.17.37.37s-.17.37-.37.37Z"/><path d="M9.45,22.57h-4.28c-.21,0-.37-.17-.37-.37s.17-.37.37-.37h4.28c.21,0,.37.17.37.37s-.17.37-.37.37Z"/><path d="M9.45,19.38h-4.28c-.21,0-.37-.17-.37-.37s.17-.37.37-.37h4.28c.21,0,.37.17.37.37s-.17.37-.37.37Z"/><path d="M9.45,16.18h-4.28c-.21,0-.37-.17-.37-.37s.17-.37.37-.37h4.28c.21,0,.37.17.37.37s-.17.37-.37.37Z"/><path d="M9.45,12.98h-4.28c-.21,0-.37-.17-.37-.37s.17-.37.37-.37h4.28c.21,0,.37.17.37.37s-.17.37-.37.37Z"/><path d="M31.76,17.96c-.21,0-.37-.17-.37-.37v-3.37c0-.21.17-.37.37-.37s.37.17.37.37v3.37c0,.21-.17.37-.37.37Z"/><path d="M24.48,20.26c-.21,0-.37-.17-.37-.37v-5.67c0-.21.17-.37.37-.37s.37.17.37.37v5.67c0,.21-.17.37-.37.37Z"/><path d="M21.28,36.95c-.21,0-.37-.17-.37-.37v-6.37c0-.21.17-.37.37-.37s.37.17.37.37v6.37c0,.21-.17.37-.37.37Z"/><path d="M27.68,36.95c-.21,0-.37-.17-.37-.37v-6.37c0-.21.17-.37.37-.37s.37.17.37.37v6.37c0,.21-.17.37-.37.37Z"/><path d="M14.89,36.95c-.21,0-.37-.17-.37-.37v-7.22c0-.06.02-.12.04-.18l1.99-3.72c.1-.18.32-.25.5-.15.18.1.25.32.15.5l-1.95,3.63v7.13c0,.21-.17.37-.37.37Z"/><path d="M34.08,36.95c-.21,0-.37-.17-.37-.37v-7.13l-1.95-3.63c-.1-.18-.03-.41.15-.5.18-.1.41-.03.5.15l2,3.72c.03.05.04.11.04.18v7.22c0,.21-.17.37-.37.37Z"/><path d="M24.48,23.36c-1.06,0-1.93-.86-1.93-1.92s.86-1.93,1.93-1.93,1.92.86,1.92,1.93-.86,1.92-1.92,1.92ZM24.48,20.26c-.65,0-1.18.53-1.18,1.18s.53,1.18,1.18,1.18,1.18-.53,1.18-1.18-.53-1.18-1.18-1.18Z"/><path d="M17.2,21.06c-1.06,0-1.93-.86-1.93-1.92s.86-1.92,1.93-1.92,1.92.86,1.92,1.92-.86,1.92-1.92,1.92ZM17.2,17.96c-.65,0-1.18.53-1.18,1.18s.53,1.18,1.18,1.18,1.18-.53,1.18-1.18-.53-1.18-1.18-1.18Z"/><path d="M31.76,21.06c-1.06,0-1.92-.86-1.92-1.92s.86-1.92,1.92-1.92,1.93.86,1.93,1.92-.86,1.92-1.93,1.92ZM31.76,17.96c-.65,0-1.18.53-1.18,1.18s.53,1.18,1.18,1.18,1.18-.53,1.18-1.18-.53-1.18-1.18-1.18Z"/><path d="M27.68,30.59c-1.06,0-1.92-.86-1.92-1.92s.86-1.93,1.92-1.93,1.93.86,1.93,1.93-.86,1.92-1.93,1.92ZM27.68,27.48c-.65,0-1.18.53-1.18,1.18s.53,1.18,1.18,1.18,1.18-.53,1.18-1.18-.53-1.18-1.18-1.18Z"/><path d="M17.62,26.2c-1.06,0-1.93-.86-1.93-1.92s.86-1.93,1.93-1.93,1.92.86,1.92,1.93-.86,1.92-1.92,1.92ZM17.62,23.09c-.65,0-1.18.53-1.18,1.18s.53,1.18,1.18,1.18,1.18-.53,1.18-1.18-.53-1.18-1.18-1.18Z"/><path d="M31.34,26.2c-1.06,0-1.92-.86-1.92-1.92s.86-1.93,1.92-1.93,1.93.86,1.93,1.93-.86,1.92-1.93,1.92ZM31.34,23.09c-.65,0-1.18.53-1.18,1.18s.53,1.18,1.18,1.18,1.18-.53,1.18-1.18-.53-1.18-1.18-1.18Z"/><path d="M21.28,30.59c-1.06,0-1.93-.86-1.93-1.92s.86-1.93,1.93-1.93,1.92.86,1.92,1.93-.86,1.92-1.92,1.92ZM21.28,27.48c-.65,0-1.18.53-1.18,1.18s.53,1.18,1.18,1.18,1.18-.53,1.18-1.18-.53-1.18-1.18-1.18Z"/><path d="M17.2,17.96c-.21,0-.37-.17-.37-.37v-3.37c0-.21.17-.37.37-.37s.37.17.37.37v3.37c0,.21-.17.37-.37.37Z"/></svg>