<svg width="12" height="13" viewBox="0 0 12 13" fill="none" xmlns="http://www.w3.org/2000/svg">
<path d="M11.7051 6.43033L10.5384 4.97199C10.4841 4.90324 10.415 4.84762 10.3362 4.80924C10.2574 4.77087 10.171 4.75073 10.0834 4.75033H6.58342V1.25033C6.58342 1.09562 6.52196 0.947243 6.41256 0.837847C6.30317 0.72845 6.15479 0.666992 6.00008 0.666992C5.84537 0.666992 5.697 0.72845 5.5876 0.837847C5.47821 0.947243 5.41675 1.09562 5.41675 1.25033V1.83366H1.91675C1.82913 1.83406 1.74273 1.8542 1.66396 1.89258C1.58519 1.93095 1.51607 1.98658 1.46175 2.05533L0.295083 3.51366C0.213702 3.61664 0.169434 3.74407 0.169434 3.87533C0.169434 4.00658 0.213702 4.13401 0.295083 4.23699L1.46175 5.69533C1.51607 5.76407 1.58519 5.8197 1.66396 5.85808C1.74273 5.89645 1.82913 5.91659 1.91675 5.91699H5.41675V11.167H4.25008C4.09537 11.167 3.947 11.2284 3.8376 11.3378C3.72821 11.4472 3.66675 11.5956 3.66675 11.7503C3.66675 11.905 3.72821 12.0534 3.8376 12.1628C3.947 12.2722 4.09537 12.3337 4.25008 12.3337H7.75008C7.90479 12.3337 8.05317 12.2722 8.16256 12.1628C8.27196 12.0534 8.33342 11.905 8.33342 11.7503C8.33342 11.5956 8.27196 11.4472 8.16256 11.3378C8.05317 11.2284 7.90479 11.167 7.75008 11.167H6.58342V8.83366H10.0834C10.171 8.83325 10.2574 8.81312 10.3362 8.77474C10.415 8.73637 10.4841 8.68074 10.5384 8.61199L11.7051 7.15366C11.7865 7.05067 11.8307 6.92325 11.8307 6.79199C11.8307 6.66073 11.7865 6.53331 11.7051 6.43033ZM5.41675 4.75033H2.19675L1.49675 3.87533L2.19675 3.00033H5.41675V4.75033ZM9.80342 7.66699H6.58342V5.91699H9.80342L10.5034 6.79199L9.80342 7.66699Z" fill="#FFFFF8"/>
</svg>
