<?xml version="1.0" encoding="UTF-8"?><svg id="Capa_1" xmlns="http://www.w3.org/2000/svg" viewBox="0 0 50 50"><path d="M36.98,35.37c-.75,1.54-1.44,3.13-2.27,4.63-.11.2.02.42-.36.36-.31.02-.35-.23-.48-.42-.5-.7-1.95-4.41-2.41-4.57-2.45-.29-5.47.29-7.85-.02-.53-.07-.79-.23-.8-.8.34-4.36-.42-9.32,0-13.61.09-.94.44-1.08,1.34-1.16,6.44-.57,13.7.45,20.23,0,.9-.04,1.56.62,1.52,1.52-.3,4.1.37,8.68,0,12.72-.07.73-.19,1.23-.98,1.34-1.23.17-7.51-.25-7.94.02ZM36.68,34.63h8.23l.27-.27v-13.41l-.27-.27h-21.37v13.95h9.93c.19,0,.34.51.27.71-.15.14-1.41-.28-1.25.26s1.17,2.35,1.52,2.96c.11.18,0,.45.35.35.24-.06,1.7-3.95,2.33-4.29Z"/><path d="M19.96,14.24l-.55-.08-.14-.22c.22-2.58-.06-6.16-3.51-5.97-1.33.07-3.14,1.61-3.14,2.96v4.02h7.78c.51,0,1.18,1.1,1.13,1.66-.21,2.1-3.08,1.35-3.34,1.58-.06.05-.05.46-.16.64-1.09,1.89-3.89,1.38-4.45-.67-2.73.59-4.63-2.05-1.66-3.33.1-2.33-.56-4.73,1.33-6.5.29-.27,1.11-.68,1.15-.73.07-.1-.59-1.44.48-2.28s2.68-.13,2.85,1.22c.05.38-.22.76-.02,1.08.12.2.88.51,1.17.81.24.25,1.07,1.71,1.07,1.97v3.85ZM16.92,7.26c.44-2.13-2.48-1.93-1.8-.08l1.8.08ZM11.64,17.28h8.58c.57,0,.57-1.61,0-1.61h-8.41c-.65,0-.88,1.41-.18,1.61ZM17.46,18.17h-2.86c.17,1.51,2.54,1.42,2.86,0Z"/><path d="M34.62,41.07c.09,1.73.21,3.28-1.89,3.56-4.75-.36-10.36.54-15.01.02-1.45-.16-2.28-1.01-2.05-2.51h.71c-.08.73.02,1.39.81,1.61h15.91c1.23-.35.63-1.56.89-2.5l.63-.17Z"/><path d="M13.47,33.77c.99-.2,1.8.11,2.46.84,2.22-2.3,5.71.31,3.82,3.11-.31.45-3.39,3.54-3.72,3.63-.19.08-.25-.1-.37-.19-.46-.35-3.75-3.7-3.86-4.03-.43-1.38.14-3.05,1.66-3.37ZM13.84,34.48c-1.12.16-1.64,1.26-1.31,2.3.13.39,3.31,3.6,3.56,3.55,1.01-1.25,4.9-3.65,2.97-5.43-1.5-1.39-2.69.62-3.09.59-.66-.06-.86-1.2-2.13-1.01Z"/><path d="M41.42,11.55l-.18,1.61h1.42c.02-2.07,1.29-2.19.72,0l1.61.18-.08.54-1.69.19-.2,1.23c2.4-.18,1.93.99-.17.73,0,1.99-1.17,2.65-.8.16-1.92-.88-.91,1.07-1.98,1.61-.6-.47-.02-1.17-.09-1.79-2.39.18-1.95-.97.16-.74l.2-1.23c-.09-.09-1.76.26-1.61-.45.42-.66,1.11-.4,1.77-.47l.29-1.41.62-.18ZM42.49,14.06h-1.43s-.18,1.25-.18,1.25h1.43s.18-1.25.18-1.25Z"/><path d="M34.63,19.07h-.72v-7.42c0-.16-.96-.8-1.16-.8h-12.07l.08-.55,11.99-.17c.57-.15,1.88.91,1.88,1.34v7.6Z"/><path d="M7.61,28.9c.51-2.37,4.03-1.84,4.13.45.02.39-1.16,3.93-1.4,4.33-.09.16-.13.33-.34.39-.29.09-3.68-1.12-4.12-1.38-2.48-1.44-.82-4.77,1.73-3.79ZM9.76,33.19c.07-1.29,2.09-3.9.64-4.84-1.16-.75-2.05.35-2.42,1.37-1.76-1.07-3.62,1.06-1.89,2.22.31.21,3.52,1.38,3.66,1.25Z"/><path d="M35.88,17.46v-5.45c0-1-1.36-2.95-2.41-2.95h-8.32v-.72h8.5c.08,0,1.07.46,1.22.57.8.52,1.54,1.66,1.68,2.61s.2,4.63.04,5.5c-.08.44-.29.5-.72.45Z"/><path d="M15.67,33.55v-12.61l.27-.27.44.27v12.34c0,.19-.51.34-.72.27Z"/><path d="M22.46,11.56c.07.3.15.75.48.86s4.35.08,4.54-.05c.27-.19.11-1.03.89-.81.03.85.19,1.44-.82,1.6-.85.13-3.96.13-4.81,0-.75-.12-1.28-.84-.82-1.52l.54-.08Z"/><path d="M6.41,23.31c.14.17.46.16.66.24v.51c-.71-.18-.76,1.02-1.15.91-.23-.06-.2-.54-.32-.66-.13-.14-.7-.14-.84-.5.14-.36.71-.36.84-.5.12-.12.1-.6.32-.66.41-.11.37.53.49.67Z"/><path d="M21.88,7.3c.1-.03.21-.06.32-.03,1.06.27-1.35,1.66-1.6,1.61-1.15-.23.95-1.49,1.29-1.58Z"/><path d="M9.61,7.96c-.14-.25.04-.72.39-.67.35.17,1.82.88,1.73,1.31-.17.58-2.07-.54-2.12-.64Z"/><path d="M18.89,7.08c-.36-.33,1.08-1.95,1.25-.98.06.36-.87,1.33-1.25.98Z"/><path d="M11.91,5.83c.52-.27,1.62,1.12.98,1.25-.58.12-1.14-.73-.98-1.25Z"/><path d="M32.66,31.76l-.63-.18c.01-3.47-4.98-4.47-6.05-1.22-.05.16-.28,2.3-.93,1.22-.41-.67,1.11-3.61,2.24-3.58v-.26c-2.2-2.03.09-5.28,2.75-4.01,1.66.79,1.61,2.93.47,4.18,1.34.92,2.42,2.1,2.15,3.85ZM28.31,24.29c-1.66.38-1.47,3.1.37,3.33,2.47.31,2.71-4.03-.37-3.33Z"/><path d="M37.98,25.36c.44-.04,1.21.28,1.39.68s.16,2.59.01,3.05c-.33,1.02-2.42,1.12-2.61-.45-.13-1.12-.26-3.13,1.21-3.27ZM38.11,26.11c-.93,0-.77,2.49-.37,2.81,1.36,1.1,1.39-2.81.37-2.81Z"/><path d="M40.89,25.59c.82-.78.76.62.72,1.16,1.65-2.33,2.21-1.29.59.63l1.37,2.14c-.93.93-1.26-1.18-1.97-1.52v1.79s-.72,0-.72,0v-4.2Z"/><path d="M35.52,29.8h-.72v-3.22l-1.07.18c-.11-.78.82-1.05,1.37-1.41l.42.25v4.2Z"/></svg>