<?xml version="1.0" encoding="UTF-8"?><svg id="Capa_1" xmlns="http://www.w3.org/2000/svg" viewBox="0 0 50 50"><g id="_519_Knowledge_Learning_Mobile_Smartphone_Study"><path d="M26.05,40.21c-1.13,0-2.01.88-2.01,1.99s.88,1.99,2.01,1.99,2.01-.88,2.01-1.99-.88-1.99-2.01-1.99ZM26.05,43.16c-.56,0-1.05-.48-1.05-1.04s.48-1.04,1.05-1.04,1.05.48,1.05,1.04-.48,1.04-1.05,1.04Z"/><path d="M27.57,6.84h-3.06c-.24,0-.48.24-.48.48s.24.48.48.48h3.06c.24,0,.48-.24.48-.48s-.24-.48-.48-.48Z"/><path d="M33.53,3.82h-14.96c-2.49,0-4.58,1.99-4.58,4.54v33.29c0,2.47,2.01,4.54,4.58,4.54h14.96c2.49,0,4.58-1.99,4.58-4.54V8.36c0-2.47-2.09-4.54-4.58-4.54ZM17.52,10.35h3.06v8.04l-1.13-1.35c-.16-.24-.56-.24-.8,0l-1.13,1.27v-7.96h0ZM16.8,20.22c.24.08.4,0,.56-.16l1.61-1.99,1.61,1.99c.08.16.24.16.4.16.24,0,.48-.24.48-.48v-9.48h15.52v3.98h-9.97c-.24,0-.48.24-.48.48s.24.48.48.48h10.05v1.04h-10.05c-.24,0-.48.24-.48.48s.24.48.48.48h10.05v1.04h-10.05c-.24,0-.48.24-.48.48s.24.48.48.48h10.05v18.95H15.03V10.27h1.53v9.48c-.08.24.08.4.24.48ZM33.53,45.15h-14.96c-1.93,0-3.54-1.59-3.54-3.5v-2.47h22.12v2.47c-.08,1.91-1.69,3.5-3.62,3.5ZM37.06,9.31H14.95v-.96c0-1.91,1.61-3.5,3.54-3.5h14.96c1.93,0,3.54,1.59,3.54,3.5v.96h.08Z"/><path d="M21.62,34.24h8.85c1.13,0,2.09-.96,2.09-2.07v-6.29c0-1.11-.97-2.07-2.09-2.07h-8.85c-1.13,0-2.09.96-2.09,2.07v6.29c-.08,1.11.88,2.07,2.09,2.07ZM20.5,25.88c0-.64.48-1.11,1.13-1.11h8.85c.64,0,1.13.48,1.13,1.11v6.29c0,.64-.48,1.11-1.13,1.11h-8.85c-.64,0-1.13-.48-1.13-1.11v-6.29Z"/><path d="M25.16,31.13l3.14-1.75c.32-.16.32-.64,0-.88l-3.14-1.75c-.32-.16-.72.08-.72.4v3.58c0,.4.4.64.72.4ZM25.4,28.03l1.61.88-1.61.88v-1.75Z"/></g></svg>