<svg width="31" height="30" viewBox="0 0 31 30" fill="none" xmlns="http://www.w3.org/2000/svg">
<g clip-path="url(#clip0_415_2251)">
<path d="M9.15918 1.5H4.65918C3.86353 1.5 3.10047 1.81607 2.53786 2.37868C1.97525 2.94129 1.65918 3.70435 1.65918 4.5V9M28.6592 9V4.5C28.6592 3.70435 28.3431 2.94129 27.7805 2.37868C27.2179 1.81607 26.4548 1.5 25.6592 1.5H21.1592M21.1592 28.5H25.6592C26.4548 28.5 27.2179 28.1839 27.7805 27.6213C28.3431 27.0587 28.6592 26.2956 28.6592 25.5V21M1.65918 21V25.5C1.65918 26.2956 1.97525 27.0587 2.53786 27.6213C3.10047 28.1839 3.86353 28.5 4.65918 28.5H9.15918" stroke="#F2EFEB" stroke-width="4" stroke-linecap="round" stroke-linejoin="round"/>
</g>
<defs>
<clipPath id="clip0_415_2251">
<rect width="30" height="30" fill="white" transform="translate(0.15918)"/>
</clipPath>
</defs>
</svg>
