<svg width="40" height="40" viewBox="0 0 40 40" fill="none" xmlns="http://www.w3.org/2000/svg">
<path d="M20.0007 26.6668C23.6773 26.6668 26.6673 23.6752 26.6673 20.0002V10.0002C26.6673 6.3235 23.6773 3.3335 20.0007 3.3335C16.324 3.3335 13.334 6.3235 13.334 10.0002V20.0002C13.334 23.6752 16.324 26.6668 20.0007 26.6668ZM31.6673 20.0002V16.6668C31.6673 16.2248 31.4917 15.8009 31.1792 15.4883C30.8666 15.1758 30.4427 15.0002 30.0007 15.0002C29.5586 15.0002 29.1347 15.1758 28.8221 15.4883C28.5096 15.8009 28.334 16.2248 28.334 16.6668V20.0002C28.334 24.5952 24.5956 28.3335 20.0007 28.3335C15.4057 28.3335 11.6673 24.5952 11.6673 20.0002V16.6668C11.6673 16.2248 11.4917 15.8009 11.1792 15.4883C10.8666 15.1758 10.4427 15.0002 10.0007 15.0002C9.55862 15.0002 9.1347 15.1758 8.82214 15.4883C8.50958 15.8009 8.33398 16.2248 8.33398 16.6668V20.0002C8.33398 25.8668 12.689 30.7202 18.334 31.5335V33.3335H13.334C12.892 33.3335 12.468 33.5091 12.1555 33.8216C11.8429 34.1342 11.6673 34.5581 11.6673 35.0002C11.6673 35.4422 11.8429 35.8661 12.1555 36.1787C12.468 36.4912 12.892 36.6668 13.334 36.6668H26.6673C27.1093 36.6668 27.5333 36.4912 27.8458 36.1787C28.1584 35.8661 28.334 35.4422 28.334 35.0002C28.334 34.5581 28.1584 34.1342 27.8458 33.8216C27.5333 33.5091 27.1093 33.3335 26.6673 33.3335H21.6673V31.5335C27.3123 30.7202 31.6673 25.8668 31.6673 20.0002Z" fill="#434F5B"/>
</svg>
