<?xml version="1.0" encoding="UTF-8"?><svg id="Capa_1" xmlns="http://www.w3.org/2000/svg" viewBox="0 0 50 50"><path d="M25.04,9.18c-9.36,0-16.9,7.52-16.9,16.71s7.61,16.71,16.9,16.71,16.9-7.52,16.9-16.71-7.54-16.71-16.9-16.71ZM25.04,41.72c-8.85,0-16.02-7.09-16.02-15.84s7.17-15.84,16.02-15.84,16.02,7.09,16.02,15.84-7.17,15.84-16.02,15.84Z"/><path d="M41.5,12.36c1.24,0,2.27-1.01,2.27-2.24s-1.02-2.24-2.27-2.24-2.27,1.01-2.27,2.24,1.02,2.24,2.27,2.24ZM41.5,8.74c.73,0,1.39.58,1.39,1.37s-.66,1.3-1.39,1.3-1.39-.58-1.39-1.37.66-1.3,1.39-1.3Z"/><path d="M9.01,39.48c-1.54,0-2.78,1.23-2.78,2.75s1.24,2.75,2.78,2.75,2.78-1.23,2.78-2.75-1.24-2.75-2.78-2.75ZM9.01,43.96c-1.02,0-1.83-.8-1.83-1.81s.81-1.81,1.83-1.81,1.83.8,1.83,1.81-.81,1.81-1.83,1.81Z"/><path d="M13.4,6.93c.36,0,.66.29.66.65s-.29.65-.66.65-.66-.29-.66-.65.29-.65.66-.65Z"/><path d="M43.11,15.03c.36,0,.66.29.66.65s-.3.65-.66.65-.66-.29-.66-.65.29-.65.66-.65Z"/><path d="M6.97,13.23c.36,0,.66.29.66.65s-.3.65-.66.65-.66-.29-.66-.65.3-.65.66-.65Z"/><path d="M43.11,35.86c.36,0,.66.29.66.65s-.3.65-.66.65-.66-.29-.66-.65.29-.65.66-.65Z"/><path d="M36.23,21.33l-11.41-6.51c-.15-.07-.29-.07-.44,0l-11.41,6.51c-.29.14-.29.58,0,.8l2.78,1.59-2.78,1.59c-.29.14-.29.58,0,.8l2.78,1.59-2.78,1.59c-.29.14-.29.58,0,.8l11.41,6.51c.15.07.29.07.44,0l11.41-6.51c.29-.14.29-.58,0-.8l-2.78-1.59,2.78-1.59c.29-.14.29-.58,0-.8l-2.78-1.59,2.78-1.59c.29-.22.29-.65,0-.8ZM35.13,29.64l-10.53,6-10.54-6,2.56-1.45,7.75,4.41c.15.07.29.07.44,0l7.75-4.41,2.56,1.45ZM35.13,25.67l-10.53,6-10.54-6,2.56-1.45,7.75,4.41c.15.07.29.07.44,0l7.75-4.41,2.56,1.45ZM24.6,27.69l-10.54-6,10.54-6,10.53,6-10.53,6Z"/><path d="M34.84,42.66c.36,0,.66.29.66.65s-.29.65-.66.65-.66-.29-.66-.65.29-.65.66-.65Z"/><path d="M15.67,41.29c.36,0,.66.29.66.65s-.3.65-.66.65-.66-.29-.66-.65.29-.65.66-.65Z"/></svg>