<?xml version="1.0" encoding="UTF-8"?><svg id="Capa_1" xmlns="http://www.w3.org/2000/svg" viewBox="0 0 50 50"><path d="M42.27,11.07h-9.05v-1.52c0-1.92-1.62-3.52-3.56-3.52h-7.11c-1.94,0-3.56,1.6-3.56,3.52v1.52h-9.94c-3.07,0-5.58,2.48-5.58,5.51v22.38c0,3.04,2.51,5.51,5.58,5.51,0,0,2.43,0,2.26,0h30.96c3.07,0,5.58-2.48,5.58-5.51v-22.38c0-3.04-2.51-5.51-5.58-5.51ZM46.88,36.09c-4.37-.64-8.17,3.04-7.52,7.43H11.95c.65-4.32-3.07-8.07-7.52-7.43v-16.62c4.37.64,8.17-3.04,7.52-7.43h27.41c-.65,4.32,3.07,8.07,7.52,7.43v16.62h0ZM20.12,9.55c0-1.36,1.13-2.48,2.51-2.48h7.11c1.37,0,2.51,1.12,2.51,2.48v1.52h-12.13v-1.52ZM9.04,12.03h1.86c.73,3.84-2.67,7.11-6.47,6.39v-1.84c0-2.48,2.02-4.56,4.61-4.56ZM4.44,38.96v-1.84c3.8-.72,7.2,2.64,6.47,6.39h-1.86c-2.59,0-4.61-2-4.61-4.56ZM42.27,43.52h-1.86c-.73-3.76,2.67-7.11,6.47-6.39v1.84c0,2.56-2.1,4.56-4.61,4.56ZM46.88,18.42c-3.8.72-7.2-2.64-6.47-6.39h1.86c2.51,0,4.61,2.08,4.61,4.56v1.84Z"/><path d="M34.11,24.98c1.05-1.04,1.29-2.56.73-3.84-.16-.32-.57-.4-.81-.16l-1.29,1.28-.81-.8,1.29-1.28c.24-.24.16-.64-.16-.8-1.29-.56-2.91-.32-3.88.72-.97.96-1.29,2.32-.89,3.52l-2.18,2.08-2.1-2.08c.4-1.2.08-2.64-.89-3.52-1.05-1.04-2.59-1.28-3.88-.72-.32.16-.4.56-.16.8l1.29,1.28-.81.8-1.29-1.28c-.24-.24-.65-.16-.81.16-.57,1.28-.32,2.88.73,3.84.97.96,2.34,1.28,3.56.88l2.1,2.08-2.1,2.08c-1.21-.4-2.67-.08-3.56.88-1.05,1.04-1.29,2.56-.73,3.84.16.32.57.4.81.16l1.29-1.28.81.8-1.29,1.28c-.24.24-.16.64.16.8,1.29.56,2.91.32,3.88-.72.97-.96,1.29-2.32.89-3.52l2.1-2.08,2.1,2.08c-.4,1.2-.08,2.64.89,3.52,1.05,1.04,2.59,1.28,3.88.72.32-.16.4-.56.16-.8l-1.29-1.28.81-.8,1.29,1.28c.24.24.65.16.81-.16.57-1.28.32-2.88-.73-3.84-.97-.96-2.34-1.28-3.56-.88l-2.1-2.08,2.1-2.08c1.29.32,2.67,0,3.64-.88ZM22.3,24.9c-.16-.16-.4-.16-.57-.08-.97.4-2.02.24-2.75-.48-.57-.56-.81-1.28-.73-2l1.05,1.04c.16.16.49.16.73,0l1.54-1.52c.16-.16.16-.48,0-.72l-1.13-1.04c.73-.08,1.46.16,2.02.72.73.72.97,1.84.48,2.72-.08.16-.08.4.08.56l2.34,2.32-.81.8-2.26-2.32ZM29.98,30.97c.16.16.4.16.57.08.97-.4,2.02-.24,2.75.48.57.56.81,1.28.73,2l-1.05-1.04c-.16-.16-.49-.16-.73,0l-1.54,1.52c-.16.16-.16.48,0,.72l1.05,1.04c-.73.08-1.45-.16-2.02-.72-.73-.72-.97-1.84-.49-2.72.08-.16.08-.4-.08-.56l-2.34-2.32.81-.8,2.34,2.32ZM29.98,24.9c-5.42,5.35-3.48,3.44-6.95,6.87-.16.16-.16.4-.08.56.4.96.24,2-.48,2.72-.57.56-1.29.8-2.02.72l1.05-1.04c.16-.16.16-.48,0-.72l-1.54-1.52c-.16-.16-.49-.16-.73,0l-1.05,1.04c-.08-.72.16-1.44.73-2,.73-.72,1.86-.96,2.75-.48.16.08.4.08.57-.08.08-.08,2.51-2.48,6.95-6.87.16-.16.16-.4.08-.56-.4-.96-.24-2,.49-2.72.57-.56,1.29-.8,2.02-.72l-1.05,1.04c-.16.16-.16.48,0,.72l1.54,1.52c.16.16.48.16.73,0l1.05-1.04c.08.72-.16,1.44-.73,2-.73.72-1.86.96-2.75.48-.16-.16-.4-.08-.57.08Z"/></svg>