<?xml version="1.0" encoding="UTF-8"?><svg id="Capa_1" xmlns="http://www.w3.org/2000/svg" viewBox="0 0 50 50"><g id="_249_Camera_film_camera_projector_video"><path d="M44.13,13.69l-8.21,3.66v-4.07c.34-3.93-2.81-7.32-6.84-7.32s-7.25,3.52-6.78,7.52h-1.85c0-2.78-2.33-5.08-5.13-5.08s-5.13,2.3-5.13,5.08c0,.95.27,1.97.89,2.78v5.76h-3.42c-.48,0-.89.41-.89.88v5.96c0,.47.41.88.89.88h3.42v1.69c0,.47.41.88.89.88h2.67v2.57c0,.47.41.88.89.88h3.76l-4.31,8.47h-5.48c-.48,0-.89.41-.89.88s.41.88.89.88h30.8c.48,0,.89-.41.89-.88s-.41-.88-.89-.88h-7.25l-4.31-8.47h2.87c.48,0,.89-.41.89-.88v-2.57h2.6c.48,0,.89-.41.89-.88v-2.91l8.21,3.66c.55.27,1.23-.14,1.23-.75V14.51c-.07-.68-.75-1.08-1.3-.81ZM29.07,7.66c2.81,0,5.13,2.3,5.13,5.08s-2.33,5.08-5.13,5.08-5.13-2.24-5.13-5.08,2.33-5.08,5.13-5.08ZM15.31,10.17c2.26,0,3.9,2.17,3.28,4.34-.41,1.42-1.78,2.44-3.28,2.44-1.92,0-3.42-1.56-3.42-3.39s1.57-3.39,3.42-3.39ZM8.47,27.99v-4.27h2.6v4.27h-2.6ZM21.06,35.65h2.05v8.47h-6.3l4.24-8.47ZM31.12,44.12h-6.3v-8.47h2.05l4.24,8.47ZM30.78,33.96h-14.51v-1.69h14.58v1.69h-.07ZM34.2,30.57H12.71v-12.6c.75.41,1.64.68,2.6.68,2.19,0,4.11-1.36,4.86-3.39h2.53c.48,1.15,1.23,2.17,2.26,2.98,2.81,2.1,6.91,1.76,9.24-.95v13.28ZM43.65,30.09l-7.73-3.46v-7.39l7.73-3.46v14.3Z"/><path d="M31.67,22.91H15.38c-.48,0-.89.41-.89.88v4.27c0,.47.41.88.89.88h16.29c.48,0,.89-.41.89-.88v-4.27c-.07-.47-.41-.88-.89-.88ZM30.78,27.18h-14.51v-2.57h14.58v2.57h-.07Z"/><path d="M29.07,16.13c1.51,0,2.87-1.02,3.29-2.44.68-2.17-1.03-4.34-3.29-4.34s-3.9,2.17-3.29,4.34c.48,1.49,1.78,2.44,3.29,2.44ZM29.07,11.05c.96,0,1.71.75,1.71,1.69s-.75,1.69-1.71,1.69c-.89,0-1.71-.75-1.71-1.69s.82-1.69,1.71-1.69Z"/><rect x="16.27" y="20.4" width="1.71" height="1.69"/><rect x="18.8" y="20.4" width="1.71" height="1.69"/><rect x="21.41" y="20.4" width="1.71" height="1.69"/><rect x="23.94" y="20.4" width="1.71" height="1.69"/><rect x="26.54" y="20.4" width="1.71" height="1.69"/><rect x="29.07" y="20.4" width="1.71" height="1.69"/></g></svg>