<?xml version="1.0" encoding="UTF-8"?><svg id="Capa_1" xmlns="http://www.w3.org/2000/svg" viewBox="0 0 50 50"><defs><style>.cls-1{fill:none;stroke:#000;stroke-miterlimit:10;stroke-width:.5px;}</style></defs><path class="cls-1" d="M28.41,41.23c-.65-.33-1.07-.53-1.25-.59-.18-.06-.35-.1-.51-.1-.22,0-.46.03-.73.12-.27.09-.69.3-1.26.63v.03c-.57.3-.98.49-1.22.56-.24.08-.47.11-.69.1-.48-.01-1.13-.23-1.97-.65-.29-.14-.52-.26-.72-.36,0,.18.01.47.01.65,0,.74-.93,3.61-1.04,4.3h11.83c-.1-.69-.62-2.93-.76-3.97-.44-.07-1.01-.38-1.69-.73Z"/><path class="cls-1" d="M30.44,25.91c-3.59-6.65-4.31-13.6-4.31-13.6h-.71v14.51c1.04.31,2.26,1.43,2.26,2.78,0,1.58-1.24,2.86-2.82,2.86s-2.58-1.28-2.58-2.86c0-1.41.69-2.42,2.29-2.65v-14.64s-1,0-1,0c0,0-.29,6.95-3.89,13.6-1.64,3.03-4.06,4.9-5.4,5.85,2.89.95,5.13,4.08,5.66,7.99.31.11.65.25,1.04.45.58.3.98.48,1.2.55.21.07.41.11.59.12.21,0,.42-.03.64-.1.22-.07.65-.29,1.29-.65v-.03c.56-.29.96-.48,1.21-.56.25-.08.49-.11.72-.11.48.02,1.15.24,1.99.67.58.3.98.49,1.2.56.1.03.19.06.28.08.24-4.38,2.61-8.02,5.76-9.06-1.35-.96-3.77-2.72-5.41-5.75Z"/><rect x="3.15" y="16.33" width="27.72" height=".31" transform="translate(-6.31 20.65) rotate(-54.25)"/><rect x="32.97" y="2.62" width=".31" height="27.72" transform="translate(-3.39 22.47) rotate(-35.77)"/><path d="M10.54,27.82c0,.94-.76,1.69-1.69,1.69s-1.69-.76-1.69-1.69.76-1.69,1.69-1.69,1.69.76,1.69,1.69Z"/><path d="M42.99,27.82c0,.93-.76,1.69-1.69,1.69s-1.69-.76-1.69-1.69.76-1.69,1.69-1.69,1.69.76,1.69,1.69Z"/><path d="M26.76,5.24c0,.93-.76,1.69-1.69,1.69s-1.69-.76-1.69-1.69.76-1.69,1.69-1.69,1.69.76,1.69,1.69Z"/></svg>