<?xml version="1.0" encoding="UTF-8"?><svg id="Capa_1" xmlns="http://www.w3.org/2000/svg" viewBox="0 0 50 50"><path d="M31.89,27.54c-.22-.15-.52-.07-.67.15-.82,1.41-2.17,2.44-3.74,2.88-.22.07-.37.3-.3.59.08.22.3.37.6.3,1.8-.52,3.29-1.7,4.27-3.33.15-.15.07-.44-.15-.59Z"/><path d="M19.91,21.84c1.05-2.22,3.37-3.63,5.84-3.63.22,0,.45-.22.45-.44s-.22-.44-.45-.44c-2.84,0-5.46,1.63-6.66,4.14-.08.22,0,.52.22.59.22.07.45,0,.6-.22Z"/><path d="M28.74,20.29l-4.86,4.81-1.42-1.41c-.75-.74-2.02-.74-2.77,0s-.75,2,0,2.74l3.82,3.77c.15.15.45.15.67,0l7.33-7.25c.75-.74.75-2,0-2.74-.75-.74-2.02-.67-2.77.07ZM30.84,22.36l-6.96,6.88-3.52-3.48c-.22-.22-.3-.44-.3-.74,0-.52.45-.96.97-.96.3,0,.52.07.75.3l1.72,1.7c.15.15.45.15.67,0l5.24-5.18c.37-.37,1.05-.37,1.42,0,.22.22.3.44.3.74s-.07.52-.3.74Z"/><path d="M33.08,6.09h-3.67c-.22,0-.45.22-.45.44v.15c0,.44-.37.74-.75.74h-5.01c-.45,0-.75-.37-.75-.74v-.15c0-.22-.22-.44-.45-.44h-3.74c-1.35,0-2.32,1.04-2.32,2.44v33.07c0,1.33,1.12,2.44,2.47,2.44h14.74c1.35,0,2.47-1.11,2.47-2.44V8.53c-.07-1.41-1.2-2.44-2.54-2.44ZM34.58,24.58c0,4.81-3.97,8.8-8.91,8.8s-8.91-3.92-8.91-8.8,4.04-8.8,8.91-8.8,8.91,3.92,8.91,8.8h0ZM16.85,8.53c0-.89.6-1.48,1.42-1.48h3.29c.15.81.82,1.41,1.65,1.41h5.01c.82,0,1.5-.59,1.65-1.41h3.22c.82,0,1.5.67,1.5,1.48v11.91c-1.57-3.33-4.94-5.55-8.91-5.55s-7.33,2.29-8.91,5.55v-11.91h.07ZM34.58,41.52c0,.81-.67,1.48-1.5,1.48h-14.74c-.82,0-1.5-.67-1.5-1.48v-12.8c1.57,3.25,4.94,5.55,8.83,5.55s7.33-2.29,8.91-5.55v12.8Z"/><path d="M34.06,3.28h-16.76c-2.32,0-4.27,1.85-4.27,4.22v35.06c0,2.29,1.87,4.22,4.27,4.22h16.76c2.32,0,4.27-1.85,4.27-4.22V7.49c0-2.29-1.87-4.22-4.27-4.22ZM37.42,42.56c0,1.78-1.5,3.25-3.29,3.25h-16.84c-1.8,0-3.29-1.48-3.29-3.25V7.49c0-1.78,1.5-3.25,3.29-3.25h16.76c1.8,0,3.29,1.48,3.29,3.25v35.06h.07Z"/></svg>