<?xml version="1.0" encoding="UTF-8"?><svg id="Capa_1" xmlns="http://www.w3.org/2000/svg" viewBox="0 0 50 50"><g id="_512_Book_Education_Online_World_Wide_Globe"><path d="M44.07,31.35h-2.28V14.13c0-1.35-1.14-2.48-2.51-2.48s-2.51,1.13-2.51,2.48v8.34c0,.75-.61,1.43-1.44,1.43-.76,0-1.44-.6-1.44-1.43v-3.53c0-1.65-1.37-3.08-3.11-3.08h-2.05V5.94c0-.23-.23-.45-.46-.45h-8.43c-1.67,0-3.19.98-3.87,2.41-.76-1.43-2.2-2.41-3.87-2.41H3.61c-.23,0-.46.23-.46.45v18.42c0,.23.23.45.46.45h7.82c-3.95,1.73-6.68,5.64-6.68,10.15,0,6.09,5.01,11.05,11.16,11.05,3.19,0,6-1.28,8.05-3.38,0,0,.08,0,.08-.08,4.02-4.28,4.1-10.9,0-15.18l-.08-.07c-.99-1.05-2.2-1.88-3.57-2.48h7.82c.23,0,.46-.23.46-.45v-7.52h2.13c1.21,0,2.13.98,2.13,2.11v3.53c0,1.28,1.06,2.33,2.35,2.33s2.35-1.05,2.35-2.33v-8.34c0-.83.68-1.5,1.52-1.5s1.52.68,1.52,1.5v17.29h-2.28c-1.52,0-2.66,1.2-2.66,2.63v5.56c0,3.01,2.43,5.41,5.47,5.41s5.47-2.4,5.47-5.41v-5.56c.15-1.5-1.06-2.71-2.58-2.71ZM19.85,6.39h7.97v13.76h-8.12c-1.37,0-2.5.6-3.26,1.58v-11.95c0-1.88,1.52-3.38,3.42-3.38ZM26.15,34.51h-4.18c0-1.58-.23-3.08-.61-4.51.84-.45,1.59-.98,2.28-1.65,1.44,1.65,2.43,3.76,2.51,6.16ZM23.65,41.57c-.68-.68-1.44-1.2-2.28-1.65.38-1.35.61-2.93.61-4.51h4.18c-.08,2.33-1.06,4.51-2.51,6.16ZM5.66,35.41h4.18c0,1.58.23,3.08.61,4.51-.83.45-1.59.98-2.28,1.65-1.44-1.65-2.35-3.83-2.51-6.16ZM8.16,28.34c.68.68,1.44,1.2,2.28,1.65-.38,1.35-.61,2.93-.61,4.51h-4.18c.15-2.4,1.06-4.51,2.51-6.16ZM15.45,30.45c-1.37-.08-2.66-.38-3.87-.9.23-.68.46-1.28.76-1.8.84-1.65,1.9-2.63,3.04-2.78l.08,5.49h0ZM15.45,31.35v3.08h-4.63c0-1.43.23-2.78.53-4.06,1.29.6,2.66.9,4.1.98ZM15.45,35.41v3.08c-1.44.07-2.81.38-4.1.98-.3-1.28-.53-2.63-.53-4.06h4.63ZM15.45,39.47v5.56c-1.14-.23-2.2-1.2-3.04-2.78-.3-.53-.53-1.2-.76-1.8,1.14-.6,2.43-.9,3.8-.98ZM16.44,39.47c1.37.07,2.66.38,3.87.9-.23.68-.46,1.28-.76,1.8-.84,1.65-1.9,2.63-3.11,2.78v-5.49ZM16.44,38.56v-3.08h4.63c0,1.43-.23,2.78-.53,4.06-1.29-.6-2.66-.98-4.1-.98ZM16.44,34.51v-3.08c1.44-.07,2.81-.38,4.1-.98.3,1.28.53,2.63.53,4.06h-4.63ZM16.44,30.45v-5.56c1.14.23,2.2,1.2,3.04,2.78.3.53.53,1.2.76,1.8-1.21.6-2.51.9-3.8.98ZM10.74,29.09c-.68-.38-1.29-.9-1.9-1.43,1.14-1.05,2.58-1.88,4.1-2.41-.99.98-1.75,2.41-2.2,3.83ZM10.74,40.82c.46,1.35,1.21,2.78,2.2,3.83-1.59-.45-2.96-1.28-4.1-2.4.61-.53,1.21-.98,1.9-1.43ZM21.07,40.82c.68.38,1.29.9,1.9,1.43-1.14,1.05-2.58,1.88-4.1,2.4,1.06-1.05,1.75-2.48,2.2-3.83ZM21.07,29.09c-.46-1.35-1.14-2.78-2.2-3.83,1.59.45,2.96,1.28,4.1,2.41-.53.53-1.21.98-1.9,1.43ZM12.03,6.39c1.9,0,3.42,1.5,3.42,3.38v11.88c-.76-.98-1.97-1.58-3.26-1.58H4.06V6.39h7.97ZM4.06,21.05h8.12c1.67,0,3.04,1.2,3.26,2.86H4.06v-2.86ZM27.82,23.83h-11.39c.23-1.58,1.59-2.86,3.26-2.86h8.12v2.86ZM44.07,32.33c.99,0,1.75.75,1.75,1.73v1.13h-4.02v-2.86h2.28ZM38.53,32.33h2.28v2.86h-4.02v-1.13c0-.98.84-1.73,1.75-1.73ZM41.34,44.05c-2.51,0-4.48-2.03-4.48-4.43v-3.53h4.02v1.43c0,.23.23.45.46.45s.46-.23.46-.45v-1.43h4.02v3.53c0,2.48-2.05,4.43-4.48,4.43Z"/><path d="M5.96,18.72h7.59c.23,0,.46-.23.46-.45s-.23-.45-.46-.45h-7.59c-.23,0-.46.23-.46.45s.23.45.46.45Z"/><path d="M5.96,16.84h7.59c.23,0,.46-.23.46-.45s-.23-.45-.46-.45h-7.59c-.23,0-.46.23-.46.45s.23.45.46.45Z"/><path d="M5.96,14.96h7.59c.23,0,.46-.23.46-.45s-.23-.45-.46-.45h-7.59c-.23,0-.46.23-.46.45s.23.45.46.45Z"/><path d="M5.96,13.08h7.59c.23,0,.46-.23.46-.45s-.23-.45-.46-.45h-7.59c-.23,0-.46.23-.46.45s.23.45.46.45Z"/><path d="M5.96,11.2h3.8c.23,0,.46-.23.46-.45s-.23-.45-.46-.45h-3.8c-.23,0-.46.23-.46.45s.23.45.46.45Z"/><path d="M18.33,18.72h7.59c.23,0,.46-.23.46-.45s-.23-.45-.46-.45h-7.59c-.23,0-.46.23-.46.45-.08.23.15.45.46.45Z"/><path d="M18.33,16.84h7.59c.23,0,.46-.23.46-.45s-.23-.45-.46-.45h-7.59c-.23,0-.46.23-.46.45-.08.23.15.45.46.45Z"/><path d="M18.33,14.96h7.59c.23,0,.46-.23.46-.45s-.23-.45-.46-.45h-7.59c-.23,0-.46.23-.46.45-.08.23.15.45.46.45Z"/><path d="M18.33,13.08h7.59c.23,0,.46-.23.46-.45s-.23-.45-.46-.45h-7.59c-.23,0-.46.23-.46.45-.08.23.15.45.46.45Z"/><path d="M18.33,11.2h3.8c.23,0,.46-.23.46-.45s-.23-.45-.46-.45h-3.8c-.23,0-.46.23-.46.45s.15.45.46.45Z"/><path d="M34.88,10.23c1.29,0,2.35-1.05,2.35-2.33s-1.06-2.33-2.35-2.33-2.35,1.05-2.35,2.33,1.06,2.33,2.35,2.33ZM34.88,6.47c.76,0,1.44.6,1.44,1.43,0,.75-.61,1.43-1.44,1.43-.76,0-1.44-.6-1.44-1.43.08-.75.68-1.43,1.44-1.43Z"/><path d="M30.63,39.84c-1.82,0-3.34,1.5-3.34,3.31s1.52,3.31,3.34,3.31,3.34-1.5,3.34-3.31-1.52-3.31-3.34-3.31ZM30.63,45.48c-1.29,0-2.35-1.05-2.35-2.33s1.06-2.33,2.35-2.33,2.35,1.05,2.35,2.33-1.06,2.33-2.35,2.33Z"/><path d="M45.13,7.44c.38,0,.68.3.68.68s-.31.68-.68.68-.68-.3-.68-.68.31-.68.68-.68Z"/><path d="M31.85,24.81c.38,0,.68.3.68.68s-.31.68-.68.68-.68-.3-.68-.68.31-.68.68-.68Z"/><path d="M32.76,32.33c.38,0,.68.3.68.68s-.31.68-.68.68-.68-.3-.68-.68.31-.68.68-.68Z"/><path d="M44.15,26.24c.38,0,.68.3.68.68s-.31.68-.68.68-.68-.3-.68-.68.31-.68.68-.68Z"/><path d="M37.01,45.03c.38,0,.68.3.68.68s-.31.68-.68.68-.68-.3-.68-.68.31-.68.68-.68Z"/><path d="M6.64,44.58c.38,0,.68.3.68.68s-.31.68-.68.68-.68-.3-.68-.68.31-.68.68-.68Z"/><path d="M4.75,27.21c.38,0,.68.3.68.68s-.31.68-.68.68-.68-.3-.68-.68.31-.68.68-.68Z"/></g></svg>