<?xml version="1.0" encoding="UTF-8"?><svg id="Capa_1" xmlns="http://www.w3.org/2000/svg" viewBox="0 0 50 50"><path d="M31.06,19.48l1.1.22c.07.22.15.51.29.73l-.59.94c-.15.15-.07.44.07.58l.66.65c.15.15.37.15.59.07l.95-.58c.22.15.44.22.73.29l.22,1.09c.07.22.22.36.44.36h.88c.22,0,.37-.15.44-.36l.22-1.09c.22-.07.51-.15.73-.29l.95.58c.15.14.44.07.59-.07l.66-.65c.15-.15.15-.36.07-.58l-.66-.94c.15-.22.22-.44.29-.73l1.1-.22c.22-.07.37-.22.37-.44v-.87c0-.22-.15-.36-.37-.44l-1.1-.29c-.07-.22-.15-.51-.29-.73l.59-.94c.15-.15.07-.44-.07-.58l-.59-.58c-.15-.15-.37-.15-.59-.07l-.95.58c-.22-.15-.44-.22-.73-.29l-.22-1.09c-.07-.22-.22-.36-.44-.36h-.88c-.22,0-.37.15-.44.36l-.22,1.09c-.22.07-.51.15-.73.29l-.95-.58c-.15-.14-.44-.07-.59.07l-.66.65c-.15.15-.15.36-.07.58l.59.94c-.15.22-.22.44-.29.73l-1.1.22c-.22.07-.37.22-.37.44v.87c.07.22.22.36.37.44ZM31.65,18.46l1.03-.22c.15-.07.29-.15.37-.36.07-.36.22-.65.37-.94.07-.15.07-.36,0-.51l-.59-.87.15-.14.88.65c.15.07.37.07.51,0,.29-.22.59-.29.95-.36.15-.07.29-.15.37-.36l.22-1.02h.15l.22,1.02c.07.15.15.29.37.36.37.07.66.22.95.36.15.07.37.07.51,0l.88-.58.15.14-.59.87c-.07.14-.07.36,0,.51.22.29.29.58.37.94.07.14.15.29.37.36l1.03.22v.15l-1.03.22c-.15.07-.29.15-.37.36-.07.36-.22.65-.37.94-.07.14-.07.36,0,.51l.59.87-.15.14-.88-.58c-.15-.07-.37-.07-.51,0-.29.22-.59.29-.95.36-.15.07-.29.15-.37.36l-.22.94h-.15l-.22-1.02c-.07-.14-.15-.29-.37-.36-.37-.07-.66-.22-.95-.36-.15-.07-.37-.07-.51,0l-.88.58-.15-.15.59-.87c.07-.14.07-.36,0-.51-.22-.29-.29-.58-.37-.94-.07-.14-.15-.29-.37-.36l-1.03-.14v-.22h0Z"/><path d="M35.98,20.35c1.03,0,1.84-.8,1.84-1.81s-.81-1.81-1.84-1.81-1.83.8-1.83,1.81.81,1.81,1.83,1.81ZM35.98,17.66c.51,0,.88.44.88.87,0,.51-.44.87-.88.87-.51,0-.88-.44-.88-.87-.07-.44.37-.87.88-.87Z"/><path d="M43.1,35.94V9.17c0-1.23-1.03-2.18-2.2-2.18h-9.84c-1.25,0-2.2,1.02-2.2,2.18v2.76H11.91c-2.28,0-4.11,1.81-4.11,4.06v19.88l-2.35,6.31h0v.07h0v.07h0v.07h0c1.25,2.1,3.45,3.41,5.95,3.41h27.89c2.42,0,4.7-1.31,5.94-3.41v-.14h0v-.15c.15.15.22.36-2.13-6.17ZM8.68,33.77h33.47v1.81H8.68v-1.81ZM42.15,26.08h-12.4v-15.02h12.4v15.02ZM29.74,26.95h12.4v.94c0,.73-.59,1.31-1.32,1.31h-9.76c-.73,0-1.32-.58-1.32-1.31v-.94ZM31.06,7.94h9.76c.73,0,1.32.58,1.32,1.31v.94h-12.4v-.94c0-.73.59-1.31,1.32-1.31ZM11.91,12.87h16.95v15.02c0,1.23,1.03,2.18,2.2,2.18h9.76c.51,0,.95-.14,1.32-.44v3.12H8.68v-16.69c0-1.74,1.47-3.19,3.23-3.19ZM8.53,36.45h33.76l1.98,5.44H6.55l1.98-5.44ZM28.86,45.09h-6.46v-2.25h6.46v2.25ZM6.77,42.84h14.75v2.25h-10.06c-1.83,0-3.6-.87-4.7-2.25ZM39.36,45.09h-9.61v-2.25h14.31c-1.1,1.38-2.86,2.25-4.7,2.25Z"/><path d="M12.79,37.83h-.95c-.22,0-.44.22-.44.44s.22.44.44.44h.95c.22,0,.44-.22.44-.44s-.15-.44-.44-.44Z"/><path d="M16.46,37.83h-.95c-.22,0-.44.22-.44.44s.22.44.44.44h.95c.22,0,.44-.22.44-.44s-.15-.44-.44-.44Z"/><path d="M19.25,38.77h.95c.22,0,.44-.22.44-.44s-.22-.44-.44-.44h-.95c-.22,0-.44.22-.44.44-.07.22.15.44.44.44Z"/><path d="M22.92,38.77h.95c.22,0,.44-.22.44-.44s-.22-.44-.44-.44h-.95c-.22,0-.44.22-.44.44-.07.22.15.44.44.44Z"/><path d="M26.59,38.77h.95c.22,0,.44-.22.44-.44s-.22-.44-.44-.44h-.95c-.22,0-.44.22-.44.44-.07.22.15.44.44.44Z"/><path d="M30.26,38.77h.95c.22,0,.44-.22.44-.44s-.22-.44-.44-.44h-.95c-.22,0-.44.22-.44.44-.07.22.15.44.44.44Z"/><path d="M33.93,38.77h.95c.22,0,.44-.22.44-.44s-.22-.44-.44-.44h-.95c-.22,0-.44.22-.44.44-.07.22.15.44.44.44Z"/><path d="M37.6,38.77h.95c.22,0,.44-.22.44-.44s-.22-.44-.44-.44h-.95c-.22,0-.44.22-.44.44-.07.22.15.44.44.44Z"/><path d="M12.79,39.64h-.95c-.22,0-.44.22-.44.44s.22.44.44.44h.95c.22,0,.44-.22.44-.44s-.15-.44-.44-.44Z"/><path d="M16.46,39.64h-.95c-.22,0-.44.22-.44.44s.22.44.44.44h.95c.22,0,.44-.22.44-.44s-.15-.44-.44-.44Z"/><path d="M27.91,40.08c0-.22-.22-.44-.44-.44h-8.22c-.22,0-.44.22-.44.44s.22.44.44.44h8.29c.22.07.37-.15.37-.44Z"/><path d="M30.26,40.59h.95c.22,0,.44-.22.44-.44s-.22-.44-.44-.44h-.95c-.22,0-.44.22-.44.44-.07.22.15.44.44.44Z"/><path d="M33.93,40.59h.95c.22,0,.44-.22.44-.44s-.22-.44-.44-.44h-.95c-.22,0-.44.22-.44.44-.07.22.15.44.44.44Z"/><path d="M37.6,40.59h.95c.22,0,.44-.22.44-.44s-.22-.44-.44-.44h-.95c-.22,0-.44.22-.44.44-.07.22.15.44.44.44Z"/><path d="M12.79,22.88h2.28c.22,0,.44-.22.44-.44s-.22-.44-.44-.44h-2.28c-.22,0-.44.22-.44.44s.22.44.44.44Z"/><path d="M16.9,22.88h6.46c.22,0,.44-.22.44-.44s-.22-.44-.44-.44h-6.46c-.22,0-.44.22-.44.44s.22.44.44.44Z"/><path d="M12.79,25.13h4.11c.22,0,.44-.22.44-.44s-.22-.44-.44-.44h-4.11c-.22,0-.44.22-.44.44s.22.44.44.44Z"/><path d="M19.69,25.13c.22,0,.44-.22.44-.44s-.22-.44-.44-.44h-.95c-.22,0-.44.22-.44.44s.22.44.44.44h.95Z"/><path d="M22.92,24.26h-1.39c-.22,0-.44.22-.44.44s.22.44.44.44h1.39c.22,0,.44-.22.44-.44s-.22-.44-.44-.44Z"/><path d="M12.79,27.38h1.39c.22,0,.44-.22.44-.44s-.22-.44-.44-.44h-1.39c-.22,0-.44.22-.44.44s.22.44.44.44Z"/><path d="M19.25,27.38c.22,0,.44-.22.44-.44s-.22-.44-.44-.44h-3.23c-.22,0-.44.22-.44.44s.22.44.44.44h3.23Z"/><path d="M22.92,26.51h-1.84c-.22,0-.44.22-.44.44s.22.44.44.44h1.84c.22,0,.44-.22.44-.44s-.22-.44-.44-.44Z"/><path d="M12.79,29.7h1.83c.22,0,.44-.22.44-.44s-.22-.44-.44-.44h-1.83c-.22,0-.44.22-.44.44s.22.44.44.44Z"/><path d="M20.57,28.76h-4.11c-.22,0-.44.22-.44.44s.22.44.44.44h4.11c.22,0,.44-.22.44-.44s-.15-.44-.44-.44Z"/><path d="M12.5,18.24l2.28,1.81c.07.07.22.07.29.07.15,0,.29-.07.37-.15.15-.22.15-.51-.07-.65l-1.83-1.45,1.83-1.45c.22-.15.22-.44.07-.65-.15-.22-.44-.22-.66-.07l-2.28,1.81c-.07.07-.15.22-.15.36s.07.29.15.36Z"/><path d="M20.2,19.98c.07.15.22.15.37.15.07,0,.22,0,.29-.07l2.28-1.81c.07-.07.15-.22.15-.36s-.07-.29-.15-.36l-2.28-1.81c-.22-.15-.51-.15-.66.07-.15.22-.15.51.07.65l1.83,1.45-1.83,1.45c-.15.15-.22.44-.07.65Z"/><path d="M16.68,19.62c.07.07.15.07.22.07.15,0,.29-.07.37-.22l1.83-3.19c.15-.22.07-.51-.15-.65-.22-.14-.51-.07-.66.15l-1.84,3.19c-.07.29,0,.51.22.65Z"/></svg>