<svg width="39" height="38" viewBox="0 0 39 38" fill="none" xmlns="http://www.w3.org/2000/svg">
<g clip-path="url(#clip0_2645_124)">
<path d="M20.1951 8.82474C20.4436 8.92956 20.6175 9.15319 20.6621 9.41303L20.6734 9.54559V26.7585C20.6734 27.0737 20.4843 27.3582 20.1936 27.4801C19.9445 27.5846 19.6624 27.5521 19.4453 27.4017L19.3427 27.3167L14.7634 22.8179H12.0669C10.8469 22.8179 9.84421 21.8869 9.73047 20.6967L9.71973 20.4707V15.7935C9.71973 14.5734 10.6506 13.5707 11.8409 13.457L12.0669 13.4462H14.7653L19.345 8.98515C19.5704 8.76564 19.9053 8.70245 20.1951 8.82474ZM24.9574 10.4206L25.0929 10.5126L25.2459 10.6449C25.3443 10.7334 25.4802 10.8616 25.641 11.0286C25.9623 11.3622 26.3857 11.8537 26.8082 12.4972C27.6538 13.7853 28.5026 15.6943 28.5026 18.1584C28.5026 20.6227 27.6537 22.5288 26.8076 23.814C26.3849 24.4561 25.9613 24.9462 25.6399 25.2787L25.4189 25.4992L25.1267 25.7636L25.075 25.806C24.7363 26.0744 24.243 26.0182 23.9747 25.6796C23.7367 25.3792 23.7547 24.9579 23.9983 24.6793L24.2005 24.4955C24.2734 24.4302 24.3821 24.3284 24.5148 24.1911C24.7807 23.9161 25.1401 23.5012 25.5007 22.9537C26.2206 21.8597 26.9378 20.2482 26.9378 18.1584C26.9378 16.0685 26.2206 14.4535 25.5 13.3561C25.1996 12.8984 24.8998 12.5328 24.6542 12.2638L24.3894 11.9879L24.1009 11.7228C23.7634 11.4536 23.7069 10.961 23.9759 10.6231C24.2152 10.3226 24.6306 10.2451 24.9574 10.4206ZM23.3938 13.5501L23.5497 13.6592L23.7588 13.856L23.8434 13.9446C24.021 14.1362 24.2501 14.4168 24.477 14.79C24.9331 15.5403 25.3745 16.6567 25.3745 18.1498C25.3745 19.6428 24.9331 20.7604 24.4773 21.5119C24.2507 21.8856 24.0216 22.1669 23.8442 22.3589L23.6852 22.5221L23.5752 22.6238L23.513 22.6766L23.4137 22.7217C23.2065 22.8046 22.7221 22.9399 22.4134 22.5537C22.1748 22.2552 22.1902 21.8357 22.4305 21.556L22.6409 21.3538L22.6948 21.297C22.8114 21.1709 22.9743 20.9726 23.1394 20.7003C23.4673 20.1597 23.8097 19.3196 23.8097 18.1498C23.8097 16.9801 23.4673 16.1416 23.1398 15.6028C23.016 15.3993 22.8935 15.2372 22.791 15.1161L22.6419 14.9519L22.5347 14.8502C22.1987 14.5823 22.1435 14.0909 22.4123 13.753C22.6515 13.4524 23.0669 13.3747 23.3938 13.5501Z" fill="#FFFFF8"/>
</g>
<defs>
<clipPath id="clip0_2645_124">
<rect width="18.7778" height="18.7778" fill="white" transform="translate(10.1111 8.76318)"/>
</clipPath>
</defs>
</svg>
