<?xml version="1.0" encoding="UTF-8"?><svg id="Capa_1" xmlns="http://www.w3.org/2000/svg" viewBox="0 0 50 50"><path d="M32.42,7.16H9c-.22,0-.43.21-.43.43v36.54c0,.21.22.43.43.43h23.42c.22,0,.43-.21.43-.43V7.59c0-.21-.14-.43-.43-.43ZM31.99,43.7H9.44V8.08h22.55v35.61Z"/><path d="M12.61,18.77h3.17c.22,1.99,1.95,3.56,4.03,3.56,2.23,0,4.03-1.78,4.03-3.99,0-2.07-1.59-3.78-3.6-3.99v-3.13c0-.21-.22-.43-.43-.43h-7.2c-.22,0-.43.21-.43.43v7.12c0,.21.22.43.43.43ZM22.98,18.27c0,1.71-1.44,3.13-3.17,3.13-1.59,0-2.88-1.14-3.1-2.71h3.1c.22,0,.43-.21.43-.43v-3.06c1.59.21,2.74,1.5,2.74,3.06ZM16.71,17.84c.22-1.35,1.3-2.42,2.67-2.64v2.64h-2.67ZM13.04,11.65h6.34v2.71c-1.87.21-3.39,1.71-3.6,3.56h-2.74v-6.27Z"/><path d="M17.58,29.45v-3.13c0-.21-.22-.43-.43-.43s-.43.21-.43.43v3.13c-2.52.21-4.54,2.35-4.54,4.84s2.02,4.63,4.54,4.84v1.35c0,.21.22.43.43.43s.43-.21.43-.43v-1.35c2.52-.21,4.54-2.35,4.54-4.84s-2.02-4.63-4.54-4.84ZM13.04,34.3c0-2.07,1.59-3.78,3.6-3.99v7.98c-2.02-.21-3.6-1.92-3.6-3.99ZM17.58,38.28v-7.98c2.02.21,3.6,1.92,3.6,3.99s-1.59,3.77-3.6,3.99Z"/><path d="M25.22,40.99h3.6c.22,0,.43-.21.43-.43v-16.03c0-.21-.22-.43-.43-.43h-3.6c-.22,0-.43.21-.43.43v16.03c0,.21.22.43.43.43ZM25.65,24.96h2.74v15.17h-2.74v-15.17Z"/><path d="M12.61,20.9c.52,0,.94.41.94.93s-.42.93-.94.93-.94-.41-.94-.93.42-.93.94-.93Z"/><path d="M12.61,23.61c.52,0,.94.41.94.93s-.42.93-.94.93-.94-.41-.94-.93.42-.93.94-.93Z"/><path d="M12.61,26.25c.52,0,.94.41.94.93s-.42.93-.94.93-.94-.41-.94-.93.42-.93.94-.93Z"/><path d="M41.86,35.65V10.58c0-1.14-.94-2.07-2.09-2.07h-3.03c-1.15,0-2.09.93-2.09,2.07v25.07c0,.07,0,.14.07.21l3.17,5.77c.14.28.65.28.79,0l3.17-5.77v-.21ZM35.59,35.01V14.28h2.23v20.73c0,.64-.5,1.14-1.15,1.14s-1.08-.57-1.08-1.14ZM38.76,14.28h2.23v20.73c0,.64-.5,1.14-1.15,1.14s-1.15-.5-1.15-1.14V14.28h.07ZM36.74,9.37h3.03c.65,0,1.22.5,1.22,1.21v2.85h-5.4v-2.85c0-.64.5-1.21,1.15-1.21ZM38.26,40.49l-1.95-3.56c.72.14,1.51-.14,1.95-.71.43.57,1.15.85,1.95.71l-1.95,3.56Z"/></svg>