<?xml version="1.0" encoding="UTF-8"?><svg id="Capa_1" xmlns="http://www.w3.org/2000/svg" viewBox="0 0 50 50"><g id="B581_Mobile_Play_Video"><polygon points="33.12 25.03 21.72 31.51 21.72 18.55 33.12 25.03"/><path d="M26.24,7.53c.94,0,1.69.74,1.69,1.67s-.74,1.67-1.69,1.67-1.69-.8-1.69-1.67c0-.94.74-1.67,1.69-1.67Z"/><path d="M26.24,39.27c.94,0,1.69.74,1.69,1.67s-.74,1.67-1.69,1.67-1.69-.8-1.69-1.67c0-.94.74-1.67,1.69-1.67Z"/><path d="M37.24,13.34c-.47,0-.88-.4-.88-.87v-3.81c0-1.14-.61-2.07-1.35-2.07h-17.55c-.74,0-1.35.94-1.35,2.07v3.81c0,.47-.41.87-.88.87s-.88-.4-.88-.87v-3.81c0-2.07,1.35-3.74,3.04-3.74h17.48c1.69,0,3.04,1.67,3.04,3.74v3.81c.13.47-.27.87-.67.87Z"/><path d="M35.01,45.08h-17.55c-1.69,0-3.04-1.67-3.04-3.74v-3.81c0-.47.41-.87.81-.87s.88.4.88.87v3.81c0,1.14.61,2.07,1.35,2.07h17.48c.74,0,1.35-.94,1.35-2.07v-3.81c0-.47.4-.87.88-.87s.88.4.88.87v3.81c0,2.07-1.35,3.74-3.04,3.74Z"/><path d="M37.24,38.4H15.31c-.47,0-.88-.4-.88-.87V12.54c0-.47.41-.87.88-.87h21.93c.47,0,.88.4.88.87v25.06c-.07.4-.47.8-.88.8ZM16.12,36.73h20.24V13.34h-20.24v23.39Z"/><path d="M21.72,32.38c-.14,0-.27-.07-.41-.13-.27-.13-.4-.4-.4-.73v-12.96c0-.27.13-.6.4-.73.27-.13.61-.13.88,0l11.34,6.48c.27.13.4.4.4.74,0,.27-.14.6-.4.74l-11.34,6.48c-.13.07-.27.13-.47.13ZM22.6,19.96v10.09l8.84-5.08-8.84-5.01Z"/></g></svg>