<svg width="50" height="50" viewBox="0 0 50 50" fill="none" xmlns="http://www.w3.org/2000/svg">
<g clip-path="url(#clip0_4583_9956)">
<path d="M27.8863 0.163915C28.5478 0.443022 29.0109 1.03848 29.1297 1.73037L29.1597 2.08333V47.9166C29.1597 48.7558 28.6561 49.5133 27.8822 49.8379C27.2188 50.1161 26.4678 50.0297 25.8898 49.6291L25.6164 49.4029L13.4229 37.4237H6.24316C2.99445 37.4237 0.324631 34.9449 0.0217753 31.7757L-0.00683594 31.1738V18.7197C-0.00683594 15.471 2.47189 12.8012 5.64125 12.4983L6.24316 12.4697H13.4281L25.6227 0.591039C26.2228 0.00653999 27.1145 -0.16171 27.8863 0.163915ZM40.567 4.41325L40.9276 4.65824L41.3351 5.01062C41.5972 5.24616 41.9588 5.58737 42.3872 6.03208C43.2426 6.92037 44.3701 8.22928 45.4951 9.94278C47.7467 13.3724 50.0067 18.4556 50.0067 25.0168C50.0067 31.5785 47.7463 36.6541 45.4934 40.0762C44.368 41.7858 43.2401 43.0908 42.3842 43.9762L41.7956 44.5634L41.0176 45.2675L40.8801 45.3804C39.978 46.095 38.6647 45.9454 37.9501 45.0437C37.3164 44.2437 37.3645 43.1221 38.0131 42.3802L38.5513 41.8908C38.7455 41.717 39.0351 41.4458 39.3884 41.0804C40.0963 40.3479 41.0534 39.2433 42.0134 37.7854C43.9305 34.8725 45.8401 30.5813 45.8401 25.0168C45.8401 19.4519 43.9305 15.1518 42.0117 12.2295C41.2117 11.0108 40.4135 10.0375 39.7595 9.32111L39.0545 8.58664L38.2863 7.88074C37.3876 7.16382 37.2372 5.85212 37.9534 4.95241C38.5905 4.1523 39.6966 3.9459 40.567 4.41325ZM36.4035 12.7462L36.8184 13.0367L37.3753 13.5606L37.6005 13.7966C38.0734 14.3067 38.6834 15.054 39.2876 16.0476C40.5022 18.0456 41.6776 21.0183 41.6776 24.9939C41.6776 28.9695 40.5022 31.9453 39.2884 33.9462C38.6851 34.9412 38.0751 35.6904 37.6026 36.2016L37.1794 36.6361L36.8865 36.907L36.7209 37.0475L36.4564 37.1675C35.9048 37.3885 34.6148 37.7486 33.793 36.7204C33.1577 35.9256 33.1987 34.8084 33.8385 34.0637L34.3987 33.5253L34.5422 33.3741C34.8526 33.0384 35.2863 32.5103 35.7259 31.7853C36.5992 30.3458 37.5109 28.1087 37.5109 24.9939C37.5109 21.8794 36.5992 19.6467 35.7272 18.2121C35.3975 17.67 35.0713 17.2386 34.7982 16.9159L34.4013 16.4789L34.1159 16.2081C33.2213 15.4947 33.0742 14.1863 33.7901 13.2864C34.4268 12.486 35.5329 12.2792 36.4035 12.7462Z" fill="#FFFFF8"/>
</g>
<defs>
<clipPath id="clip0_4583_9956">
<rect width="50" height="50" fill="white"/>
</clipPath>
</defs>
</svg>
