<?xml version="1.0" encoding="UTF-8"?><svg id="Capa_1" xmlns="http://www.w3.org/2000/svg" viewBox="0 0 50 50"><path d="M5.29,13.56v26.51h39.42V13.56H5.29ZM11.15,37.93h-4.32v-4.57h4.32v4.57ZM11.15,29.07h-4.32v-4.56h4.32v4.56ZM11.15,20.22h-4.32v-4.57h4.32v4.57ZM37.09,37.92H12.91V15.65h24.19v22.27ZM43.17,37.93h-4.32v-4.57h4.32v4.57ZM43.17,29.07h-4.32v-4.56h4.32v4.56ZM43.17,20.22h-4.32v-4.57h4.32v4.57Z"/><path d="M21.85,32.7l8.85-5.08c.77-.44.77-1.17,0-1.62l-8.85-5.08c-.77-.44-1.41.05-1.41,1.09v9.6c0,1.04.63,1.53,1.41,1.09Z"/></svg>