<svg width="51" height="50" viewBox="0 0 51 50" fill="none" xmlns="http://www.w3.org/2000/svg">
<path d="M18.8179 29.6875L23.5383 20.3941C23.5638 20.344 23.6151 20.3125 23.6713 20.3125C23.729 20.3125 23.7815 20.3458 23.8062 20.3979L28.1929 29.6875M21.1616 27.3438H25.4585M32.4897 29.6875V20.3125M42.646 31.25H44.5991M19.5991 41.7969V43.75" stroke="#64D2D9" stroke-width="2" stroke-linecap="round"/>
<path d="M9.05225 31.25H7.09912" stroke="#64D2D9" stroke-width="2" stroke-linecap="round" stroke-linejoin="round"/>
<path d="M19.5991 7.8125V5.85938" stroke="#64D2D9" stroke-width="2" stroke-linecap="round"/>
<path d="M42.646 18.3594H44.5991" stroke="#64D2D9" stroke-width="2" stroke-linecap="round" stroke-linejoin="round"/>
<path d="M32.0991 41.7969V43.75M42.646 25H44.5991M25.4585 41.7969V43.75M9.05225 25H7.09912M25.4585 7.8125V5.85938" stroke="#64D2D9" stroke-width="2" stroke-linecap="round"/>
<path d="M9.05225 18.3594H7.09912" stroke="#64D2D9" stroke-width="2" stroke-linecap="round" stroke-linejoin="round"/>
<path d="M32.0991 7.8125V5.85938" stroke="#64D2D9" stroke-width="2" stroke-linecap="round"/>
<path d="M34.8335 12.1094H16.8647C14.7074 12.1094 12.9585 13.8583 12.9585 16.0156V33.9844C12.9585 36.1417 14.7074 37.8906 16.8647 37.8906H34.8335C36.9909 37.8906 38.7397 36.1417 38.7397 33.9844V16.0156C38.7397 13.8583 36.9909 12.1094 34.8335 12.1094Z" stroke="#64D2D9" stroke-width="2"/>
</svg>
