<svg width="127" height="117" viewBox="0 0 127 117" fill="none" xmlns="http://www.w3.org/2000/svg">
<path opacity="0.15" d="M26.7991 0.5C41.715 0.5 52.3131 12.5573 52.3131 28.7724C52.3131 36.672 51.1355 42.9086 46.0327 58.2921L27.1916 116.5H2.46262L16.986 54.5502C7.1729 50.8082 0.5 41.2455 0.5 28.7724C0.5 12.1416 11.8832 0.5 26.7991 0.5ZM100.986 0.5C115.902 0.5 126.5 12.5573 126.5 28.7724C126.5 36.672 125.322 42.9086 120.22 58.2921L101.378 116.5H76.6495L91.1729 54.5502C81.3598 50.8082 74.6869 41.2455 74.6869 28.7724C74.6869 12.1416 86.0701 0.5 100.986 0.5Z" fill="#2F383F"/>
</svg>
