<svg width="51" height="50" viewBox="0 0 51 50" fill="none" xmlns="http://www.w3.org/2000/svg">
<path d="M45.0651 40.7205L35.4586 31.114C35.4581 31.115 35.4571 31.1155 35.4566 31.1165C37.3541 28.458 38.4741 25.2055 38.4741 21.6895C38.4741 12.715 31.2001 5.43945 22.2241 5.43945C13.2481 5.43945 5.97412 12.715 5.97412 21.6895C5.97412 30.664 13.2481 37.9395 22.2241 37.9395C26.0611 37.9395 29.5846 36.607 32.3641 34.3835L41.8831 43.903C42.7616 44.7815 44.1861 44.7815 45.0646 43.903C45.9436 43.0235 45.9436 41.599 45.0651 40.7205ZM7.47412 21.6895C7.47412 13.556 14.0906 6.93945 22.2241 6.93945C30.3576 6.93945 36.9741 13.556 36.9741 21.6895C36.9741 29.823 30.3576 36.4395 22.2241 36.4395C14.0906 36.4395 7.47412 29.823 7.47412 21.6895Z" fill="#64D2D9"/>
<path d="M29.7241 19.9395C29.0821 19.9395 28.4851 20.128 27.9816 20.4495L24.8186 17.682C24.9191 17.369 24.9746 17.036 24.9746 16.6895C24.9746 14.8945 23.5201 13.4395 21.7246 13.4395C19.9291 13.4395 18.4746 14.8945 18.4746 16.6895C18.4746 17.6325 18.8786 18.479 19.5201 19.073L17.1231 23.068C16.8376 22.986 16.5366 22.9395 16.2246 22.9395C14.4291 22.9395 12.9746 24.3945 12.9746 26.1895C12.9746 27.9845 14.4291 29.4395 16.2246 29.4395C18.0201 29.4395 19.4746 27.9845 19.4746 26.1895C19.4746 25.2465 19.0706 24.4 18.4291 23.806L20.8261 19.811C21.1116 19.893 21.4126 19.9395 21.7246 19.9395C22.6251 19.9395 23.4391 19.5735 24.0271 18.9825L26.9351 21.527C26.6441 22.014 26.4741 22.581 26.4741 23.1895C26.4741 24.9845 27.9286 26.4395 29.7241 26.4395C31.5196 26.4395 32.9741 24.9845 32.9741 23.1895C32.9741 21.3945 31.5196 19.9395 29.7241 19.9395Z" fill="#64D2D9"/>
</svg>
