<svg width="51" height="50" viewBox="0 0 51 50" fill="none" xmlns="http://www.w3.org/2000/svg">
<g clip-path="url(#clip0_3659_7971)">
<path d="M39.0844 11.25C41.1432 11.25 42.8344 9.55882 42.8344 7.5C42.8344 5.44118 41.1432 3.75 39.0844 3.75C37.0256 3.75 35.3344 5.44118 35.3344 7.5C35.3344 9.55882 37.0256 11.25 39.0844 11.25ZM39.0844 5.22059C40.3344 5.22059 41.3638 6.25 41.3638 7.5C41.3638 8.75 40.3344 9.77941 39.0844 9.77941C37.8344 9.77941 36.805 8.75 36.805 7.5C36.805 6.25 37.8344 5.22059 39.0844 5.22059ZM33.7167 18.4559H44.452C44.8932 18.4559 45.1873 18.1618 45.1873 17.7206V16.1765C45.1873 13.8235 43.2756 11.9853 40.9961 11.9853H37.1726C34.8197 11.9853 32.9814 13.8971 32.9814 16.1765V17.7206C32.9814 18.1618 33.3491 18.4559 33.7167 18.4559ZM34.452 16.1765C34.452 14.7059 35.702 13.4559 37.1726 13.4559H40.9961C42.4667 13.4559 43.7167 14.7059 43.7167 16.1765V16.9853H34.452V16.1765Z" fill="#64D2D9"/>
<path d="M50.1139 11.8383C50.1139 5.73535 45.1874 0.735352 39.0845 0.735352C35.2609 0.735352 31.8786 2.72065 29.8933 5.66182H2.31977C1.87859 5.66182 1.58447 5.95594 1.58447 6.39712V41.3236C1.58447 41.7648 1.87859 42.0589 2.31977 42.0589H17.3198L15.5551 47.7942H12.0256C11.5845 47.7942 11.2904 48.0883 11.2904 48.5295C11.2904 48.9706 11.5845 49.2648 12.0256 49.2648H36.1433C36.5845 49.2648 36.8786 48.9706 36.8786 48.5295C36.8786 48.0883 36.5845 47.7942 36.1433 47.7942H32.6139L30.8492 42.0589H45.8492C46.2904 42.0589 46.5845 41.7648 46.5845 41.3236V20.0001C48.7168 17.9412 50.1139 15.0736 50.1139 11.8383ZM39.0845 2.20594C44.3786 2.20594 48.6433 6.54418 48.6433 11.8383C48.6433 17.1324 44.3786 21.4706 39.0845 21.4706C33.7904 21.4706 29.5256 17.1324 29.5256 11.8383C29.5256 6.54418 33.7904 2.20594 39.0845 2.20594ZM31.0698 47.7942H17.0992L18.8639 42.0589H29.2315L31.0698 47.7942ZM3.05506 40.5883V33.7501H45.1139V40.5883H3.05506ZM45.1139 32.2795H3.05506V7.13241H29.0845C28.4227 8.52947 28.0551 10.1471 28.0551 11.8383C28.0551 17.9412 32.9815 22.9412 39.0845 22.9412C41.2904 22.9412 43.3492 22.2795 45.1139 21.103V32.2795Z" fill="#64D2D9"/>
<path d="M24.0845 34.8534C22.8345 34.8534 21.8786 35.8828 21.8786 37.0593C21.8786 38.2358 22.8345 39.2652 24.0845 39.2652C25.3345 39.2652 26.2904 38.2358 26.2904 37.0593C26.2904 35.8828 25.3345 34.8534 24.0845 34.8534ZM24.0845 37.7946C23.6434 37.7946 23.3492 37.4269 23.3492 37.0593C23.3492 36.6181 23.7169 36.324 24.0845 36.324C24.4522 36.324 24.8198 36.6916 24.8198 37.0593C24.8198 37.5005 24.5257 37.7946 24.0845 37.7946ZM25.1139 27.8681H6.80512C6.36394 27.8681 6.06982 28.1622 6.06982 28.6034C6.06982 29.0446 6.36394 29.3387 6.80512 29.3387H25.1139C25.5551 29.3387 25.8492 29.0446 25.8492 28.6034C25.8492 28.1622 25.5551 27.8681 25.1139 27.8681ZM8.93747 27.0593C9.37865 27.0593 9.67277 26.7652 9.67277 26.324V23.4563C9.67277 23.0152 9.37865 22.721 8.93747 22.721C8.49629 22.721 8.20218 23.0152 8.20218 23.4563V26.324C8.20218 26.7652 8.49629 27.0593 8.93747 27.0593ZM12.761 27.0593C13.2022 27.0593 13.4963 26.7652 13.4963 26.324V20.4416C13.4963 20.0005 13.2022 19.7063 12.761 19.7063C12.3198 19.7063 12.0257 20.0005 12.0257 20.4416V26.324C12.0257 26.7652 12.3934 27.0593 12.761 27.0593ZM16.6581 27.0593C17.0992 27.0593 17.3934 26.7652 17.3934 26.324V18.1622C17.3934 17.721 17.0992 17.4269 16.6581 17.4269C16.2169 17.4269 15.9228 17.721 15.9228 18.1622V26.324C15.9228 26.7652 16.2169 27.0593 16.6581 27.0593ZM20.4816 27.0593C20.9228 27.0593 21.2169 26.7652 21.2169 26.324V15.9563C21.2169 15.5152 20.9228 15.221 20.4816 15.221C20.0404 15.221 19.7463 15.5152 19.7463 15.9563V26.324C19.7463 26.7652 20.1139 27.0593 20.4816 27.0593ZM24.3786 27.0593C24.8198 27.0593 25.1139 26.7652 25.1139 26.324V12.8681C25.1139 12.4269 24.8198 12.1328 24.3786 12.1328C23.9375 12.1328 23.6434 12.4269 23.6434 12.8681V26.324C23.6434 26.7652 23.9375 27.0593 24.3786 27.0593Z" fill="#64D2D9"/>
</g>
<defs>
<clipPath id="clip0_3659_7971">
<rect width="50" height="50" fill="white" transform="translate(0.849121)"/>
</clipPath>
</defs>
</svg>
