<svg width="123" height="139" viewBox="0 0 123 139" fill="none" xmlns="http://www.w3.org/2000/svg">
    <path
        d="M4.90578e-07 127.893V11.1068C-0.000581843 9.15308 0.517283 7.2338 1.50131 5.54276C2.48533 3.85172 3.90067 2.44878 5.60442 1.47559C7.30816 0.502406 9.24 -0.0065682 11.2049 6.39957e-05C13.1697 0.00669619 15.098 0.528698 16.7951 1.51336L117.465 59.9177C119.15 60.8959 120.547 62.2958 121.518 63.978C122.489 65.6602 123 67.5659 123 69.5055C123 71.4452 122.489 73.3509 121.518 75.0331C120.547 76.7153 119.15 78.1152 117.465 79.0934L16.7951 137.487C15.098 138.471 13.1697 138.993 11.2049 139C9.24 139.007 7.30816 138.498 5.60442 137.524C3.90067 136.551 2.48533 135.148 1.50131 133.457C0.517283 131.766 -0.000581843 129.847 4.90578e-07 127.893Z"
        fill="#F2EFEB" />
</svg>