<svg width="35" height="35" viewBox="0 0 35 35" fill="none" xmlns="http://www.w3.org/2000/svg">
<path d="M23.2695 0H11.6484C9.57715 0 7.88867 1.68848 7.88867 3.75977V31.2402C7.88867 33.3115 9.57715 35 11.6484 35H23.2695C25.3408 35 27.0293 33.3115 27.0293 31.2402V3.75977C27.0293 1.68848 25.3477 0 23.2695 0ZM16.0439 1.54492H18.9287C19.2637 1.54492 19.5303 1.85254 19.5303 2.22852C19.5303 2.60449 19.2637 2.91211 18.9287 2.91211H16.0439C15.709 2.91211 15.4424 2.60449 15.4424 2.22852C15.4424 1.85254 15.709 1.54492 16.0439 1.54492ZM13.3164 1.44238C13.7471 1.44238 14.1025 1.79102 14.1025 2.22852C14.1025 2.66602 13.7471 3.00781 13.3164 3.00781C12.8857 3.00781 12.5303 2.65918 12.5303 2.22168C12.5303 1.78418 12.8789 1.44238 13.3164 1.44238ZM17.4863 32.6143C16.7891 32.6143 16.2285 32.0537 16.2285 31.3564C16.2285 30.6592 16.7891 30.0986 17.4863 30.0986C18.1836 30.0986 18.7441 30.6592 18.7441 31.3564C18.7441 32.0537 18.1836 32.6143 17.4863 32.6143ZM24.8418 29.3604H10.083V4.55273H24.8418V29.3604Z" fill="#FFFFF8"/>
</svg>
