<svg width="30" height="30" viewBox="0 0 30 30" fill="none" xmlns="http://www.w3.org/2000/svg">
<path d="M29.6007 27.6723L21.8618 19.9333C23.603 17.7601 24.5498 15.0574 24.5454 12.2727C24.5454 5.49477 19.051 0 12.2727 0C5.49476 0 0 5.49477 0 12.2727C0 19.0507 5.49476 24.5455 12.2727 24.5455C15.1704 24.5455 17.8336 23.5411 19.9333 21.8615L27.6722 29.6005C27.7987 29.7273 27.949 29.8278 28.1144 29.8964C28.2799 29.965 28.4572 30.0002 28.6363 30C28.906 30 29.1696 29.9201 29.3939 29.7702C29.6181 29.6204 29.7929 29.4075 29.8961 29.1583C29.9994 28.9092 30.0264 28.635 29.9738 28.3705C29.9212 28.106 29.7914 27.863 29.6007 27.6723ZM12.2727 21.8182C7.0009 21.8182 2.72727 17.5445 2.72727 12.2727C2.72727 7.00091 7.0009 2.72727 12.2727 2.72727C17.5449 2.72727 21.8181 7.00091 21.8181 12.2727C21.8181 17.5445 17.5449 21.8182 12.2727 21.8182Z" fill="#2F383F"/>
</svg>
