<svg width="41" height="40" viewBox="0 0 41 40" fill="none" xmlns="http://www.w3.org/2000/svg">
<g clip-path="url(#clip0_3777_4683)">
<path d="M36.75 3.125H4.25C3.25544 3.125 2.30161 3.52009 1.59835 4.22335C0.895088 4.92661 0.5 5.88044 0.5 6.875L0.5 33.125C0.5 34.1196 0.895088 35.0734 1.59835 35.7767C2.30161 36.4799 3.25544 36.875 4.25 36.875H36.75C37.7446 36.875 38.6984 36.4799 39.4017 35.7767C40.1049 35.0734 40.5 34.1196 40.5 33.125V6.875C40.5 5.88044 40.1049 4.92661 39.4017 4.22335C38.6984 3.52009 37.7446 3.125 36.75 3.125ZM34.25 6.875H36.75V9.375H34.25V6.875ZM30.5 6.875H33V9.375H30.5V6.875ZM26.75 6.875H29.25V9.375H26.75V6.875ZM38 33.125C38 33.4565 37.8683 33.7745 37.6339 34.0089C37.3995 34.2433 37.0815 34.375 36.75 34.375H4.25C3.91848 34.375 3.60054 34.2433 3.36612 34.0089C3.1317 33.7745 3 33.4565 3 33.125V13.125H38V33.125Z" fill="#FF5143"/>
<path d="M14.7123 15.9189L7.7123 22.9189C7.48898 23.1573 7.36784 23.4736 7.3748 23.8002C7.37384 23.9647 7.40538 24.1278 7.46758 24.2801C7.52979 24.4324 7.62144 24.5709 7.7373 24.6877L14.7373 31.6814L16.506 29.9189L10.3873 23.8002L16.506 17.6877L14.7123 15.9189ZM26.2873 15.9189L24.5185 17.6877L30.6373 23.8002L24.5185 29.9189L26.2873 31.6814L33.2873 24.6877C33.5121 24.4478 33.6334 24.1289 33.6248 23.8002C33.6251 23.4701 33.4947 23.1533 33.2623 22.9189L26.2873 15.9189Z" fill="#FF5143"/>
<path d="M20.8361 16.0048L17.7104 31.6328L20.1619 32.1231L23.2875 16.4951L20.8361 16.0048Z" fill="#FF5143"/>
</g>
<defs>
<clipPath id="clip0_3777_4683">
<rect width="40" height="40" fill="white" transform="translate(0.5)"/>
</clipPath>
</defs>
</svg>
