<svg width="214" height="60" viewBox="0 0 214 60" fill="none" xmlns="http://www.w3.org/2000/svg">
<g clip-path="url(#clip0_2378_877)">
<path d="M58.9066 21.9483V33.4599H55.4448V21.9483L42.1638 0.164703H45.9109L57.2946 18.858L68.6783 0.164703H72.1876L58.9066 21.9526V21.9483Z" fill="#FF5143"/>
<path d="M98.9398 33.4599L91.3507 22.7588C90.4949 22.8541 89.6435 22.9018 88.6927 22.9018H79.7768V33.4599H76.2675V0.164703H88.6927C97.1376 0.164703 102.259 4.44687 102.259 11.5809C102.259 16.8123 99.506 20.4747 94.6698 22.048L102.782 33.4642H98.9398V33.4599ZM98.7496 11.5809C98.7496 6.25422 95.2403 3.2073 88.5976 3.2073H79.7768V19.9025H88.5976C95.2403 19.9025 98.7496 16.8123 98.7496 11.5766V11.5809Z" fill="#FF5143"/>
<path d="M115.873 3.2073H104.204V0.164703H131.051V3.2073H119.382V33.4599H115.873V3.2073Z" fill="#FF5143"/>
<path d="M136.648 0.164703H140.157V33.4642H136.648V0.164703Z" fill="#FF5143"/>
<path d="M146.653 19.2394V0.164703H150.162V19.0964C150.162 26.9933 153.862 30.608 160.314 30.608C166.767 30.608 170.514 26.9933 170.514 19.0964V0.164703H173.928V19.2394C173.928 28.8006 168.807 33.7459 160.314 33.7459C151.822 33.7459 146.653 28.8006 146.653 19.2394Z" fill="#FF5143"/>
<path d="M213.961 0.143036V33.4425H210.841L210.776 6.24989L197.784 29.208H195.749L182.706 6.41026V33.4425H179.339V0.143036H182.23L196.648 24.8305L210.923 0.143036H213.961Z" fill="#FF5143"/>
<path d="M3.3451 0L19.7551 28.8786L36.2083 0H39.8473L20.8831 33.4425H18.9642L0 0H3.3451Z" fill="#FF5143"/>
<path d="M34.2506 0L19.9237 24.9172L18.0566 22.0653L30.6721 0" fill="#FF5143"/>
<path d="M163.508 43.3938V59.7986H161.848V46.6747L155.422 57.7139H154.605L148.178 46.7441V59.7986H146.519V43.3938H147.945L155.05 55.5598L162.086 43.3938H163.512H163.508Z" fill="#434F5B"/>
<path d="M179.183 54.1555H168.902C169.087 56.7344 171.054 58.4464 173.738 58.4464C175.233 58.4464 176.564 57.9046 177.502 56.8297L178.435 57.9089C177.338 59.2222 175.631 59.9243 173.69 59.9243C169.857 59.9243 167.242 57.2978 167.242 53.6441C167.242 49.9904 169.788 47.3856 173.249 47.3856C176.711 47.3856 179.209 49.9427 179.209 53.6441C179.209 53.7871 179.187 53.9735 179.187 54.1599L179.183 54.1555ZM168.902 52.9116H177.619C177.407 50.4975 175.657 48.8115 173.249 48.8115C170.842 48.8115 169.113 50.4975 168.902 52.9116Z" fill="#434F5B"/>
<path d="M193.813 42.4099V59.803H192.222V57.3672C191.215 59.0315 189.512 59.92 187.477 59.92C183.972 59.92 181.353 57.3672 181.353 53.6398C181.353 49.9124 183.972 47.3812 187.477 47.3812C189.439 47.3812 191.124 48.2264 192.153 49.817V42.4099H193.813ZM192.175 53.6398C192.175 50.7575 190.213 48.8332 187.619 48.8332C185.026 48.8332 183.038 50.7532 183.038 53.6398C183.038 56.5263 185 58.4464 187.619 58.4464C190.238 58.4464 192.175 56.5263 192.175 53.6398Z" fill="#434F5B"/>
<path d="M198.061 43.5845C198.061 42.9517 198.597 42.4142 199.275 42.4142C199.954 42.4142 200.49 42.93 200.49 43.5628C200.49 44.2433 199.976 44.7807 199.275 44.7807C198.575 44.7807 198.061 44.2389 198.061 43.5845ZM198.437 47.4722H200.097V59.7986H198.437V47.4722Z" fill="#434F5B"/>
<path d="M214 52.1618V59.803H212.41V57.8829C211.662 59.1485 210.214 59.92 208.178 59.92C205.395 59.92 203.692 58.4681 203.692 56.3356C203.692 54.4373 204.907 52.8423 208.438 52.8423H212.34V52.0925C212.34 49.9817 211.148 48.8332 208.857 48.8332C207.267 48.8332 205.771 49.3966 204.769 50.2851L204.021 49.0412C205.261 47.988 207.081 47.3769 209.021 47.3769C212.202 47.3769 214 48.9719 214 52.1575V52.1618ZM212.34 56.1016V54.0862H208.485C206.1 54.0862 205.33 55.0267 205.33 56.288C205.33 57.7182 206.476 58.6067 208.438 58.6067C210.4 58.6067 211.688 57.7139 212.34 56.0973V56.1016Z" fill="#434F5B"/>
</g>
<defs>
<clipPath id="clip0_2378_877">
<rect width="214" height="59.92" fill="white"/>
</clipPath>
</defs>
</svg>
