<svg width="1920" height="57" viewBox="0 0 1920 57" fill="none" xmlns="http://www.w3.org/2000/svg">
<path d="M-36.5 0C-37.6046 0 -38.5 0.89543 -38.5 2C-38.5 3.10457 -37.6046 4 -36.5 4V0ZM584.087 47.058L585.55 45.6934L584.087 47.058ZM602.364 55V53V55ZM549.446 9.942L547.984 11.3066L549.446 9.942ZM-36.5 4H531.169V0H-36.5V4ZM547.984 11.3066L582.625 48.4226L585.55 45.6934L550.908 8.57736L547.984 11.3066ZM602.364 57L2073 57V53L602.364 53V57ZM582.625 48.4226C587.732 53.8938 594.88 57 602.364 57V53C595.989 53 589.899 50.3539 585.55 45.6934L582.625 48.4226ZM531.169 4C537.544 4 543.634 6.64606 547.984 11.3066L550.908 8.57736C545.801 3.10624 538.653 0 531.169 0V4Z" fill="#F9C5C5"/>
</svg>
