<svg xmlns="http://www.w3.org/2000/svg" width="801" height="100" viewBox="0 0 801 100" fill="none">
  <path d="M2.5 0C1.39543 0 0.5 0.89543 0.5 2C0.5 3.10457 1.39543 4 2.5 4V0ZM231.605 90.4322L229.905 91.4863L231.605 90.4322ZM181.459 9.56778L183.159 8.51375L181.459 9.56778ZM2.5 4H167.861V0H2.5V4ZM179.759 10.6218L229.905 91.4863L233.304 89.3782L183.159 8.51375L179.759 10.6218ZM245.202 100H800.5V96H245.202V100ZM229.905 91.4863C233.188 96.7798 238.974 100 245.202 100V96C240.358 96 235.857 93.4954 233.304 89.3782L229.905 91.4863ZM167.861 4C172.706 4 177.206 6.50462 179.759 10.6218L183.159 8.51375C179.876 3.22022 174.09 0 167.861 0V4Z" fill="#FF5143"/>
</svg>