<svg width="98" height="86" viewBox="0 0 98 86" fill="none" xmlns="http://www.w3.org/2000/svg">
<path d="M98 37C98 27.2533 92.8375 17.9058 83.6482 11.0138C74.459 4.12186 61.9956 0.25 49 0.25C36.0044 0.25 23.5411 4.12186 14.3518 11.0138C5.16249 17.9058 0 27.2533 0 37C0 46.7467 5.16249 56.0942 14.3518 62.9862C23.5411 69.8781 36.0044 73.75 49 73.75H55.125C61.25 79.875 73.5 86 85.75 86C82.6875 82.9375 79.625 73.75 79.625 65.7109C85.363 62.2654 89.9939 57.8958 93.1746 52.9258C96.3554 47.9559 98.0046 42.5129 98 37Z" fill="#FF7E7B"/>
<path d="M61.7281 22L47.48 46.6485L49.7289 50.12L65.72 22H61.7281Z" fill="#FFFECE"/>
<path d="M30.026 22L48.9059 54.2531L67.9739 22H71.7999L50.0978 60H47.9025L26.2 22H30.026Z" fill="#FFFECE"/>
</svg>
