<svg width="1920" height="57" viewBox="0 0 1920 57" fill="none" xmlns="http://www.w3.org/2000/svg">
<path d="M-42.5 0C-43.6046 0 -44.5 0.89543 -44.5 2C-44.5 3.10457 -43.6046 4 -42.5 4V0ZM650.087 47.058L648.625 48.4226L650.087 47.058ZM668.364 55V53V55ZM615.446 9.942L616.908 8.57736L615.446 9.942ZM-42.5 4H597.169V0H-42.5V4ZM613.984 11.3066L648.625 48.4226L651.55 45.6934L616.908 8.57736L613.984 11.3066ZM668.364 57L2139 57V53L668.364 53V57ZM648.625 48.4226C653.732 53.8938 660.88 57 668.364 57V53C661.989 53 655.899 50.3539 651.55 45.6934L648.625 48.4226ZM597.169 4C603.544 4 609.634 6.64606 613.984 11.3066L616.908 8.57736C611.801 3.10624 604.653 0 597.169 0V4Z" fill="#BAD3D2"/>
</svg>
