<svg width="1920" height="57" viewBox="0 0 1920 57" fill="none" xmlns="http://www.w3.org/2000/svg">
<path d="M-3 0C-4.10457 0 -5 0.89543 -5 2C-5 3.10457 -4.10457 4 -3 4L-3 0ZM432.087 47.058L430.625 48.4226L432.087 47.058ZM397.446 9.942L398.908 8.57736L397.446 9.942ZM-3 4H379.169V0H-3L-3 4ZM395.984 11.3066L430.625 48.4226L433.55 45.6934L398.908 8.57736L395.984 11.3066ZM450.364 57L1921 57V53L450.364 53V57ZM430.625 48.4226C435.732 53.8938 442.88 57 450.364 57V53C443.989 53 437.899 50.3539 433.55 45.6934L430.625 48.4226ZM379.169 4C385.545 4 391.634 6.64606 395.984 11.3066L398.908 8.57736C393.801 3.10624 386.653 0 379.169 0V4Z" fill="#FF5143"/>
</svg>
