<svg width="1920" height="119" viewBox="0 0 1920 119" fill="none" xmlns="http://www.w3.org/2000/svg">
<path d="M-73 0C-74.1046 0 -75 0.89543 -75 2C-75 3.10457 -74.1046 4 -73 4L-73 0ZM442.405 108.407L440.896 109.719L442.405 108.407ZM461.269 117V115V117ZM357.332 10.5935L358.841 9.281L357.332 10.5935ZM-73 4H338.469V0H-73L-73 4ZM355.823 11.906L440.896 109.719L443.914 107.094L358.841 9.281L355.823 11.906ZM461.269 119L1997 119V115L461.269 115V119ZM440.896 109.719C446.024 115.615 453.455 119 461.269 119V115C454.612 115 448.283 112.116 443.914 107.094L440.896 109.719ZM338.469 4C345.125 4 351.455 6.88366 355.823 11.906L358.841 9.281C353.713 3.38516 346.283 0 338.469 0V4Z" fill="#FF5143"/>
</svg>
