<svg width="1920" height="57" viewBox="0 0 1920 57" fill="none" xmlns="http://www.w3.org/2000/svg">
<path d="M-79 0C-80.1046 0 -81 0.89543 -81 2C-81 3.10457 -80.1046 4 -79 4V0ZM706.054 47.058L707.516 45.6934L706.054 47.058ZM671.413 9.942L669.95 11.3066L671.413 9.942ZM-79 4H653.136V0H-79V4ZM669.95 11.3066L704.592 48.4226L707.516 45.6934L672.875 8.57736L669.95 11.3066ZM724.331 57L2135 57V53L724.331 53V57ZM704.592 48.4226C709.699 53.8938 716.847 57 724.331 57V53C717.956 53 711.866 50.3539 707.516 45.6934L704.592 48.4226ZM653.136 4C659.511 4 665.601 6.64606 669.95 11.3066L672.875 8.57736C667.768 3.10624 660.62 0 653.136 0V4Z" fill="#72777A"/>
</svg>
