<svg xmlns="http://www.w3.org/2000/svg" width="1920" height="57" viewBox="0 0 1920 57" fill="none">
  <path d="M-2.5 0C-3.60457 0 -4.5 0.89543 -4.5 2C-4.5 3.10457 -3.60457 4 -2.5 4L-2.5 0ZM415.267 28.5L413.804 29.8646V29.8646L415.267 28.5ZM432.587 47.058L431.125 48.4226L432.587 47.058ZM397.946 9.94201L399.408 8.57737L397.946 9.94201ZM-2.5 4H379.669V0H-2.5L-2.5 4ZM450.864 57L1921.5 57V53L450.864 53V57ZM396.484 11.3066L413.804 29.8646L416.729 27.1354L399.408 8.57737L396.484 11.3066ZM413.804 29.8646L431.125 48.4226L434.05 45.6934L416.729 27.1354L413.804 29.8646ZM450.864 53C444.489 53 438.399 50.3539 434.05 45.6934L431.125 48.4226C436.232 53.8938 443.38 57 450.864 57V53ZM379.669 4C386.045 4 392.134 6.64606 396.484 11.3066L399.408 8.57737C394.301 3.10625 387.153 0 379.669 0V4Z" fill="#D7E2E1"/>
</svg>