<svg xmlns="http://www.w3.org/2000/svg" width="1920" height="57" viewBox="0 0 1920 57" fill="none">
  <path d="M-91.5 0C-92.6046 0 -93.5 0.89543 -93.5 2C-93.5 3.10457 -92.6046 4 -91.5 4V0ZM626.087 47.058L624.625 48.4226L626.087 47.058ZM644.364 55V53V55ZM591.446 9.942L592.908 8.57736L591.446 9.942ZM-91.5 4H573.169V0H-91.5V4ZM589.984 11.3066L624.625 48.4226L627.55 45.6934L592.908 8.57736L589.984 11.3066ZM644.364 57L2115 57V53L644.364 53V57ZM624.625 48.4226C629.732 53.8938 636.88 57 644.364 57V53C637.989 53 631.899 50.3539 627.55 45.6934L624.625 48.4226ZM573.169 4C579.544 4 585.634 6.64606 589.984 11.3066L592.908 8.57736C587.801 3.10624 580.653 0 573.169 0V4Z" fill="#2F383F"/>
</svg>