<svg width="1920" height="75" viewBox="0 0 1920 75" fill="none" xmlns="http://www.w3.org/2000/svg">
<path d="M0 0C-1.10457 0 -2 0.89543 -2 2C-2 3.10457 -1.10457 4 0 4L0 0ZM308.509 62.7718L306.895 63.9535L308.509 62.7718ZM328.678 73V71V73ZM251.322 2V0V2ZM0 4H251.322V0H0L0 4ZM269.878 13.41L306.895 63.9535L310.122 61.59L273.105 11.0465L269.878 13.41ZM328.678 75L1927 75V71L328.678 71V75ZM306.895 63.9535C311.981 70.8969 320.072 75 328.678 75V71C321.347 71 314.454 67.5048 310.122 61.59L306.895 63.9535ZM251.322 4C258.653 4 265.546 7.4952 269.878 13.41L273.105 11.0465C268.019 4.10306 259.928 0 251.322 0V4Z" fill="#64D2D9"/>
</svg>
