<svg width="1000" height="144" viewBox="0 0 1000 144" fill="none" xmlns="http://www.w3.org/2000/svg">
<path d="M2 0.23999C0.89543 0.23999 0 1.13542 0 2.23999C0 3.34456 0.89543 4.23999 2 4.23999V0.23999ZM205.176 128.146L206.935 127.193L205.176 128.146ZM2 4.23999H122.096V0.23999H2V4.23999ZM142.32 16.2867L203.418 129.098L206.935 127.193L145.837 14.3817L142.32 16.2867ZM227.159 143.24H1004V139.24H227.159V143.24ZM203.418 129.098C208.137 137.812 217.25 143.24 227.159 143.24V139.24C218.718 139.24 210.955 134.616 206.935 127.193L203.418 129.098ZM122.096 4.23999C130.537 4.23999 138.3 8.86405 142.32 16.2867L145.837 14.3817C141.118 5.66823 132.005 0.23999 122.096 0.23999V4.23999Z" fill="#D7E2E1"/>
</svg>
