<svg width="1676" height="335" viewBox="0 0 1676 335" fill="none" xmlns="http://www.w3.org/2000/svg">
<g clip-path="url(#clip0_3111_5476)">
<path opacity="0.75" d="M-0.456543 123.034C6.69806 123.034 149.695 123.034 226.694 123.034C229.201 123.034 231.582 123.891 233.534 125.462L388.757 250.353C390.71 251.924 393.14 252.78 395.647 252.78H649.307C652.181 252.78 654.94 251.655 656.994 249.645L844.247 66.3903C846.301 64.3803 849.06 63.2547 851.934 63.2547H1058.14C1060.68 63.2547 1063.15 64.1382 1065.12 65.7544L1289.63 250.281C1291.6 251.897 1294.06 252.78 1296.61 252.78H2327.47" stroke="#6E6E6E" stroke-width="1.22114" stroke-linejoin="round"/>
<path d="M-0.456543 334.902C2.71081 334.902 468.926 334.902 516.174 334.902C518.862 334.902 521.135 333.917 523.146 332.133L632.7 234.931C634.711 233.147 637.306 232.162 639.994 232.162H1325.12C1328 232.162 1330.76 233.29 1332.81 235.303L1431.22 331.76C1433.27 333.774 1436.03 334.902 1438.91 334.902L1682.48 334.902C1685.36 334.902 1688.13 333.766 1690.19 331.74L1976.26 49.8743C1978.32 47.8484 1981.09 46.7127 1983.97 46.7127H2327.47" stroke="#BAD3D2" stroke-width="1.22114" stroke-linejoin="round"/>
<path d="M-0.456543 8.24677L160.729 8.24677C163.263 8.24677 165.719 9.12218 167.681 10.7248L334.31 146.81C336.273 148.413 338.728 149.289 341.262 149.289H718.013C720.388 149.289 722.699 150.058 724.6 151.481L880.46 268.174C882.361 269.598 884.672 270.367 887.046 270.367H1425.4C1428 270.367 1430.52 269.442 1432.51 267.758L1569.11 151.897C1571.09 150.213 1573.61 149.289 1576.21 149.289H2327.47" stroke="#FF5143" stroke-width="1.22114" stroke-linejoin="round"/>
<path d="M-1.0625 263.465H315.826C318.292 263.465 320.687 262.636 322.624 261.11L526.018 100.966C527.955 99.4407 530.35 98.6111 532.816 98.6111H839.808C842.178 98.6111 844.484 99.3774 846.383 100.796L918.397 154.572C920.296 155.991 922.603 156.757 924.973 156.757H1448.63C1451.07 156.757 1453.44 155.944 1455.37 154.446L1524.29 100.921C1526.21 99.424 1528.59 98.6111 1531.03 98.6111H2327.47" stroke="#64D2D9" stroke-width="1.22114" stroke-linejoin="round"/>
<path d="M-0.456543 175.543H162.431C164.909 175.543 167.313 176.38 169.255 177.918L325.121 301.387C327.063 302.926 329.468 303.763 331.946 303.763H483.879C486.585 303.763 489.195 302.765 491.21 300.96L811.379 14.2792C813.394 12.4745 816.005 11.4766 818.71 11.4766L1214.67 11.4766C1217.33 11.4766 1219.91 12.4454 1221.91 14.2026L1549.11 301.037C1551.11 302.794 1553.69 303.763 1556.35 303.763H1811.76H2327.47" stroke="#FF7E7B" stroke-width="1.22114" stroke-linejoin="round"/>
<path d="M-0.456543 68.6933L319.921 68.6933C322.152 68.6933 324.316 69.4569 326.053 70.8573L485.396 199.328C487.133 200.729 489.297 201.492 491.528 201.492H557.397C559.694 201.492 561.917 200.683 563.677 199.206L645.077 130.892C646.836 129.415 649.06 128.606 651.357 128.606H1248.22C1250.5 128.606 1252.7 129.402 1254.46 130.857L1336.88 199.241C1338.63 200.696 1340.84 201.492 1343.11 201.492H2327.47" stroke="#282828" stroke-width="1.22114" stroke-linejoin="round"/>
<circle cx="634.301" cy="233.061" r="7.93742" fill="#BAD3D2"/>
<circle cx="320.617" cy="262.855" r="7.93742" fill="#64D2D9"/>
<circle cx="1451.69" cy="157.656" r="7.93742" fill="#64D2D9"/>
<circle opacity="0.75" cx="229.125" cy="124.255" r="7.93742" fill="#6E6E6E"/>
<circle cx="561.912" cy="200.889" r="7.93742" fill="#282828"/>
<circle cx="164.78" cy="175.543" r="7.93742" fill="#FF7E7B"/>
<circle cx="813.262" cy="11.8736" r="7.93742" fill="#FF7E7B"/>
<circle cx="334.692" cy="147.602" r="7.93742" fill="#FF5143"/>
<circle cx="1435.6" cy="270.261" r="7.93742" fill="#FF5143"/>
<path d="M-100.888 209.54H56.3092C58.5887 209.54 60.8006 210.315 62.582 211.737L98.0069 240.019C99.7883 241.441 102 242.216 104.28 242.216H251.115C253.305 242.216 255.434 241.501 257.181 240.18L480.398 71.3228C482.144 70.0019 484.274 69.2871 486.463 69.2871H670.016C672.428 69.2871 674.76 68.4198 676.586 66.8435L705.863 41.5687C707.689 39.9924 710.021 39.1251 712.433 39.1251H1303.82C1306.28 39.1251 1308.66 40.0295 1310.5 41.6667L1381.65 104.951C1383.49 106.588 1385.87 107.492 1388.33 107.492H1440.96C1443.19 107.492 1445.36 106.749 1447.13 105.379L1500.58 63.8603C1502.34 62.4903 1504.51 61.7466 1506.75 61.7466H1727.91" stroke="#BAD3D2" stroke-width="1.0054"/>
<circle cx="709.706" cy="39.0193" r="7.93742" fill="#90D6D6"/>
<path opacity="0.75" d="M395.858 49H389.328L380.282 36.1195C379.443 36.1794 378.544 36.2393 377.646 36.2393H367.281V49H361.29V7.06343H377.646C388.549 7.06343 395.139 12.5751 395.139 21.6813C395.139 28.1515 391.784 32.8245 385.913 34.9213L395.858 49ZM377.466 31.147C385.134 31.147 389.148 27.6723 389.148 21.6813C389.148 15.6904 385.134 12.2755 377.466 12.2755H367.281V31.147H377.466ZM421.593 49.4793C410.57 49.4793 403.86 43.069 403.86 30.9074V7.06343H409.851V30.6677C409.851 39.9537 414.104 44.1473 421.653 44.1473C429.202 44.1473 433.515 39.9537 433.515 30.6677V7.06343H439.326V30.9074C439.326 43.069 432.676 49.4793 421.593 49.4793ZM451.009 49V7.06343H457V49H451.009ZM468.957 49V7.06343H486.63C500.109 7.06343 509.276 15.5706 509.276 28.0317C509.276 40.4929 500.109 49 486.63 49H468.957ZM474.947 43.7879H486.27C496.635 43.7879 503.285 37.4375 503.285 28.0317C503.285 18.6259 496.635 12.2755 486.27 12.2755H474.947V43.7879ZM536.784 49.4793C523.904 49.4793 514.438 40.3131 514.438 28.0317C514.438 15.7503 523.904 6.58416 536.784 6.58416C549.545 6.58416 559.011 15.6904 559.011 28.0317C559.011 40.373 549.545 49.4793 536.784 49.4793ZM536.784 44.1473C546.07 44.1473 553.02 37.3177 553.02 28.0317C553.02 18.7458 546.07 11.9161 536.784 11.9161C527.378 11.9161 520.429 18.7458 520.429 28.0317C520.429 37.3177 527.378 44.1473 536.784 44.1473Z" fill="#6E6E6E"/>
<path opacity="0.75" d="M1077.63 216V178.471H1093.45C1105.51 178.471 1113.71 186.084 1113.71 197.236C1113.71 208.387 1105.51 216 1093.45 216H1077.63ZM1082.99 211.336H1093.12C1102.4 211.336 1108.35 205.653 1108.35 197.236C1108.35 188.818 1102.4 183.136 1093.12 183.136H1082.99V211.336ZM1121.39 216V178.471H1126.75V216H1121.39ZM1148.38 216.429C1142.65 216.429 1137.02 214.499 1134.02 211.711L1136 207.529C1138.79 210.049 1143.56 211.872 1148.38 211.872C1154.87 211.872 1157.66 209.352 1157.66 206.082C1157.66 196.914 1134.93 202.704 1134.93 188.765C1134.93 182.975 1139.43 178.042 1149.3 178.042C1153.69 178.042 1158.25 179.222 1161.36 181.366L1159.59 185.655C1156.32 183.564 1152.62 182.599 1149.3 182.599C1142.92 182.599 1140.18 185.28 1140.18 188.55C1140.18 197.718 1162.91 191.982 1162.91 205.76C1162.91 211.497 1158.3 216.429 1148.38 216.429ZM1210.15 216H1205L1204.95 188.658L1191.39 211.443H1188.92L1175.36 188.818V216H1170.21V178.471H1174.61L1190.26 204.849L1205.7 178.471H1210.1L1210.15 216ZM1220.88 216V178.471H1226.24V216H1220.88ZM1263.85 178.471H1269.21V216H1264.82L1242.3 188.014V216H1236.94V178.471H1241.33L1263.85 206.457V178.471ZM1295.46 216.429C1285.59 216.429 1279.59 210.692 1279.59 199.809V178.471H1284.95V199.595C1284.95 207.905 1288.76 211.657 1295.51 211.657C1302.27 211.657 1306.13 207.905 1306.13 199.595V178.471H1311.33V199.809C1311.33 210.692 1305.38 216.429 1295.46 216.429ZM1321.78 216V178.471H1327.14V216H1321.78ZM1368.78 216H1362.93L1354.84 204.473C1354.09 204.527 1353.28 204.581 1352.48 204.581H1343.2V216H1337.84V178.471H1352.48C1362.24 178.471 1368.13 183.404 1368.13 191.553C1368.13 197.343 1365.13 201.525 1359.88 203.401L1368.78 216ZM1352.32 200.023C1359.18 200.023 1362.77 196.914 1362.77 191.553C1362.77 186.191 1359.18 183.136 1352.32 183.136H1343.2V200.023H1352.32ZM1390.12 216V178.471H1395.48V216H1390.12ZM1446.12 216H1440.98L1440.92 188.658L1427.36 211.443H1424.89L1411.33 188.818V216H1406.18V178.471H1410.58L1426.23 204.849L1441.67 178.471H1446.07L1446.12 216ZM1471.49 178.471C1481.24 178.471 1487.14 183.404 1487.14 191.553C1487.14 199.702 1481.24 204.634 1471.49 204.634H1462.21V216H1456.85V178.471H1471.49ZM1471.33 199.97C1478.19 199.97 1481.78 196.914 1481.78 191.553C1481.78 186.191 1478.19 183.136 1471.33 183.136H1462.21V199.97H1471.33ZM1520.64 216L1516.51 206.618H1496.56L1492.44 216H1486.91L1503.91 178.471H1509.22L1526.27 216H1520.64ZM1498.44 202.329H1514.63L1506.54 183.94L1498.44 202.329ZM1547.58 216.429C1536.22 216.429 1527.75 208.333 1527.75 197.236C1527.75 186.138 1536.22 178.042 1547.64 178.042C1553.43 178.042 1558.47 180.026 1561.9 183.886L1558.41 187.264C1555.52 184.208 1551.98 182.814 1547.85 182.814C1539.38 182.814 1533.11 188.926 1533.11 197.236C1533.11 205.546 1539.38 211.657 1547.85 211.657C1551.98 211.657 1555.52 210.21 1558.41 207.154L1561.9 210.532C1558.47 214.392 1553.43 216.429 1547.58 216.429ZM1576.04 216V183.136H1563.18V178.471H1594.22V183.136H1581.35V216H1576.04ZM1615.94 216.429C1604.41 216.429 1595.94 208.226 1595.94 197.236C1595.94 186.245 1604.41 178.042 1615.94 178.042C1627.36 178.042 1635.83 186.191 1635.83 197.236C1635.83 208.28 1627.36 216.429 1615.94 216.429ZM1615.94 211.657C1624.25 211.657 1630.47 205.546 1630.47 197.236C1630.47 188.926 1624.25 182.814 1615.94 182.814C1607.52 182.814 1601.3 188.926 1601.3 197.236C1601.3 205.546 1607.52 211.657 1615.94 211.657Z" fill="#6E6E6E"/>
<path opacity="0.75" d="M7.27052 94.4544H22.2364L21.5297 97.988H6.5638L7.27052 94.4544ZM5.02564 107.383H22.0285L21.3218 111H0.161735L5.98179 81.8997H26.5183L25.8116 85.5165H9.39068L5.02564 107.383ZM36.5754 111.333C35.1065 111.333 33.6654 111.18 32.2519 110.875C30.8662 110.543 29.5913 110.113 28.4273 109.587C27.291 109.06 26.3765 108.464 25.6836 107.799L27.5127 104.473C28.261 105.138 29.1341 105.72 30.1318 106.219C31.1572 106.718 32.2381 107.106 33.3744 107.383C34.5384 107.66 35.7301 107.799 36.9496 107.799C38.5016 107.799 39.8734 107.605 41.0652 107.217C42.2569 106.829 43.1715 106.275 43.8089 105.554C44.4741 104.806 44.8066 103.905 44.8066 102.852C44.8066 101.993 44.5295 101.286 43.9752 100.732C43.4209 100.177 42.7003 99.734 41.8135 99.4015C40.9543 99.0412 39.9843 98.7225 38.9034 98.4453C37.8503 98.1404 36.7833 97.8079 35.7024 97.4476C34.6492 97.0596 33.6792 96.5884 32.7924 96.0341C31.9332 95.4799 31.2265 94.7731 30.6722 93.914C30.1456 93.0271 29.8823 91.9185 29.8823 90.5882C29.8823 88.7314 30.3951 87.1378 31.4205 85.8075C32.4459 84.4495 33.8594 83.4102 35.6608 82.6896C37.49 81.9413 39.5963 81.5671 41.9797 81.5671C43.7812 81.5671 45.4995 81.775 47.1347 82.1907C48.7698 82.6064 50.1694 83.2162 51.3334 84.0199L49.6705 87.4288C48.5897 86.6528 47.3702 86.0708 46.0122 85.6828C44.6542 85.2948 43.2408 85.1008 41.7719 85.1008C40.1922 85.1008 38.8203 85.3086 37.6563 85.7243C36.4923 86.14 35.5915 86.7359 34.9541 87.5119C34.3167 88.2602 33.9841 89.1471 33.9564 90.1725C33.9564 91.0594 34.2197 91.78 34.7462 92.3342C35.2728 92.8885 35.9795 93.3458 36.8664 93.7061C37.7533 94.0664 38.7233 94.4128 39.7764 94.7454C40.8573 95.0503 41.9243 95.3828 42.9775 95.7431C44.0306 96.0757 45.0006 96.5191 45.8875 97.0734C46.8021 97.6 47.5227 98.279 48.0492 99.1105C48.6035 99.9419 48.8807 100.995 48.8807 102.27C48.8807 104.127 48.3541 105.748 47.3009 107.134C46.2755 108.492 44.8343 109.531 42.9775 110.252C41.1483 110.972 39.0143 111.333 36.5754 111.333ZM58.3727 111L63.4444 85.5165H53.5088L54.2155 81.8997H78.2856L77.5373 85.5165H67.6016L62.4883 111H58.3727ZM76.5776 111L82.3976 81.8997H93.2479C96.6568 81.8997 99.2897 82.648 101.147 84.1446C103.031 85.6412 103.973 87.7336 103.973 90.4219C103.973 92.8608 103.419 94.9533 102.311 96.6993C101.23 98.4453 99.6638 99.7895 97.6129 100.732C95.562 101.646 93.1232 102.104 90.2963 102.104H80.7763L82.8965 100.191L80.7763 111H76.5776ZM96.1579 111L90.1716 100.441H94.6197L100.565 111H96.1579ZM82.8133 100.649L81.3999 98.57H90.421C93.3865 98.57 95.6868 97.9187 97.3219 96.6161C98.9848 95.2858 99.8162 93.3458 99.8162 90.7961C99.8162 89.0501 99.2204 87.7336 98.0286 86.8468C96.8369 85.9599 95.1186 85.5165 92.8737 85.5165H84.1436L86.2638 83.3963L82.8133 100.649ZM101.96 111L121 81.8997H125.115L132.473 111H128.358L121.873 84.1446H123.536L106.45 111H101.96ZM109.027 103.725L110.856 100.399H127.194L127.776 103.725H109.027ZM140.716 111L145.788 85.5165H135.852L136.559 81.8997H160.629L159.88 85.5165H149.945L144.831 111H140.716ZM166.029 94.4544H180.995L180.289 97.988H165.323L166.029 94.4544ZM163.785 107.383H180.787L180.081 111H158.921L164.741 81.8997H185.277L184.57 85.5165H168.15L163.785 107.383ZM200.532 111.333C197.649 111.333 195.169 110.82 193.09 109.794C191.04 108.769 189.446 107.342 188.31 105.513C187.201 103.656 186.647 101.508 186.647 99.0689C186.647 96.6577 187.062 94.399 187.894 92.2927C188.725 90.1587 189.917 88.2879 191.469 86.6805C193.049 85.073 194.933 83.8259 197.123 82.939C199.34 82.0244 201.82 81.5671 204.564 81.5671C207.114 81.5671 209.331 81.9552 211.216 82.7312C213.128 83.5072 214.652 84.6157 215.789 86.0569L212.795 88.5928C211.825 87.4565 210.634 86.6251 209.22 86.0985C207.835 85.5442 206.227 85.267 204.398 85.267C202.319 85.267 200.449 85.6273 198.786 86.3479C197.123 87.0408 195.696 88.0108 194.504 89.2579C193.312 90.4774 192.398 91.9185 191.76 93.5814C191.123 95.2166 190.804 96.9626 190.804 98.8195C190.804 100.565 191.178 102.104 191.926 103.434C192.702 104.737 193.839 105.762 195.335 106.51C196.86 107.259 198.744 107.633 200.989 107.633C202.624 107.633 204.135 107.356 205.52 106.801C206.934 106.247 208.264 105.443 209.511 104.39L211.133 107.716C209.719 108.852 208.084 109.739 206.227 110.376C204.398 111.014 202.5 111.333 200.532 111.333ZM207.308 107.092L209.428 96.2836H213.419L211.133 107.716L207.308 107.092ZM218.011 111L223.831 81.8997H227.988L222.168 111H218.011ZM223.166 79.5301L229.443 74.1258H234.64L227.074 79.5301H223.166ZM226.058 111L245.098 81.8997H249.214L256.572 111H252.456L245.971 84.1446H247.634L230.548 111H226.058ZM233.125 103.725L234.955 100.399H251.292L251.874 103.725H233.125ZM269.477 111.333C268.008 111.333 266.567 111.18 265.153 110.875C263.768 110.543 262.493 110.113 261.329 109.587C260.192 109.06 259.278 108.464 258.585 107.799L260.414 104.473C261.162 105.138 262.035 105.72 263.033 106.219C264.059 106.718 265.139 107.106 266.276 107.383C267.44 107.66 268.631 107.799 269.851 107.799C271.403 107.799 272.775 107.605 273.966 107.217C275.158 106.829 276.073 106.275 276.71 105.554C277.375 104.806 277.708 103.905 277.708 102.852C277.708 101.993 277.431 101.286 276.876 100.732C276.322 100.177 275.602 99.734 274.715 99.4015C273.856 99.0412 272.886 98.7225 271.805 98.4453C270.752 98.1404 269.685 97.8079 268.604 97.4476C267.551 97.0596 266.581 96.5884 265.694 96.0341C264.835 95.4799 264.128 94.7731 263.573 93.914C263.047 93.0271 262.784 91.9185 262.784 90.5882C262.784 88.7314 263.296 87.1378 264.322 85.8075C265.347 84.4495 266.761 83.4102 268.562 82.6896C270.391 81.9413 272.498 81.5671 274.881 81.5671C276.682 81.5671 278.401 81.775 280.036 82.1907C281.671 82.6064 283.071 83.2162 284.235 84.0199L282.572 87.4288C281.491 86.6528 280.272 86.0708 278.914 85.6828C277.555 85.2948 276.142 85.1008 274.673 85.1008C273.093 85.1008 271.722 85.3086 270.558 85.7243C269.394 86.14 268.493 86.7359 267.855 87.5119C267.218 88.2602 266.885 89.1471 266.858 90.1725C266.858 91.0594 267.121 91.78 267.648 92.3342C268.174 92.8885 268.881 93.3458 269.768 93.7061C270.655 94.0664 271.625 94.4128 272.678 94.7454C273.759 95.0503 274.826 95.3828 275.879 95.7431C276.932 96.0757 277.902 96.5191 278.789 97.0734C279.703 97.6 280.424 98.279 280.951 99.1105C281.505 99.9419 281.782 100.995 281.782 102.27C281.782 104.127 281.255 105.748 280.202 107.134C279.177 108.492 277.736 109.531 275.879 110.252C274.05 110.972 271.916 111.333 269.477 111.333ZM296.65 111L302.47 81.8997H306.627L300.807 111H296.65ZM309.104 111L314.924 81.8997H318.333L332.301 105.928L331.054 105.762L335.793 81.8997H339.95L334.13 111H330.721L316.753 86.9715L318 87.1378L313.261 111H309.104ZM349.533 94.4544H364.499L363.792 97.988H348.827L349.533 94.4544ZM347.288 107.383H364.291L363.585 111H342.425L348.245 81.8997H368.781L368.074 85.5165H351.653L347.288 107.383ZM376.718 95.66H391.684L390.977 99.2352H375.97L376.718 95.66ZM374.016 111H369.859L375.679 81.8997H396.215L395.509 85.5165H379.088L374.016 111ZM395.831 111L401.651 81.8997H405.809L399.989 111H395.831ZM422.503 111.333C419.565 111.333 417.057 110.82 414.978 109.794C412.927 108.769 411.347 107.342 410.239 105.513C409.158 103.656 408.618 101.508 408.618 99.0689C408.618 96.6577 409.033 94.399 409.865 92.2927C410.696 90.1587 411.888 88.2879 413.44 86.6805C415.02 85.073 416.89 83.8259 419.052 82.939C421.242 82.0244 423.708 81.5671 426.452 81.5671C428.863 81.5671 430.997 81.9552 432.854 82.7312C434.711 83.5072 436.138 84.6296 437.136 86.0985L434.143 88.6759C433.284 87.5673 432.189 86.7221 430.859 86.14C429.528 85.558 427.962 85.267 426.161 85.267C424.082 85.267 422.212 85.6273 420.549 86.3479C418.914 87.0408 417.514 88.0246 416.35 89.2995C415.186 90.5467 414.299 91.9878 413.689 93.623C413.08 95.2581 412.775 96.9903 412.775 98.8195C412.775 100.565 413.149 102.104 413.897 103.434C414.673 104.737 415.796 105.762 417.265 106.51C418.761 107.259 420.604 107.633 422.794 107.633C424.567 107.633 426.189 107.342 427.657 106.76C429.154 106.178 430.471 105.319 431.607 104.182L434.018 106.926C432.688 108.395 431.025 109.503 429.029 110.252C427.034 110.972 424.858 111.333 422.503 111.333ZM432.815 111L451.855 81.8997H455.97L463.328 111H459.213L452.728 84.1446H454.39L437.304 111H432.815ZM439.882 103.725L441.711 100.399H458.049L458.631 103.725H439.882ZM481.065 111.333C478.128 111.333 475.619 110.82 473.541 109.794C471.49 108.769 469.91 107.342 468.802 105.513C467.721 103.656 467.18 101.508 467.18 99.0689C467.18 96.6577 467.596 94.399 468.427 92.2927C469.259 90.1587 470.451 88.2879 472.003 86.6805C473.582 85.073 475.453 83.8259 477.615 82.939C479.804 82.0244 482.271 81.5671 485.015 81.5671C487.426 81.5671 489.56 81.9552 491.417 82.7312C493.274 83.5072 494.701 84.6296 495.699 86.0985L492.705 88.6759C491.846 87.5673 490.752 86.7221 489.421 86.14C488.091 85.558 486.525 85.267 484.724 85.267C482.645 85.267 480.774 85.6273 479.111 86.3479C477.476 87.0408 476.077 88.0246 474.913 89.2995C473.749 90.5467 472.862 91.9878 472.252 93.623C471.642 95.2581 471.337 96.9903 471.337 98.8195C471.337 100.565 471.712 102.104 472.46 103.434C473.236 104.737 474.358 105.762 475.827 106.51C477.324 107.259 479.167 107.633 481.356 107.633C483.13 107.633 484.751 107.342 486.22 106.76C487.717 106.178 489.033 105.319 490.17 104.182L492.581 106.926C491.25 108.395 489.587 109.503 487.592 110.252C485.597 110.972 483.421 111.333 481.065 111.333ZM503.583 94.4544H518.549L517.842 97.988H502.876L503.583 94.4544ZM501.338 107.383H518.341L517.634 111H496.474L502.294 81.8997H522.831L522.124 85.5165H505.703L501.338 107.383ZM532.888 111.333C531.419 111.333 529.978 111.18 528.564 110.875C527.179 110.543 525.904 110.113 524.74 109.587C523.603 109.06 522.689 108.464 521.996 107.799L523.825 104.473C524.573 105.138 525.446 105.72 526.444 106.219C527.47 106.718 528.551 107.106 529.687 107.383C530.851 107.66 532.043 107.799 533.262 107.799C534.814 107.799 536.186 107.605 537.378 107.217C538.569 106.829 539.484 106.275 540.121 105.554C540.786 104.806 541.119 103.905 541.119 102.852C541.119 101.993 540.842 101.286 540.288 100.732C539.733 100.177 539.013 99.734 538.126 99.4015C537.267 99.0412 536.297 98.7225 535.216 98.4453C534.163 98.1404 533.096 97.8079 532.015 97.4476C530.962 97.0596 529.992 96.5884 529.105 96.0341C528.246 95.4799 527.539 94.7731 526.985 93.914C526.458 93.0271 526.195 91.9185 526.195 90.5882C526.195 88.7314 526.707 87.1378 527.733 85.8075C528.758 84.4495 530.172 83.4102 531.973 82.6896C533.802 81.9413 535.909 81.5671 538.292 81.5671C540.094 81.5671 541.812 81.775 543.447 82.1907C545.082 82.6064 546.482 83.2162 547.646 84.0199L545.983 87.4288C544.902 86.6528 543.683 86.0708 542.325 85.6828C540.967 85.2948 539.553 85.1008 538.084 85.1008C536.505 85.1008 535.133 85.3086 533.969 85.7243C532.805 86.14 531.904 86.7359 531.267 87.5119C530.629 88.2602 530.297 89.1471 530.269 90.1725C530.269 91.0594 530.532 91.78 531.059 92.3342C531.585 92.8885 532.292 93.3458 533.179 93.7061C534.066 94.0664 535.036 94.4128 536.089 94.7454C537.17 95.0503 538.237 95.3828 539.29 95.7431C540.343 96.0757 541.313 96.5191 542.2 97.0734C543.115 97.6 543.835 98.279 544.362 99.1105C544.916 99.9419 545.193 100.995 545.193 102.27C545.193 104.127 544.667 105.748 543.613 107.134C542.588 108.492 541.147 109.531 539.29 110.252C537.461 110.972 535.327 111.333 532.888 111.333Z" fill="#6E6E6E"/>
<path opacity="0.75" d="M497.477 257.068H475.685L472.803 271.527H492.291L491.82 273.884H472.332L469.294 288.919H491.924L491.401 291.329H466.15L473.484 254.658H498.001L497.477 257.068ZM532.689 254.658L515.821 272.47L526.298 291.329H523.469L514.092 274.356L498.114 291.329H494.866L512.887 272.26L503.196 254.658H506.024L514.721 270.374L529.546 254.658H532.689ZM548.678 291.591C537.834 291.591 531.809 285.514 531.809 276.503C531.809 264.612 540.244 254.396 554.021 254.396C559.731 254.396 564.289 256.23 566.751 259.425L564.865 261.154C562.455 258.325 558.788 256.859 553.812 256.859C541.972 256.859 534.481 265.817 534.481 276.399C534.481 283.995 539.405 289.128 548.887 289.128C553.916 289.128 558.003 287.609 560.989 284.728L562.613 286.561C559.417 289.757 554.336 291.591 548.678 291.591ZM600.269 257.068H578.476L575.595 271.527H595.083L594.611 273.884H575.123L572.085 288.919H594.716L594.192 291.329H568.942L576.276 254.658H600.793L600.269 257.068ZM613.677 291.591C608.333 291.591 602.99 289.495 600.737 286.719L602.152 284.676C604.404 287.347 609.224 289.233 613.886 289.233C620.749 289.233 625.516 286.352 625.516 281.113C625.516 272.103 606.133 276.556 606.133 265.24C606.133 258.325 612.158 254.396 620.33 254.396C624.521 254.396 628.659 255.549 631.383 257.592L630.126 259.792C627.507 257.801 623.997 256.754 620.225 256.754C613.467 256.754 608.805 259.845 608.805 264.978C608.752 274.146 628.188 269.798 628.188 280.799C628.188 287.819 621.954 291.591 613.677 291.591ZM651.467 291.591C640.675 291.591 634.703 285.514 634.703 276.503C634.703 264.612 643.137 254.396 656.653 254.396C667.445 254.396 673.469 260.473 673.469 269.484C673.469 281.375 664.982 291.591 651.467 291.591ZM651.729 289.128C663.306 289.128 670.745 280.17 670.745 269.588C670.745 261.992 665.873 256.859 656.443 256.859C644.866 256.859 637.375 265.817 637.375 276.399C637.375 283.995 642.299 289.128 651.729 289.128ZM691.161 291.329L698.495 254.658H712.116C723.117 254.658 729.193 260.578 729.193 269.484C729.193 282.266 720.235 291.329 706.353 291.329H691.161ZM694.304 288.919H706.51C718.769 288.919 726.469 280.851 726.469 269.588C726.469 262.045 721.65 257.068 711.801 257.068H700.695L694.304 288.919ZM765.244 257.068H743.451L740.57 271.527H760.058L759.586 273.884H740.099L737.06 288.919H759.691L759.167 291.329H733.917L741.251 254.658H765.768L765.244 257.068ZM781.368 291.329L788.702 254.658H791.373L784.039 291.329H781.368ZM830.816 254.658H833.488L826.154 291.329H823.901L805.409 259.059L798.965 291.329H796.294L803.628 254.658H805.828L824.372 286.928L830.816 254.658ZM869.763 257.068H847.97L844.827 272.732H864.314L863.843 275.141H844.355L841.107 291.329H838.436L845.77 254.658H870.286L869.763 257.068ZM887.106 291.591C876.315 291.591 870.343 285.514 870.343 276.503C870.343 264.612 878.777 254.396 892.292 254.396C903.084 254.396 909.108 260.473 909.108 269.484C909.108 281.375 900.622 291.591 887.106 291.591ZM887.368 289.128C898.945 289.128 906.384 280.17 906.384 269.588C906.384 261.992 901.512 256.859 892.083 256.859C880.505 256.859 873.014 265.817 873.014 276.399C873.014 283.995 877.939 289.128 887.368 289.128ZM946.768 264.769C946.768 272.417 942.472 277.237 935.243 278.756L942.315 291.329H939.382L932.519 279.175C931.681 279.227 930.843 279.28 929.952 279.28H918.951L916.541 291.329H913.87L921.204 254.658H934.038C942.106 254.658 946.768 258.325 946.768 264.769ZM929.952 276.922C938.91 276.922 944.096 272.889 944.096 264.978C944.096 259.845 940.429 257.068 933.881 257.068H923.404L919.423 276.922H929.952ZM993.273 254.658H995.63L988.296 291.329H985.677L991.911 260.159L971.637 286.457H970.328L959.955 259.792L953.669 291.329H951.049L958.384 254.658H960.584L971.532 282.999L993.273 254.658ZM1028.16 291.329L1025.55 281.009H1004.22L997.466 291.329H994.48L1018.68 254.658H1021.35L1030.89 291.329H1028.16ZM1005.69 278.756H1024.97L1019.57 257.487L1005.69 278.756ZM1053.22 291.591C1042.38 291.591 1036.35 285.514 1036.35 276.503C1036.35 264.612 1044.79 254.396 1058.57 254.396C1064.28 254.396 1068.83 256.23 1071.29 259.425L1069.41 261.154C1067 258.325 1063.33 256.859 1058.36 256.859C1046.52 256.859 1039.03 265.817 1039.03 276.399C1039.03 283.995 1043.95 289.128 1053.43 289.128C1058.46 289.128 1062.55 287.609 1065.53 284.728L1067.16 286.561C1063.96 289.757 1058.88 291.591 1053.22 291.591ZM1073.49 291.329L1080.82 254.658H1083.49L1076.16 291.329H1073.49ZM1108.74 251.672L1116.7 245.491H1120.63L1111.72 251.672H1108.74ZM1105.02 291.591C1094.23 291.591 1088.25 285.514 1088.25 276.503C1088.25 264.612 1096.69 254.396 1110.2 254.396C1121 254.396 1127.02 260.473 1127.02 269.484C1127.02 281.375 1118.53 291.591 1105.02 291.591ZM1105.28 289.128C1116.86 289.128 1124.3 280.17 1124.3 269.588C1124.3 261.992 1119.42 256.859 1109.99 256.859C1098.42 256.859 1090.93 265.817 1090.93 276.399C1090.93 283.995 1095.85 289.128 1105.28 289.128ZM1166.3 254.658H1168.98L1161.64 291.329H1159.39L1140.9 259.059L1134.45 291.329H1131.78L1139.12 254.658H1141.32L1159.86 286.928L1166.3 254.658Z" fill="#6E6E6E"/>
<path opacity="0.75" d="M1185.19 108L1190.92 79.328H1196.33L1204.48 99.6442L1201.61 99.6032L1217.51 79.328H1223.2L1217.51 108H1211.28L1215.09 88.7898H1216.36L1203.7 104.969H1200.75L1193.99 88.7488L1195.22 88.8717L1191.41 108H1185.19ZM1233.44 90.8787H1247.25L1246.22 96.0397H1232.42L1233.44 90.8787ZM1231.56 102.675H1247.2L1246.1 108H1223.9L1229.63 79.328H1251.3L1250.19 84.6528H1235.16L1231.56 102.675ZM1250.97 108L1256.7 79.328H1262.19L1274.52 100.095L1272.35 99.9718L1276.45 79.328H1283L1277.26 108H1271.82L1259.45 87.2333L1261.66 87.3562L1257.52 108H1250.97ZM1293.63 108.492C1292.08 108.492 1290.56 108.341 1289.09 108.041C1287.64 107.768 1286.32 107.386 1285.11 106.894C1283.94 106.403 1282.94 105.87 1282.12 105.297L1284.83 100.177C1285.73 100.805 1286.68 101.351 1287.69 101.815C1288.73 102.252 1289.81 102.593 1290.93 102.839C1292.05 103.057 1293.17 103.167 1294.29 103.167C1295.52 103.167 1296.57 103.03 1297.44 102.757C1298.34 102.484 1299.03 102.102 1299.49 101.61C1299.98 101.119 1300.23 100.518 1300.23 99.808C1300.23 99.1526 1299.97 98.6202 1299.45 98.2106C1298.93 97.801 1298.25 97.4596 1297.4 97.1866C1296.58 96.8862 1295.67 96.5995 1294.66 96.3264C1293.65 96.0533 1292.62 95.7393 1291.59 95.3843C1290.57 95.002 1289.65 94.5378 1288.8 93.9917C1287.98 93.4182 1287.31 92.6946 1286.79 91.8208C1286.27 90.947 1286.01 89.8547 1286.01 88.544C1286.01 86.5779 1286.55 84.8713 1287.61 83.424C1288.7 81.9767 1290.23 80.8572 1292.2 80.0653C1294.17 79.2461 1296.47 78.8365 1299.12 78.8365C1301.06 78.8365 1302.89 79.0549 1304.61 79.4918C1306.33 79.9014 1307.81 80.5022 1309.03 81.2941L1306.54 86.3731C1305.44 85.6358 1304.23 85.0897 1302.89 84.7347C1301.55 84.3524 1300.17 84.1613 1298.75 84.1613C1297.47 84.1613 1296.36 84.3115 1295.44 84.6118C1294.53 84.9122 1293.84 85.3355 1293.35 85.8816C1292.88 86.4004 1292.65 87.0012 1292.65 87.6838C1292.65 88.3665 1292.9 88.9263 1293.39 89.3632C1293.91 89.7728 1294.59 90.1278 1295.44 90.4282C1296.28 90.7012 1297.21 90.9743 1298.22 91.2474C1299.23 91.5204 1300.24 91.8345 1301.25 92.1894C1302.26 92.5444 1303.19 92.995 1304.04 93.5411C1304.88 94.0873 1305.57 94.7836 1306.09 95.6301C1306.6 96.4493 1306.86 97.4869 1306.86 98.743C1306.86 100.709 1306.32 102.429 1305.22 103.904C1304.13 105.351 1302.59 106.484 1300.6 107.304C1298.63 108.096 1296.31 108.492 1293.63 108.492ZM1305.58 108L1324.1 79.328H1330.69L1337.73 108H1331.1L1325.53 82.6048H1328.15L1312.67 108H1305.58ZM1313.24 101.856L1315.94 96.8179H1330.73L1331.51 101.856H1313.24ZM1347.04 108.492C1344.86 108.492 1342.98 108.123 1341.39 107.386C1339.81 106.648 1338.58 105.583 1337.7 104.191L1342.09 100.013C1342.66 100.969 1343.37 101.719 1344.22 102.266C1345.06 102.784 1346.03 103.044 1347.13 103.044C1348.38 103.044 1349.41 102.689 1350.2 101.979C1351.02 101.269 1351.58 100.136 1351.88 98.5792L1354.62 84.6528H1344.55L1345.65 79.328H1362.28L1358.47 98.2515C1357.98 100.764 1357.23 102.771 1356.22 104.273C1355.24 105.747 1353.98 106.826 1352.45 107.508C1350.92 108.164 1349.12 108.492 1347.04 108.492ZM1372.19 90.8787H1386L1384.97 96.0397H1371.17L1372.19 90.8787ZM1370.31 102.675H1385.96L1384.85 108H1362.65L1368.38 79.328H1390.05L1388.95 84.6528H1373.91L1370.31 102.675ZM1399.71 108.492C1398.16 108.492 1396.64 108.341 1395.17 108.041C1393.72 107.768 1392.4 107.386 1391.2 106.894C1390.02 106.403 1389.02 105.87 1388.21 105.297L1390.91 100.177C1391.81 100.805 1392.77 101.351 1393.78 101.815C1394.81 102.252 1395.89 102.593 1397.01 102.839C1398.13 103.057 1399.25 103.167 1400.37 103.167C1401.6 103.167 1402.65 103.03 1403.52 102.757C1404.43 102.484 1405.11 102.102 1405.57 101.61C1406.06 101.119 1406.31 100.518 1406.31 99.808C1406.31 99.1526 1406.05 98.6202 1405.53 98.2106C1405.01 97.801 1404.33 97.4596 1403.48 97.1866C1402.66 96.8862 1401.75 96.5995 1400.74 96.3264C1399.73 96.0533 1398.7 95.7393 1397.67 95.3843C1396.66 95.002 1395.73 94.5378 1394.88 93.9917C1394.06 93.4182 1393.39 92.6946 1392.87 91.8208C1392.36 90.947 1392.1 89.8547 1392.1 88.544C1392.1 86.5779 1392.63 84.8713 1393.69 83.424C1394.79 81.9767 1396.32 80.8572 1398.28 80.0653C1400.25 79.2461 1402.55 78.8365 1405.2 78.8365C1407.14 78.8365 1408.97 79.0549 1410.69 79.4918C1412.41 79.9014 1413.89 80.5022 1415.12 81.2941L1412.62 86.3731C1411.53 85.6358 1410.31 85.0897 1408.97 84.7347C1407.63 84.3524 1406.25 84.1613 1404.83 84.1613C1403.55 84.1613 1402.45 84.3115 1401.52 84.6118C1400.62 84.9122 1399.92 85.3355 1399.43 85.8816C1398.96 86.4004 1398.73 87.0012 1398.73 87.6838C1398.73 88.3665 1398.98 88.9263 1399.47 89.3632C1399.99 89.7728 1400.67 90.1278 1401.52 90.4282C1402.36 90.7012 1403.29 90.9743 1404.3 91.2474C1405.31 91.5204 1406.32 91.8345 1407.33 92.1894C1408.34 92.5444 1409.27 92.995 1410.12 93.5411C1410.97 94.0873 1411.65 94.7836 1412.17 95.6301C1412.69 96.4493 1412.94 97.4869 1412.94 98.743C1412.94 100.709 1412.4 102.429 1411.31 103.904C1410.21 105.351 1408.67 106.484 1406.68 107.304C1404.71 108.096 1402.39 108.492 1399.71 108.492ZM1441.69 108.492C1438.77 108.492 1436.25 107.973 1434.12 106.935C1432.01 105.87 1430.39 104.409 1429.24 102.552C1428.1 100.668 1427.52 98.4973 1427.52 96.0397C1427.52 93.6094 1427.95 91.3429 1428.79 89.2403C1429.67 87.1377 1430.88 85.3218 1432.44 83.7926C1434.02 82.2362 1435.89 81.021 1438.05 80.1472C1440.23 79.2734 1442.66 78.8365 1445.34 78.8365C1447.91 78.8365 1450.17 79.2734 1452.14 80.1472C1454.11 81.021 1455.59 82.2771 1456.6 83.9155L1451.81 87.8477C1451.07 86.7554 1450.13 85.9226 1448.99 85.3491C1447.84 84.7757 1446.47 84.489 1444.89 84.489C1443.28 84.489 1441.82 84.7757 1440.51 85.3491C1439.2 85.8953 1438.06 86.6871 1437.11 87.7248C1436.18 88.7351 1435.47 89.923 1434.98 91.2883C1434.49 92.6537 1434.24 94.1009 1434.24 95.6301C1434.24 97.0773 1434.55 98.3471 1435.18 99.4394C1435.81 100.504 1436.72 101.337 1437.93 101.938C1439.13 102.539 1440.58 102.839 1442.27 102.839C1443.74 102.839 1445.12 102.58 1446.41 102.061C1447.69 101.515 1448.85 100.668 1449.89 99.5213L1453.82 103.535C1452.32 105.283 1450.53 106.553 1448.45 107.345C1446.41 108.109 1444.15 108.492 1441.69 108.492ZM1470.52 108.492C1467.63 108.492 1465.13 107.973 1463.02 106.935C1460.95 105.87 1459.35 104.409 1458.23 102.552C1457.11 100.668 1456.55 98.4973 1456.55 96.0397C1456.55 93.5821 1456.98 91.3156 1457.82 89.2403C1458.67 87.1377 1459.87 85.3218 1461.43 83.7926C1463.01 82.2362 1464.88 81.021 1467.04 80.1472C1469.22 79.2734 1471.64 78.8365 1474.29 78.8365C1477.18 78.8365 1479.67 79.369 1481.74 80.4339C1483.85 81.4716 1485.46 82.9325 1486.58 84.8166C1487.7 86.6735 1488.26 88.8307 1488.26 91.2883C1488.26 93.7459 1487.83 96.026 1486.99 98.1286C1486.14 100.204 1484.92 102.02 1483.34 103.576C1481.78 105.105 1479.91 106.307 1477.73 107.181C1475.57 108.055 1473.17 108.492 1470.52 108.492ZM1471.09 102.839C1472.7 102.839 1474.15 102.552 1475.44 101.979C1476.75 101.378 1477.85 100.559 1478.75 99.5213C1479.65 98.4836 1480.34 97.2958 1480.8 95.9578C1481.29 94.5924 1481.54 93.1588 1481.54 91.657C1481.54 90.237 1481.24 88.9946 1480.64 87.9296C1480.04 86.8373 1479.15 85.9908 1477.98 85.3901C1476.83 84.7893 1475.41 84.489 1473.72 84.489C1472.1 84.489 1470.66 84.7893 1469.37 85.3901C1468.09 85.9635 1466.98 86.7691 1466.06 87.8067C1465.15 88.8444 1464.46 90.0459 1463.97 91.4112C1463.5 92.7492 1463.27 94.1692 1463.27 95.671C1463.27 97.091 1463.57 98.3471 1464.17 99.4394C1464.8 100.504 1465.69 101.337 1466.83 101.938C1468.01 102.539 1469.43 102.839 1471.09 102.839ZM1489.8 108L1495.54 79.328H1501.03L1513.35 100.095L1511.18 99.9718L1515.28 79.328H1521.83L1516.1 108H1510.65L1498.28 87.2333L1500.49 87.3562L1496.36 108H1489.8ZM1531.77 92.2304H1545.57L1544.47 97.5552H1530.71L1531.77 92.2304ZM1529.15 108H1522.47L1528.21 79.328H1549.87L1548.77 84.6528H1533.78L1529.15 108ZM1561.74 108.492C1558.95 108.492 1556.63 107.945 1554.78 106.853C1552.92 105.761 1551.61 104.245 1550.84 102.307C1550.11 100.34 1550 98.0331 1550.52 95.3843L1553.71 79.328H1560.39L1557.19 95.2614C1556.95 96.5449 1556.88 97.6644 1556.99 98.6202C1557.1 99.5759 1557.37 100.368 1557.81 100.996C1558.27 101.624 1558.9 102.088 1559.69 102.388C1560.48 102.689 1561.41 102.839 1562.48 102.839C1563.82 102.839 1564.98 102.58 1565.96 102.061C1566.94 101.542 1567.76 100.723 1568.42 99.6032C1569.07 98.4836 1569.58 97.0364 1569.93 95.2614L1573.13 79.328H1579.64L1576.4 95.671C1575.56 99.9036 1573.9 103.098 1571.45 105.256C1568.99 107.413 1565.75 108.492 1561.74 108.492ZM1590.09 108.492C1588.53 108.492 1587.02 108.341 1585.54 108.041C1584.09 107.768 1582.77 107.386 1581.57 106.894C1580.39 106.403 1579.4 105.87 1578.58 105.297L1581.28 100.177C1582.18 100.805 1583.14 101.351 1584.15 101.815C1585.19 102.252 1586.26 102.593 1587.38 102.839C1588.5 103.057 1589.62 103.167 1590.74 103.167C1591.97 103.167 1593.02 103.03 1593.9 102.757C1594.8 102.484 1595.48 102.102 1595.94 101.61C1596.44 101.119 1596.68 100.518 1596.68 99.808C1596.68 99.1526 1596.42 98.6202 1595.9 98.2106C1595.39 97.801 1594.7 97.4596 1593.86 97.1866C1593.04 96.8862 1592.12 96.5995 1591.11 96.3264C1590.1 96.0533 1589.08 95.7393 1588.04 95.3843C1587.03 95.002 1586.1 94.5378 1585.25 93.9917C1584.44 93.4182 1583.77 92.6946 1583.25 91.8208C1582.73 90.947 1582.47 89.8547 1582.47 88.544C1582.47 86.5779 1583 84.8713 1584.07 83.424C1585.16 81.9767 1586.69 80.8572 1588.65 80.0653C1590.62 79.2461 1592.93 78.8365 1595.58 78.8365C1597.52 78.8365 1599.34 79.0549 1601.06 79.4918C1602.79 79.9014 1604.26 80.5022 1605.49 81.2941L1602.99 86.3731C1601.9 85.6358 1600.68 85.0897 1599.34 84.7347C1598.01 84.3524 1596.63 84.1613 1595.21 84.1613C1593.92 84.1613 1592.82 84.3115 1591.89 84.6118C1590.99 84.9122 1590.29 85.3355 1589.8 85.8816C1589.34 86.4004 1589.1 87.0012 1589.1 87.6838C1589.1 88.3665 1589.35 88.9263 1589.84 89.3632C1590.36 89.7728 1591.04 90.1278 1591.89 90.4282C1592.74 90.7012 1593.66 90.9743 1594.68 91.2474C1595.69 91.5204 1596.7 91.8345 1597.71 92.1894C1598.72 92.5444 1599.64 92.995 1600.49 93.5411C1601.34 94.0873 1602.02 94.7836 1602.54 95.6301C1603.06 96.4493 1603.32 97.4869 1603.32 98.743C1603.32 100.709 1602.77 102.429 1601.68 103.904C1600.59 105.351 1599.04 106.484 1597.05 107.304C1595.08 108.096 1592.76 108.492 1590.09 108.492ZM1620.67 108.492C1617.78 108.492 1615.28 107.973 1613.18 106.935C1611.1 105.87 1609.5 104.409 1608.38 102.552C1607.26 100.668 1606.7 98.4973 1606.7 96.0397C1606.7 93.5821 1607.13 91.3156 1607.97 89.2403C1608.82 87.1377 1610.02 85.3218 1611.58 83.7926C1613.16 82.2362 1615.03 81.021 1617.19 80.1472C1619.38 79.2734 1621.79 78.8365 1624.44 78.8365C1627.34 78.8365 1629.82 79.369 1631.9 80.4339C1634 81.4716 1635.61 82.9325 1636.73 84.8166C1637.85 86.6735 1638.41 88.8307 1638.41 91.2883C1638.41 93.7459 1637.98 96.026 1637.14 98.1286C1636.29 100.204 1635.08 102.02 1633.49 103.576C1631.94 105.105 1630.07 106.307 1627.88 107.181C1625.72 108.055 1623.32 108.492 1620.67 108.492ZM1621.25 102.839C1622.86 102.839 1624.3 102.552 1625.59 101.979C1626.9 101.378 1628 100.559 1628.91 99.5213C1629.81 98.4836 1630.49 97.2958 1630.95 95.9578C1631.44 94.5924 1631.69 93.1588 1631.69 91.657C1631.69 90.237 1631.39 88.9946 1630.79 87.9296C1630.19 86.8373 1629.3 85.9908 1628.13 85.3901C1626.98 84.7893 1625.56 84.489 1623.87 84.489C1622.26 84.489 1620.81 84.7893 1619.53 85.3901C1618.24 85.9635 1617.14 86.7691 1616.21 87.8067C1615.31 88.8444 1614.61 90.0459 1614.12 91.4112C1613.65 92.7492 1613.42 94.1692 1613.42 95.671C1613.42 97.091 1613.72 98.3471 1614.32 99.4394C1614.95 100.504 1615.84 101.337 1616.99 101.938C1618.16 102.539 1619.58 102.839 1621.25 102.839ZM1649.95 108.492C1648.39 108.492 1646.88 108.341 1645.4 108.041C1643.95 107.768 1642.63 107.386 1641.43 106.894C1640.25 106.403 1639.26 105.87 1638.44 105.297L1641.14 100.177C1642.04 100.805 1643 101.351 1644.01 101.815C1645.05 102.252 1646.13 102.593 1647.25 102.839C1648.36 103.057 1649.48 103.167 1650.6 103.167C1651.83 103.167 1652.88 103.03 1653.76 102.757C1654.66 102.484 1655.34 102.102 1655.81 101.61C1656.3 101.119 1656.54 100.518 1656.54 99.808C1656.54 99.1526 1656.28 98.6202 1655.76 98.2106C1655.25 97.801 1654.56 97.4596 1653.72 97.1866C1652.9 96.8862 1651.98 96.5995 1650.97 96.3264C1649.96 96.0533 1648.94 95.7393 1647.9 95.3843C1646.89 95.002 1645.96 94.5378 1645.12 93.9917C1644.3 93.4182 1643.63 92.6946 1643.11 91.8208C1642.59 90.947 1642.33 89.8547 1642.33 88.544C1642.33 86.5779 1642.86 84.8713 1643.93 83.424C1645.02 81.9767 1646.55 80.8572 1648.51 80.0653C1650.48 79.2461 1652.79 78.8365 1655.44 78.8365C1657.38 78.8365 1659.21 79.0549 1660.93 79.4918C1662.65 79.9014 1664.12 80.5022 1665.35 81.2941L1662.85 86.3731C1661.76 85.6358 1660.54 85.0897 1659.21 84.7347C1657.87 84.3524 1656.49 84.1613 1655.07 84.1613C1653.79 84.1613 1652.68 84.3115 1651.75 84.6118C1650.85 84.9122 1650.15 85.3355 1649.66 85.8816C1649.2 86.4004 1648.97 87.0012 1648.97 87.6838C1648.97 88.3665 1649.21 88.9263 1649.7 89.3632C1650.22 89.7728 1650.9 90.1278 1651.75 90.4282C1652.6 90.7012 1653.53 90.9743 1654.54 91.2474C1655.55 91.5204 1656.56 91.8345 1657.57 92.1894C1658.58 92.5444 1659.51 92.995 1660.35 93.5411C1661.2 94.0873 1661.88 94.7836 1662.4 95.6301C1662.92 96.4493 1663.18 97.4869 1663.18 98.743C1663.18 100.709 1662.63 102.429 1661.54 103.904C1660.45 105.351 1658.91 106.484 1656.91 107.304C1654.95 108.096 1652.62 108.492 1649.95 108.492Z" fill="#6E6E6E"/>
<path opacity="0.75" d="M96.8547 242.246C90.3351 242.246 85.4761 237.602 85.4761 231.237C85.4761 224.871 90.3351 220.227 96.8854 220.227C100.207 220.227 103.097 221.365 105.066 223.579L103.067 225.516C101.406 223.764 99.3764 222.964 97.0084 222.964C92.1495 222.964 88.5514 226.47 88.5514 231.237C88.5514 236.003 92.1495 239.509 97.0084 239.509C99.3764 239.509 101.406 238.679 103.067 236.926L105.066 238.863C103.097 241.077 100.207 242.246 96.8547 242.246ZM112.221 239.325H124.768V242H109.145V220.473H124.337V223.149H112.221V229.76H123.015V232.374H112.221V239.325ZM129.44 242V220.473H138.512C145.431 220.473 150.136 224.84 150.136 231.237C150.136 237.633 145.431 242 138.512 242H129.44ZM132.515 239.325H138.327C143.647 239.325 147.061 236.065 147.061 231.237C147.061 226.408 143.647 223.149 138.327 223.149H132.515V239.325ZM157.615 239.325H170.162V242H154.539V220.473H169.731V223.149H157.615V229.76H168.409V232.374H157.615V239.325ZM192.578 242H189.226L184.582 235.388C184.152 235.419 183.691 235.45 183.229 235.45H177.909V242H174.834V220.473H183.229C188.826 220.473 192.209 223.302 192.209 227.977C192.209 231.298 190.487 233.697 187.473 234.773L192.578 242ZM183.137 232.836C187.073 232.836 189.134 231.052 189.134 227.977C189.134 224.901 187.073 223.149 183.137 223.149H177.909V232.836H183.137ZM220.444 220.473H223.519L214.078 242H211.033L201.561 220.473H204.883L212.633 238.156L220.444 220.473ZM229.032 239.325H241.579V242H225.957V220.473H241.149V223.149H229.032V229.76H239.826V232.374H229.032V239.325ZM261.689 220.473H264.764V242H262.243L249.326 225.947V242H246.251V220.473H248.773L261.689 236.526V220.473ZM275.175 242V223.149H267.794V220.473H285.6V223.149H278.219V242H275.175ZM303.644 242L301.277 236.618H289.836L287.468 242H284.301L294.05 220.473H297.094L306.874 242H303.644ZM290.913 234.158H300.2L295.556 223.61L290.913 234.158ZM312.996 242.246C310.443 242.246 308.106 241.139 306.722 239.14L308.506 237.049C309.674 238.709 311.181 239.601 312.996 239.601C315.425 239.601 316.686 238.125 316.686 235.234V223.149H308.905V220.473H319.73V235.081C319.73 239.878 317.393 242.246 312.996 242.246ZM341.32 242L338.952 236.618H327.512L325.144 242H321.977L331.725 220.473H334.77L344.549 242H341.32ZM328.589 234.158H337.876L333.232 223.61L328.589 234.158Z" fill="#6E6E6E"/>
<path opacity="0.75" d="M1436.08 304L1441.82 275.302H1454.78C1463.84 275.302 1469.41 279.934 1469.41 287.478C1469.41 297.604 1461.91 304 1451.46 304H1436.08ZM1447.27 296.456H1451.78C1456.91 296.456 1459.66 292.767 1459.66 288.052C1459.66 284.731 1457.56 282.845 1453.67 282.845H1449.98L1447.27 296.456ZM1485.7 304.656C1476.76 304.656 1471.14 299.367 1471.14 291.824C1471.14 281.697 1478.69 274.646 1489.22 274.646C1498.16 274.646 1503.78 279.934 1503.78 287.478C1503.78 297.604 1496.23 304.656 1485.7 304.656ZM1486.52 296.825C1491.27 296.825 1494.02 292.767 1494.02 288.052C1494.02 284.731 1491.93 282.476 1488.4 282.476C1483.65 282.476 1480.9 286.535 1480.9 291.25C1480.9 294.57 1482.99 296.825 1486.52 296.825ZM1535.74 275.302H1543.98L1538.32 304H1529.51L1532.05 290.922L1523.97 301.417H1519.71L1515.28 291.086L1512.7 304H1503.89L1509.63 275.302H1517.5L1523.73 290.553L1535.74 275.302ZM1542.59 304L1548.33 275.302H1558.01L1552.27 304H1542.59ZM1581.11 275.302H1590.54L1584.8 304H1576.85L1568.61 290.635L1565.94 304H1556.51L1562.25 275.302H1570.21L1578.45 288.667L1581.11 275.302ZM1589.06 304L1594.79 275.302H1604.47L1598.73 304H1589.06ZM1619.13 304.656C1610.19 304.656 1604.58 299.367 1604.58 291.824C1604.58 281.697 1612.12 274.646 1622.66 274.646C1631.59 274.646 1637.21 279.934 1637.21 287.478C1637.21 297.604 1629.67 304.656 1619.13 304.656ZM1619.95 296.825C1624.71 296.825 1627.45 292.767 1627.45 288.052C1627.45 284.731 1625.36 282.476 1621.84 282.476C1617.08 282.476 1614.33 286.535 1614.33 291.25C1614.33 294.57 1616.43 296.825 1619.95 296.825Z" fill="#6E6E6E"/>
<path opacity="0.75" d="M881.174 23.2071H893.263V60H883.066L869.085 43.2855V60H856.996V23.2071H867.193L881.174 39.9216V23.2071ZM910.909 50.6441H929.305V60H898.715V23.2071H928.622V32.563H910.909V36.873H926.467V45.8084H910.909V50.6441ZM952.582 60.841C940.756 60.841 932.083 52.9042 932.083 41.6035C932.083 30.3028 940.756 22.3661 952.582 22.3661C959.783 22.3661 965.46 24.9942 969.086 29.7247L961.255 36.7153C959.1 33.9821 956.524 32.4053 953.213 32.4053C948.062 32.4053 944.593 35.9795 944.593 41.6035C944.593 47.2276 948.062 50.8018 953.213 50.8018C956.524 50.8018 959.1 49.2249 961.255 46.4917L969.086 53.4824C965.46 58.2129 959.783 60.841 952.582 60.841ZM984.336 50.6441H1002.73V60H972.142V23.2071H1002.05V32.563H984.336V36.873H999.895V45.8084H984.336V50.6441ZM1020.7 60.841C1014.55 60.841 1008.35 59.3167 1004.67 57.0566L1008.66 48.016C1012.13 50.0659 1016.76 51.3799 1020.81 51.3799C1024.33 51.3799 1025.59 50.6441 1025.59 49.3826C1025.59 44.7572 1005.25 48.4891 1005.25 34.7706C1005.25 27.9376 1010.98 22.3661 1022.38 22.3661C1027.32 22.3661 1032.42 23.4173 1036.26 25.5723L1032.53 34.5603C1028.9 32.7207 1025.48 31.8271 1022.28 31.8271C1018.65 31.8271 1017.49 32.8784 1017.49 34.1398C1017.49 38.555 1037.84 34.8757 1037.84 48.4365C1037.84 55.1644 1032.11 60.841 1020.7 60.841ZM1041 60V23.2071H1053.41V60H1041ZM1058.85 60V23.2071H1076.99C1089.29 23.2071 1097.75 30.1977 1097.75 41.6035C1097.75 53.0093 1089.29 60 1076.99 60H1058.85ZM1071.26 50.3287H1076.46C1081.66 50.3287 1085.24 47.2276 1085.24 41.6035C1085.24 35.9795 1081.66 32.8784 1076.46 32.8784H1071.26V50.3287ZM1128.78 60L1126.31 53.5875H1112.33L1109.86 60H1097.24L1113.33 23.2071H1125.52L1141.6 60H1128.78ZM1115.74 44.6521H1122.89L1119.32 35.4013L1115.74 44.6521ZM1143.06 60V23.2071H1161.19C1173.49 23.2071 1181.95 30.1977 1181.95 41.6035C1181.95 53.0093 1173.49 60 1161.19 60H1143.06ZM1155.46 50.3287H1160.67C1165.87 50.3287 1169.44 47.2276 1169.44 41.6035C1169.44 35.9795 1165.87 32.8784 1160.67 32.8784H1155.46V50.3287Z" fill="#6E6E6E"/>
<g opacity="0.75" filter="url(#filter0_f_3111_5476)">
<path d="M1338.51 42.0383V13.3398H1352.66C1362.25 13.3398 1368.85 18.7925 1368.85 27.689C1368.85 36.5856 1362.25 42.0383 1352.66 42.0383H1338.51ZM1348.19 34.4947H1352.25C1356.31 34.4947 1359.09 32.0758 1359.09 27.689C1359.09 23.3023 1356.31 20.8834 1352.25 20.8834H1348.19V34.4947ZM1381.48 34.7407H1395.83V42.0383H1371.97V13.3398H1395.3V20.6374H1381.48V23.9992H1393.62V30.9689H1381.48V34.7407ZM1409.85 42.6942C1405.05 42.6942 1400.21 41.5053 1397.35 39.7424L1400.46 32.6908C1403.17 34.2897 1406.77 35.3146 1409.93 35.3146C1412.68 35.3146 1413.66 34.7407 1413.66 33.7567C1413.66 30.1489 1397.8 33.0597 1397.8 22.3593C1397.8 17.0296 1402.26 12.6838 1411.16 12.6838C1415.02 12.6838 1418.99 13.5038 1421.98 15.1847L1419.07 22.1953C1416.25 20.7604 1413.58 20.0634 1411.08 20.0634C1408.25 20.0634 1407.35 20.8834 1407.35 21.8673C1407.35 25.3112 1423.21 22.4413 1423.21 33.0187C1423.21 38.2665 1418.75 42.6942 1409.85 42.6942ZM1447.17 42.0383L1445.24 37.0365H1434.33L1432.41 42.0383H1422.57L1435.11 13.3398H1444.62L1457.17 42.0383H1447.17ZM1437 30.0669H1442.57L1439.79 22.8513L1437 30.0669ZM1472.12 13.3398C1480.12 13.3398 1485.2 17.5216 1485.2 24.1632C1485.2 30.8049 1480.12 34.9866 1472.12 34.9866H1467.98V42.0383H1458.3V13.3398H1472.12ZM1471.51 27.525C1474.17 27.525 1475.44 26.2541 1475.44 24.1632C1475.44 22.0723 1474.17 20.8014 1471.51 20.8014H1467.98V27.525H1471.51ZM1508 42.0383L1506.08 37.0365H1495.17L1493.24 42.0383H1483.4L1495.95 13.3398H1505.46L1518.01 42.0383H1508ZM1497.84 30.0669H1503.41L1500.62 22.8513L1497.84 30.0669ZM1536.32 42.0383L1531.44 34.8226H1528.82V42.0383H1519.14V13.3398H1532.96C1540.95 13.3398 1546.04 17.5216 1546.04 24.1632C1546.04 28.304 1544.07 31.4198 1540.62 33.1827L1546.65 42.0383H1536.32ZM1536.28 24.1632C1536.28 22.0723 1535.01 20.8014 1532.34 20.8014H1528.82V27.525H1532.34C1535.01 27.525 1536.28 26.2541 1536.28 24.1632ZM1558.79 34.7407H1573.14V42.0383H1549.28V13.3398H1572.61V20.6374H1558.79V23.9992H1570.93V30.9689H1558.79V34.7407ZM1591.3 42.6942C1582.07 42.6942 1575.31 36.5036 1575.31 27.689C1575.31 18.8745 1582.07 12.6838 1591.3 12.6838C1596.91 12.6838 1601.34 14.7337 1604.17 18.4235L1598.06 23.8762C1596.38 21.7443 1594.37 20.5144 1591.79 20.5144C1587.77 20.5144 1585.06 23.3023 1585.06 27.689C1585.06 32.0758 1587.77 34.8636 1591.79 34.8636C1594.37 34.8636 1596.38 33.6337 1598.06 31.5018L1604.17 36.9545C1601.34 40.6443 1596.91 42.6942 1591.3 42.6942ZM1616.06 34.7407H1630.41V42.0383H1606.55V13.3398H1629.88V20.6374H1616.06V23.9992H1628.2V30.9689H1616.06V34.7407ZM1650.91 42.0383L1646.03 34.8226H1643.4V42.0383H1633.73V13.3398H1647.54C1655.54 13.3398 1660.62 17.5216 1660.62 24.1632C1660.62 28.304 1658.66 31.4198 1655.21 33.1827L1661.24 42.0383H1650.91ZM1650.87 24.1632C1650.87 22.0723 1649.59 20.8014 1646.93 20.8014H1643.4V27.525H1646.93C1649.59 27.525 1650.87 26.2541 1650.87 24.1632Z" fill="#6E6E6E"/>
</g>
<g filter="url(#filter1_d_3111_5476)">
<path d="M655.482 206.682C618.747 206.682 591.808 182.029 591.808 146.927C591.808 111.825 618.747 87.1724 655.482 87.1724C677.849 87.1724 695.481 95.3356 706.747 110.029L682.42 131.744C675.726 123.254 667.726 118.356 657.441 118.356C641.441 118.356 630.665 129.458 630.665 146.927C630.665 164.397 641.441 175.499 657.441 175.499C667.726 175.499 675.726 170.601 682.42 162.111L706.747 183.825C695.481 198.519 677.849 206.682 655.482 206.682ZM800.195 204.07L792.522 184.152H749.093L741.42 204.07H702.236L752.195 89.7846H790.073L840.032 204.07H800.195ZM759.706 156.397H781.91L770.808 127.662L759.706 156.397ZM902.872 206.682C865.648 206.682 838.383 181.539 838.383 146.927C838.383 112.315 865.648 87.1724 902.872 87.1724C940.096 87.1724 967.362 112.315 967.362 146.927C967.362 181.539 940.096 206.682 902.872 206.682ZM902.872 175.499C917.076 175.499 928.505 164.723 928.505 146.927C928.505 129.131 917.076 118.356 902.872 118.356C888.668 118.356 877.24 129.131 877.24 146.927C877.24 164.723 888.668 175.499 902.872 175.499ZM1022.33 206.682C1003.22 206.682 983.958 201.947 972.53 194.927L984.938 166.845C995.714 173.213 1010.08 177.294 1022.65 177.294C1033.59 177.294 1037.51 175.009 1037.51 171.09C1037.51 156.723 974.326 168.315 974.326 125.703C974.326 104.478 992.122 87.1724 1027.55 87.1724C1042.9 87.1724 1058.73 90.4377 1070.65 97.1315L1059.06 125.05C1047.79 119.335 1037.18 116.56 1027.22 116.56C1015.96 116.56 1012.37 119.825 1012.37 123.744C1012.37 137.458 1075.55 126.029 1075.55 168.152C1075.55 189.049 1057.75 206.682 1022.33 206.682Z" fill="#2F383F"/>
</g>
</g>
<defs>
<filter id="filter0_f_3111_5476" x="1333.71" y="7.88384" width="332.326" height="39.6104" filterUnits="userSpaceOnUse" color-interpolation-filters="sRGB">
<feFlood flood-opacity="0" result="BackgroundImageFix"/>
<feBlend mode="normal" in="SourceGraphic" in2="BackgroundImageFix" result="shape"/>
<feGaussianBlur stdDeviation="2.4" result="effect1_foregroundBlur_3111_5476"/>
</filter>
<filter id="filter1_d_3111_5476" x="551.808" y="51.1724" width="563.741" height="199.51" filterUnits="userSpaceOnUse" color-interpolation-filters="sRGB">
<feFlood flood-opacity="0" result="BackgroundImageFix"/>
<feColorMatrix in="SourceAlpha" type="matrix" values="0 0 0 0 0 0 0 0 0 0 0 0 0 0 0 0 0 0 127 0" result="hardAlpha"/>
<feOffset dy="4"/>
<feGaussianBlur stdDeviation="20"/>
<feComposite in2="hardAlpha" operator="out"/>
<feColorMatrix type="matrix" values="0 0 0 0 1 0 0 0 0 1 0 0 0 0 0.972549 0 0 0 0.25 0"/>
<feBlend mode="normal" in2="BackgroundImageFix" result="effect1_dropShadow_3111_5476"/>
<feBlend mode="normal" in="SourceGraphic" in2="effect1_dropShadow_3111_5476" result="shape"/>
</filter>
<clipPath id="clip0_3111_5476">
<rect width="1676" height="333.792" fill="white" transform="translate(0 0.919922)"/>
</clipPath>
</defs>
</svg>
